<svg width="144" height="167" fill="none" xmlns="http://www.w3.org/2000/svg"><path fill-rule="evenodd" clip-rule="evenodd" d="M71.32 1.124C64.69 2.902 54.667 8.86 45.532 16.442-20.502 71.39-13.507 151.275 58.686 166.018c57.159 11.658 113.744-91.753 69.426-126.886-27.666-21.958-70.94 2.718-78.979 44.961-6.838 36.074 28.606 62.372 52.2 38.793 24.326-24.31 24.065-58.293-.522-58.502-19.105-.157-30.38 29.434-13.624 35.707 9.918 3.712 21.611-7.842 13.833-13.645-2.558-1.934-4.28-1.516-5.168 1.098-1.722 5.437-7.464 9.306-8.404 5.699-2.766-10.247 13.52-28.703 19.941-22.586 9.135 8.679 1.409 33.564-15.243 48.987-24.638 22.847-45.936-14.795-28.292-50.084 20.306-40.623 63.005-45.328 70.783-7.79 8.404 40.412-34.087 100.065-70.105 98.13-46.145-2.457-69.791-49.666-45.988-96.614C30.969 38.714 57.643 12.207 77.427 4.784c7.934-2.98 2.819-6.013-6.108-3.66Z" fill="#000"/></svg>