<svg width="144" height="167" viewBox="0 0 144 167" fill="none" xmlns="http://www.w3.org/2000/svg">
<path fill-rule="evenodd" clip-rule="evenodd" d="M71.3194 1.12394C64.69 2.90154 54.6675 8.86143 45.5325 16.4421C-20.5006 71.3891 -13.506 151.275 58.687 166.018C115.846 177.676 172.431 74.2646 128.113 39.1319C100.447 17.1742 57.1731 41.8505 49.1343 84.0934C42.2961 120.167 77.74 146.465 101.334 122.886C125.66 98.5756 125.399 64.5926 100.812 64.3835C81.7072 64.2267 70.432 93.8176 87.1882 100.091C97.1062 103.803 108.799 92.2491 101.021 86.446C98.4634 84.5116 96.7408 84.9298 95.8534 87.5439C94.1308 92.9811 88.3888 96.8498 87.4492 93.2425C84.6826 82.9955 100.969 64.5404 107.39 70.6572C116.525 79.3358 108.799 104.221 92.1472 119.644C67.5088 142.491 46.2111 104.849 63.8548 69.5598C84.1606 28.9375 126.86 24.232 134.638 61.7695C143.042 102.182 100.551 161.835 64.5334 159.9C18.3884 157.443 -5.25829 110.234 18.5449 63.2861C30.9687 38.7142 57.6429 12.2075 77.4268 4.78359C85.3612 1.80359 80.2456 -1.22869 71.3194 1.12394Z" fill="black"/>
</svg>
