<svg width="32" height="33" fill="none" xmlns="http://www.w3.org/2000/svg"><g clip-path="url(#a)"><path fill-rule="evenodd" clip-rule="evenodd" d="M23.22 19.676c-.398-.199-2.346-1.156-2.708-1.29-.363-.131-.627-.197-.892.2-.264.395-1.023 1.289-1.254 1.553-.232.265-.462.297-.858.1-.396-.2-1.674-.618-3.187-1.967-1.177-1.05-1.973-2.348-2.204-2.745-.23-.396-.025-.61.173-.808.18-.178.396-.463.595-.694.199-.232.264-.397.396-.662.133-.264.067-.495-.033-.694-.099-.198-.89-2.149-1.222-2.942-.32-.772-.648-.667-.89-.68-.232-.011-.496-.014-.76-.014s-.694.1-1.056.496c-.364.396-1.387 1.355-1.387 3.306 0 1.95 1.419 3.833 1.617 4.098.2.264 2.794 4.267 6.768 5.983.947.408 1.684.652 2.26.833.948.303 1.812.26 2.495.158.76-.114 2.344-.959 2.675-1.884.33-.926.33-1.719.23-1.884-.098-.166-.362-.264-.76-.463h.002Zm-7.23 9.87h-.005a13.16 13.16 0 0 1-6.71-1.837l-.48-.285-4.989 1.31 1.332-4.865-.313-.498a13.148 13.148 0 0 1-2.015-7.014C2.813 9.091 8.725 3.18 15.996 3.18c3.52 0 6.83 1.373 9.317 3.864a13.1 13.1 0 0 1 3.856 9.324c-.003 7.266-5.915 13.18-13.179 13.18ZM27.206 5.152A15.754 15.754 0 0 0 15.99.5C7.25.5.136 7.612.133 16.355a15.818 15.818 0 0 0 2.116 7.927L0 32.5l8.406-2.205a15.841 15.841 0 0 0 7.579 1.93h.006c8.74 0 15.854-7.113 15.856-15.857a15.76 15.76 0 0 0-4.64-11.217Z" fill="#000"/></g><defs><clipPath id="a"><path fill="#fff" transform="translate(0 .5)" d="M0 0h32v32H0z"/></clipPath></defs></svg>