<svg width="64" height="64" fill="none" xmlns="http://www.w3.org/2000/svg"><circle cx="32" cy="32" r="32" fill="#3DBD63"/><path d="M44 37.893v4.715a1.333 1.333 0 0 1-1.24 1.33c-.583.04-1.059.062-1.427.062C29.55 44 20 34.45 20 22.667c0-.368.02-.844.061-1.427a1.333 1.333 0 0 1 1.33-1.24h4.715a.666.666 0 0 1 .664.6c.031.307.059.55.086.736.265 1.85.808 3.648 1.61 5.335a.607.607 0 0 1-.196.756l-2.877 2.056a17.396 17.396 0 0 0 9.125 9.125l2.054-2.872a.616.616 0 0 1 .764-.199 18.532 18.532 0 0 0 5.333 1.607c.185.027.43.056.733.085a.667.667 0 0 1 .599.664H44Z" fill="#fff"/></svg>