<svg width="65" height="64" viewBox="0 0 65 64" fill="none" xmlns="http://www.w3.org/2000/svg">
<circle cx="32.4996" cy="32" r="32" fill="#B48D58"/>
<path d="M20.4996 20H44.4996C44.8532 20 45.1924 20.1405 45.4424 20.3905C45.6924 20.6406 45.8329 20.9797 45.8329 21.3333V42.6667C45.8329 43.0203 45.6924 43.3594 45.4424 43.6095C45.1924 43.8595 44.8532 44 44.4996 44H20.4996C20.146 44 19.8068 43.8595 19.5568 43.6095C19.3067 43.3594 19.1663 43.0203 19.1663 42.6667V21.3333C19.1663 20.9797 19.3067 20.6406 19.5568 20.3905C19.8068 20.1405 20.146 20 20.4996 20ZM43.1663 25.6507L32.5956 35.1173L21.8329 25.6213V41.3333H43.1663V25.6507ZM22.5143 22.6667L32.5809 31.5493L42.5023 22.6667H22.5143Z" fill="white"/>
</svg>
