<svg width="32" height="33" fill="none" xmlns="http://www.w3.org/2000/svg"><g clip-path="url(#a)"><path fill-rule="evenodd" clip-rule="evenodd" d="M32 16.5c0 8.836-7.164 16-16 16s-16-7.164-16-16S7.164.5 16 .5s16 7.164 16 16Zm-15.427-4.188c-1.556.647-4.667 1.987-9.33 4.019-.758.301-1.155.596-1.191.884-.062.488.55.68 1.378.94.114.036.231.072.351.112.817.265 1.916.576 2.487.588.518.01 1.097-.203 1.736-.64 4.357-2.943 6.606-4.43 6.748-4.462.1-.022.238-.052.332.032.093.083.084.24.074.283-.06.257-2.453 2.483-3.693 3.635-.387.358-.66.613-.716.672-.125.129-.253.253-.376.372-.76.73-1.328 1.28.032 2.176.653.43 1.176.786 1.697 1.141.57.388 1.138.775 1.874 1.257.186.123.365.25.54.374.662.473 1.258.897 1.994.83.427-.04.87-.441 1.094-1.64.53-2.834 1.572-8.973 1.813-11.504.015-.21.006-.42-.027-.629a.674.674 0 0 0-.229-.433c-.19-.156-.487-.19-.62-.187-.601.01-1.524.332-5.968 2.18Z" fill="#000"/></g><defs><clipPath id="a"><path fill="#fff" transform="translate(0 .5)" d="M0 0h32v32H0z"/></clipPath></defs></svg>