<svg width="32" height="33" fill="none" xmlns="http://www.w3.org/2000/svg"><path fill-rule="evenodd" clip-rule="evenodd" d="M9.953 1.423c1.564-.072 2.063-.088 6.047-.088 3.984 0 4.483.017 6.045.088 1.563.07 2.63.32 3.563.681.977.37 1.864.947 2.597 1.694a7.163 7.163 0 0 1 1.691 2.596c.363.933.61 2 .683 3.56.072 1.566.088 2.065.088 6.048 0 3.984-.018 4.482-.088 6.046-.071 1.56-.32 2.627-.683 3.56a7.195 7.195 0 0 1-1.69 2.599 7.192 7.192 0 0 1-2.598 1.69c-.933.363-2 .611-3.56.683-1.565.072-2.064.088-6.048.088s-4.483-.017-6.047-.088c-1.56-.07-2.626-.32-3.56-.682a7.196 7.196 0 0 1-2.598-1.691 7.19 7.19 0 0 1-1.692-2.597c-.362-.934-.61-2-.682-3.56-.072-1.567-.088-2.066-.088-6.048 0-3.984.018-4.483.088-6.046.071-1.562.32-2.629.682-3.562a7.195 7.195 0 0 1 1.693-2.598 7.19 7.19 0 0 1 2.596-1.692c.933-.361 2-.609 3.56-.681h.001Zm11.974 2.64c-1.547-.07-2.011-.085-5.927-.085-3.916 0-4.38.014-5.927.085-1.43.065-2.206.304-2.724.505a4.554 4.554 0 0 0-1.686 1.096 4.55 4.55 0 0 0-1.096 1.687c-.202.517-.44 1.293-.506 2.724-.07 1.547-.085 2.01-.085 5.927 0 3.916.015 4.38.085 5.926.066 1.431.304 2.207.506 2.724.234.636.609 1.214 1.096 1.687.473.487 1.05.861 1.686 1.096.518.201 1.294.44 2.724.505 1.547.071 2.01.086 5.927.086s4.38-.015 5.927-.086c1.43-.065 2.206-.304 2.724-.505a4.555 4.555 0 0 0 1.686-1.096 4.553 4.553 0 0 0 1.096-1.687c.202-.517.44-1.293.506-2.724.07-1.546.085-2.01.085-5.926 0-3.916-.015-4.38-.085-5.927-.066-1.43-.304-2.207-.506-2.724a4.555 4.555 0 0 0-1.096-1.687 4.55 4.55 0 0 0-1.686-1.096c-.518-.201-1.294-.44-2.724-.505Zm-7.8 16.46a4.893 4.893 0 1 0 3.521-9.128 4.893 4.893 0 0 0-3.521 9.128Zm-3.458-9.852a7.538 7.538 0 1 1 10.661 10.66 7.538 7.538 0 0 1-10.66-10.66Zm14.542-1.085a1.783 1.783 0 1 0-2.448-2.595 1.783 1.783 0 0 0 2.448 2.595Z" fill="#fff"/></svg>