<svg width="32" height="33" fill="none" xmlns="http://www.w3.org/2000/svg"><g clip-path="url(#a)"><path fill-rule="evenodd" clip-rule="evenodd" d="M0 16.091c0 7.955 5.777 14.57 13.333 15.911V20.446h-4v-4.444h4v-3.556c0-4 2.578-6.221 6.223-6.221 1.155 0 2.4.177 3.555.354v4.09h-2.044c-1.956 0-2.4.977-2.4 2.222v3.111h4.266l-.71 4.444h-3.556v11.556C26.223 30.661 32 24.047 32 16.092c0-8.85-7.2-16.09-16-16.09S0 7.242 0 16.092Z" fill="#fff"/></g><defs><clipPath id="a"><path fill="#fff" transform="translate(0 .002)" d="M0 0h32v32H0z"/></clipPath></defs></svg>