<svg width="64" height="64" viewBox="0 0 64 64" fill="none" xmlns="http://www.w3.org/2000/svg">
<circle cx="31.9996" cy="32" r="32" fill="#CA4747"/>
<path d="M31.9996 43.8666L38.5996 37.2666C39.9048 35.9613 40.7937 34.2983 41.1537 32.4878C41.5138 30.6773 41.3289 28.8008 40.6224 27.0954C39.916 25.39 38.7197 23.9324 37.1849 22.9069C35.65 21.8814 33.8456 21.334 31.9996 21.334C30.1537 21.334 28.3493 21.8814 26.8144 22.9069C25.2796 23.9324 24.0833 25.39 23.3769 27.0954C22.6704 28.8008 22.4855 30.6773 22.8456 32.4878C23.2056 34.2983 24.0944 35.9613 25.3996 37.2666L31.9996 43.8666ZM31.9996 47.6373L23.5143 39.152C21.8361 37.4737 20.6932 35.3355 20.2302 33.0078C19.7672 30.68 20.0048 28.2672 20.9131 26.0745C21.8214 23.8818 23.3594 22.0077 25.3328 20.6891C27.3062 19.3705 29.6263 18.6667 31.9996 18.6667C34.373 18.6667 36.6931 19.3705 38.6665 20.6891C40.6399 22.0077 42.1779 23.8818 43.0862 26.0745C43.9944 28.2672 44.2321 30.68 43.7691 33.0078C43.3061 35.3355 42.1632 37.4737 40.485 39.152L31.9996 47.6373ZM31.9996 33.3333C32.7069 33.3333 33.3852 33.0524 33.8853 32.5523C34.3854 32.0522 34.6663 31.3739 34.6663 30.6666C34.6663 29.9594 34.3854 29.2811 33.8853 28.781C33.3852 28.2809 32.7069 28 31.9996 28C31.2924 28 30.6141 28.2809 30.114 28.781C29.6139 29.2811 29.333 29.9594 29.333 30.6666C29.333 31.3739 29.6139 32.0522 30.114 32.5523C30.6141 33.0524 31.2924 33.3333 31.9996 33.3333ZM31.9996 36C30.5852 36 29.2286 35.4381 28.2284 34.4379C27.2282 33.4377 26.6663 32.0811 26.6663 30.6666C26.6663 29.2522 27.2282 27.8956 28.2284 26.8954C29.2286 25.8952 30.5852 25.3333 31.9996 25.3333C33.4141 25.3333 34.7707 25.8952 35.7709 26.8954C36.7711 27.8956 37.333 29.2522 37.333 30.6666C37.333 32.0811 36.7711 33.4377 35.7709 34.4379C34.7707 35.4381 33.4141 36 31.9996 36Z" fill="white"/>
</svg>
