<svg width="200" height="34" fill="none" xmlns="http://www.w3.org/2000/svg"><path fill-rule="evenodd" clip-rule="evenodd" d="M191.086 33.5H8.914C3.99 33.5 0 29.56 0 24.698V9.302C0 4.44 3.991.5 8.914.5h182.172C196.009.5 200 4.441 200 9.302v15.396c0 4.861-3.991 8.802-8.914 8.802Z" fill="#1DABDD"/><path fill-rule="evenodd" clip-rule="evenodd" d="M22.36 10.82a.98.98 0 0 1 .976-.966h1.444c.53 0 .976.442.976.965v10.124c0 2.494-1.401 3.833-3.927 3.833-.83 0-1.613-.166-2.315-.523-.36-.188-.552-.44-.552-.795l.127-.506.383-.858c.192-.398.467-.586.828-.586l.489.063.467.062h.106c.614 0 .997-.461.997-1.3v-9.514ZM39.581 10.82c0-.524.446-.966.976-.966H42c.53 0 .976.442.976.965v7.65c0 2.116-.572 3.69-1.718 4.736-1.17 1.048-2.61 1.572-4.353 1.572-1.974 0-3.542-.545-4.712-1.655-1.166-1.11-1.76-2.703-1.76-4.799v-7.504c0-.524.447-.965.977-.965h1.441c.53 0 .977.442.977.965v6.79c0 2.684 1.02 4.024 3.077 4.024 1.956 0 2.677-1.319 2.677-3.834v-6.98ZM51.266 23.561a.982.982 0 0 1-.977.964h-1.444a.982.982 0 0 1-.976-.964V10.82c0-.524.446-.965.976-.965h1.444c.53 0 .977.44.977.965V23.56ZM63.072 12.746c-1.21 0-2.186.4-2.973 1.173-.783.777-1.187 1.866-1.187 3.271 0 1.298.425 2.367 1.25 3.188.83.837 1.912 1.256 3.25 1.256.787 0 1.571-.187 2.312-.569l.615-.143c.383 0 .681.167.871.501l.51.797.148.524c0 .358-.148.65-.465.882-1.124.776-2.568 1.151-4.31 1.151-2.312 0-4.181-.69-5.626-2.095-1.443-1.384-2.163-3.206-2.163-5.492 0-2.202.678-4.024 2.037-5.45 1.36-1.426 3.268-2.138 5.73-2.138 1.294 0 2.506.272 3.609.816.34.15.512.423.512.819l-.108.464-.467.962c-.172.377-.468.568-.914.568l-.506-.107a5.921 5.921 0 0 0-2.125-.378ZM75.965 15.408l2.783-4.905c.234-.44.593-.649 1.103-.649h1.06c.598 0 1.062.482 1.062 1.048l-.148.526-4.31 7.124v5.01a.98.98 0 0 1-.975.964h-1.443a.983.983 0 0 1-.977-.965v-5.01l-4.266-7.123-.15-.526c0-.566.468-1.048 1.062-1.048h1.274c.51 0 .872.209 1.104.65l2.821 4.904ZM97.948 21.634c.847 0 1.975-.398 2.336-.735v-1.592h-2.188a.98.98 0 0 1-.974-.965v-1.214a.98.98 0 0 1 .974-.967h4.395c.53 0 .977.44.977.967v4.947c0 .482-.19.836-.573 1.11-1.339.985-3.313 1.593-4.992 1.593-2.502 0-4.455-.694-5.855-2.054-1.403-1.36-2.103-3.206-2.103-5.534 0-2.158.681-3.982 2.059-5.429 1.38-1.446 3.204-2.158 5.477-2.158 1.634 0 2.993.292 4.052.86.406.23.596.524.596.902l-.126.458-.576 1.007c-.211.357-.507.544-.892.544l-.507-.125a4.935 4.935 0 0 0-2.144-.503c-2.567 0-4.33 1.53-4.33 4.444 0 2.703 1.739 4.444 4.394 4.444ZM113.156 14.15l-1.677 4.15h3.334l-1.657-4.15Zm2.929 7.297h-5.878l-.956 2.387c-.193.461-.533.69-1.018.69h-1.294a.912.912 0 0 1-.913-.898l.061-.358 5.35-12.722c.214-.461.554-.69 1.04-.69h1.55c.487 0 .828.229 1.042.69l5.348 12.722.061.358c0 .479-.402.899-.911.899h-1.507c-.489 0-.829-.23-1.019-.691l-.956-2.387ZM127.284 16.246h1.23c1.549 0 2.315-.566 2.315-1.697 0-1.071-.681-1.593-2.062-1.593-.063 0-.549.021-1.483.042v3.248Zm1.251 3.146h-1.251v4.17a.982.982 0 0 1-.977.964h-1.444a.982.982 0 0 1-.976-.964V10.819c0-.524.446-.964.976-.964 1.93-.021 3.289-.045 4.076-.045 3.841 0 5.498 1.783 5.498 4.697 0 1.992-.828 3.417-2.505 4.233l3.268 4.36.19.525a.917.917 0 0 1-.932.901h-1.573c-.507 0-.89-.208-1.164-.61l-3.186-4.524ZM142.557 21.383c.295.02.699.041 1.23.041 2.972 0 4.796-1.592 4.796-4.358 0-2.622-1.909-4.131-4.775-4.131-.552 0-.977.023-1.251.062v8.386Zm-1.127-11.55c.575-.02 1.063-.02 1.465-.041h.955c2.803 0 4.904.69 6.283 2.054 1.38 1.36 2.058 3.101 2.058 5.22 0 2.158-.742 3.959-2.207 5.364-1.486 1.423-3.587 2.138-6.303 2.138-.383 0-1.57-.021-3.545-.043-.53 0-.976-.46-.976-.984V10.839c0-.523.446-.985.976-.985.277 0 .721 0 1.294-.02ZM165.045 23.561a.982.982 0 0 1-.977.964H157a.982.982 0 0 1-.977-.964V10.82c0-.524.446-.965.977-.965h6.857c.528 0 .974.44.974.965v1.214a.981.981 0 0 1-.974.964h-4.437v2.58h3.801a.98.98 0 0 1 .974.965v1.212a.982.982 0 0 1-.974.967h-3.801v2.662h4.648c.531 0 .977.44.977.964v1.214ZM181.269 9.854c.531 0 .977.44.977.965v12.743a.982.982 0 0 1-.977.964h-.998c-.506 0-.913-.188-1.208-.589l-6.581-8.213v7.838a.982.982 0 0 1-.976.964h-1.23a.983.983 0 0 1-.978-.964V10.819c0-.524.447-.965.978-.965h.997c.51 0 .914.188 1.209.587l6.581 8.26v-7.882c0-.524.446-.965.976-.965h1.23ZM187.221 11.015h.193l.314-.281-.314-.258h-.193v.54Zm.179.365h-.179v.336l-.256.243-.259-.243v-1.36l.245-.245h.539c.512 0 .76.237.76.615a.57.57 0 0 1-.354.534l.228.298c.121.158.045.4-.193.4l-.261-.168-.27-.41Zm.043.978c.362 0 .667-.126.921-.379.246-.252.375-.554.375-.909 0-.357-.129-.66-.375-.912a1.247 1.247 0 0 0-.921-.378c-.37 0-.676.128-.924.378a1.266 1.266 0 0 0-.375.912c0 .354.13.657.38.91.248.252.555.378.919.378Zm-1.352.044a1.796 1.796 0 0 1-.562-1.332c0-.524.187-.973.554-1.34.37-.373.824-.555 1.36-.555.541 0 .995.182 1.364.556.364.367.547.815.547 1.339 0 .521-.188.97-.554 1.34-.37.37-.824.555-1.357.555a1.82 1.82 0 0 1-1.352-.563Z" fill="#fff"/></svg>