<svg width="164" height="63" fill="none" xmlns="http://www.w3.org/2000/svg"><path d="M1.4 21.002v-14.4h5.69c.14 0 .307.007.5.02.193.007.38.027.56.06.78.12 1.433.387 1.96.8.533.413.933.937 1.2 1.57.267.627.4 1.323.4 2.09a5.22 5.22 0 0 1-.41 2.09 3.923 3.923 0 0 1-1.2 1.57c-.527.413-1.177.68-1.95.8a7.27 7.27 0 0 1-.56.06c-.193.013-.36.02-.5.02H3.18v5.32H1.4Zm1.78-7.01h3.85c.127 0 .27-.007.43-.02.167-.013.323-.037.47-.07.46-.107.833-.3 1.12-.58.293-.287.507-.62.64-1 .133-.387.2-.78.2-1.18 0-.4-.067-.79-.2-1.17a2.561 2.561 0 0 0-.64-1.01c-.287-.287-.66-.48-1.12-.58a2.101 2.101 0 0 0-.47-.07 5.233 5.233 0 0 0-.43-.02H3.18v5.7Zm10.125 7.01v-10.8h1.59v2.61l-.26-.34c.126-.333.29-.64.49-.92.206-.28.436-.51.69-.69.28-.227.596-.4.95-.52.353-.12.713-.19 1.08-.21.366-.027.71-.003 1.03.07v1.67a3.374 3.374 0 0 0-1.23-.08c-.447.047-.86.21-1.24.49a2.67 2.67 0 0 0-.81.9 3.903 3.903 0 0 0-.39 1.15c-.074.407-.11.823-.11 1.25v5.42h-1.79Zm11.465.3c-1.073 0-2-.243-2.78-.73a4.838 4.838 0 0 1-1.79-2.02c-.42-.86-.63-1.847-.63-2.96 0-1.133.214-2.127.64-2.98a4.76 4.76 0 0 1 1.81-1.99c.78-.48 1.697-.72 2.75-.72 1.08 0 2.01.243 2.79.73.78.48 1.377 1.15 1.79 2.01.42.853.63 1.837.63 2.95 0 1.127-.21 2.12-.63 2.98a4.828 4.828 0 0 1-1.8 2.01c-.78.48-1.706.72-2.78.72Zm0-1.69c1.12 0 1.954-.373 2.5-1.12.547-.747.82-1.713.82-2.9 0-1.22-.276-2.19-.83-2.91-.553-.727-1.383-1.09-2.49-1.09-.753 0-1.373.17-1.86.51-.486.34-.85.81-1.09 1.41-.24.6-.36 1.293-.36 2.08 0 1.213.28 2.187.84 2.92.56.733 1.384 1.1 2.47 1.1Zm11.252 1.69c-1.007 0-1.87-.25-2.59-.75-.72-.507-1.277-1.19-1.67-2.05-.387-.86-.58-1.83-.58-2.91s.193-2.05.58-2.91c.393-.86.95-1.537 1.67-2.03.72-.5 1.58-.75 2.58-.75 1.02 0 1.877.247 2.57.74.693.493 1.217 1.17 1.57 2.03.36.86.54 1.833.54 2.92 0 1.073-.18 2.043-.54 2.91-.353.86-.877 1.543-1.57 2.05-.693.5-1.547.75-2.56.75Zm.22-1.63c.727 0 1.323-.173 1.79-.52.467-.353.81-.837 1.03-1.45.227-.62.34-1.323.34-2.11 0-.8-.113-1.503-.34-2.11-.22-.613-.56-1.09-1.02-1.43-.46-.347-1.043-.52-1.75-.52-.733 0-1.34.18-1.82.54-.473.36-.827.847-1.06 1.46-.227.613-.34 1.3-.34 2.06 0 .767.117 1.46.35 2.08.233.613.583 1.1 1.05 1.46.473.36 1.063.54 1.77.54Zm3.16 1.33v-7.95h-.2v-6.45h1.79v14.4h-1.59Zm8.092.28c-.694 0-1.29-.11-1.79-.33a3.564 3.564 0 0 1-1.23-.88 4.336 4.336 0 0 1-.77-1.22 6.307 6.307 0 0 1-.4-1.37 8.458 8.458 0 0 1-.11-1.31v-5.97h1.8v5.41c0 .507.046.997.14 1.47.093.473.25.9.47 1.28.226.38.526.68.9.9.38.22.853.33 1.42.33.446 0 .853-.077 1.22-.23.366-.153.68-.38.94-.68.26-.307.46-.693.6-1.16.14-.467.21-1.01.21-1.63l1.17.36c0 1.04-.19 1.937-.57 2.69-.374.753-.904 1.333-1.59 1.74-.68.4-1.484.6-2.41.6Zm3.6-.28v-2.89h-.2v-7.91h1.79v10.8h-1.59Zm8.54.3c-1.094 0-2.024-.243-2.79-.73a4.75 4.75 0 0 1-1.74-2.03c-.4-.86-.607-1.84-.62-2.94.013-1.127.223-2.117.63-2.97.413-.86 1.003-1.53 1.77-2.01.766-.48 1.69-.72 2.77-.72 1.14 0 2.12.28 2.94.84a4.042 4.042 0 0 1 1.66 2.3l-1.76.53c-.227-.627-.597-1.113-1.11-1.46-.507-.347-1.09-.52-1.75-.52-.74 0-1.35.173-1.83.52-.48.34-.837.813-1.07 1.42-.234.6-.354 1.29-.36 2.07.013 1.2.29 2.17.83 2.91.546.733 1.356 1.1 2.43 1.1.706 0 1.293-.16 1.76-.48.466-.327.82-.797 1.06-1.41l1.8.47c-.374 1.007-.957 1.777-1.75 2.31-.794.533-1.75.8-2.87.8Zm10.648 0c-1.06 0-1.987-.233-2.78-.7a4.904 4.904 0 0 1-1.84-1.97c-.44-.847-.66-1.833-.66-2.96 0-1.18.216-2.2.65-3.06.433-.867 1.036-1.533 1.81-2 .78-.473 1.693-.71 2.74-.71 1.086 0 2.01.25 2.77.75.766.5 1.34 1.213 1.72 2.14.386.927.553 2.03.5 3.31h-1.8v-.64c-.02-1.327-.29-2.317-.81-2.97-.52-.66-1.294-.99-2.32-.99-1.1 0-1.937.353-2.51 1.06-.574.707-.86 1.72-.86 3.04 0 1.273.286 2.26.86 2.96.573.7 1.39 1.05 2.45 1.05.713 0 1.333-.163 1.86-.49.526-.327.94-.797 1.24-1.41l1.71.59c-.42.953-1.054 1.693-1.9 2.22-.84.52-1.784.78-2.83.78Zm-3.99-5.2v-1.43h7.98v1.43h-7.98Zm14.966 5.2c-1.007 0-1.87-.25-2.59-.75-.72-.507-1.277-1.19-1.67-2.05-.387-.86-.58-1.83-.58-2.91s.193-2.05.58-2.91c.393-.86.95-1.537 1.67-2.03.72-.5 1.58-.75 2.58-.75 1.02 0 1.877.247 2.57.74.693.493 1.217 1.17 1.57 2.03.36.86.54 1.833.54 2.92 0 1.073-.18 2.043-.54 2.91-.353.86-.877 1.543-1.57 2.05-.693.5-1.547.75-2.56.75Zm.22-1.63c.727 0 1.323-.173 1.79-.52.467-.353.81-.837 1.03-1.45.227-.62.34-1.323.34-2.11 0-.8-.113-1.503-.34-2.11-.22-.613-.56-1.09-1.02-1.43-.46-.347-1.043-.52-1.75-.52-.733 0-1.34.18-1.82.54-.473.36-.827.847-1.06 1.46-.227.613-.34 1.3-.34 2.06 0 .767.117 1.46.35 2.08.233.613.583 1.1 1.05 1.46.473.36 1.063.54 1.77.54Zm3.16 1.33v-7.95h-.2v-6.45h1.79v14.4h-1.59Zm12.556.3c-1.014 0-1.867-.25-2.56-.75-.694-.507-1.22-1.19-1.58-2.05-.354-.867-.53-1.837-.53-2.91 0-1.087.176-2.06.53-2.92.36-.86.886-1.537 1.58-2.03.7-.493 1.556-.74 2.57-.74 1 0 1.86.25 2.58.75.726.493 1.283 1.17 1.67 2.03.386.86.58 1.83.58 2.91s-.194 2.05-.58 2.91c-.387.86-.944 1.543-1.67 2.05-.72.5-1.584.75-2.59.75Zm-4.97-.3v-14.4h1.79v6.45h-.2v7.95h-1.59Zm4.75-1.33c.713 0 1.303-.18 1.77-.54.466-.36.816-.847 1.05-1.46.233-.62.35-1.313.35-2.08 0-.76-.117-1.447-.35-2.06-.227-.613-.58-1.1-1.06-1.46-.474-.36-1.077-.54-1.81-.54-.7 0-1.28.173-1.74.52-.46.34-.804.817-1.03 1.43-.227.607-.34 1.31-.34 2.11 0 .787.11 1.49.33 2.11.226.613.573 1.097 1.04 1.45.466.347 1.063.52 1.79.52Zm7.766 6.13 2.09-5.68.03 1.68-4.72-11.6h1.87l3.7 9.33h-.64l3.47-9.33h1.81l-5.88 15.6h-1.73Z" fill="#fff"/><path fill-rule="evenodd" clip-rule="evenodd" d="M156.691 62.002H7.309C3.273 62.002 0 58.778 0 54.801V42.203c0-3.977 3.273-7.201 7.31-7.201H156.69c4.036 0 7.309 3.224 7.309 7.201v12.598c0 3.977-3.273 7.201-7.309 7.201Z" fill="#1DABDD"/><path fill-rule="evenodd" clip-rule="evenodd" d="M18.335 43.445c0-.429.363-.79.8-.79h1.184c.435 0 .801.361.801.79v8.283c0 2.04-1.15 3.136-3.22 3.136-.68 0-1.323-.136-1.899-.428-.294-.154-.452-.36-.452-.65l.104-.414.314-.702c.158-.326.383-.48.679-.48l.4.052.384.05h.087c.503 0 .818-.377.818-1.063v-7.784ZM32.457 43.445c0-.429.365-.79.8-.79h1.182c.435 0 .8.361.8.79v6.259c0 1.731-.469 3.02-1.408 3.875-.959.857-2.14 1.285-3.57 1.285-1.618 0-2.904-.445-3.863-1.353-.957-.91-1.444-2.212-1.444-3.927v-6.139c0-.429.366-.79.801-.79h1.182c.435 0 .8.361.8.79V49c0 2.197.838 3.292 2.524 3.292 1.605 0 2.196-1.079 2.196-3.136v-5.71ZM42.038 53.87a.804.804 0 0 1-.8.79h-1.185c-.435 0-.8-.361-.8-.79V43.445c0-.43.365-.79.8-.79h1.184c.435 0 .8.36.8.79V53.87ZM51.719 45.022c-.992 0-1.792.326-2.438.959-.642.636-.973 1.527-.973 2.677 0 1.061.348 1.936 1.026 2.608.68.684 1.566 1.028 2.664 1.028.645 0 1.288-.154 1.896-.466l.504-.117c.314 0 .558.136.714.41l.418.652.122.429c0 .292-.122.531-.381.72-.922.636-2.107.943-3.535.943-1.896 0-3.428-.565-4.613-1.714-1.183-1.133-1.774-2.623-1.774-4.493 0-1.802.556-3.293 1.67-4.46 1.116-1.166 2.68-1.749 4.7-1.749 1.06 0 2.054.222 2.959.668.279.122.42.346.42.67l-.09.38-.382.786c-.141.31-.383.465-.75.465l-.415-.087a4.865 4.865 0 0 0-1.742-.31ZM62.291 47.2l2.282-4.014c.192-.36.487-.53.905-.53h.87c.489 0 .87.394.87.857l-.121.43-3.535 5.829v4.098c0 .429-.364.79-.799.79H61.58a.805.805 0 0 1-.802-.79v-4.098l-3.497-5.829-.124-.43c0-.463.384-.857.871-.857h1.045c.417 0 .715.17.905.53L62.29 47.2ZM80.317 52.294c.695 0 1.62-.326 1.916-.602V50.39h-1.794a.803.803 0 0 1-.799-.79v-.994c0-.43.363-.79.799-.79h3.603c.435 0 .802.36.802.79v4.048c0 .395-.156.684-.47.909-1.098.805-2.717 1.302-4.093 1.302-2.052 0-3.654-.567-4.801-1.68-1.151-1.113-1.725-2.623-1.725-4.527 0-1.766.559-3.258 1.688-4.442 1.132-1.184 2.628-1.766 4.492-1.766 1.34 0 2.454.239 3.322.704.333.187.489.428.489.737l-.104.376-.472.823c-.173.292-.415.445-.731.445l-.416-.102a4.056 4.056 0 0 0-1.758-.411c-2.105 0-3.551 1.252-3.551 3.636 0 2.211 1.426 3.636 3.603 3.636ZM92.788 46.17l-1.375 3.396h2.734l-1.36-3.395Zm2.402 5.97h-4.82l-.784 1.953c-.158.378-.437.566-.835.566h-1.06a.747.747 0 0 1-.75-.736l.05-.293 4.387-10.409c.176-.377.455-.565.853-.565h1.27c.4 0 .68.188.855.566l4.386 10.408.05.293c0 .392-.33.736-.747.736h-1.236c-.4 0-.68-.188-.836-.566l-.783-1.953ZM104.373 47.885h1.008c1.271 0 1.899-.463 1.899-1.388 0-.877-.559-1.304-1.691-1.304-.052 0-.45.017-1.216.035v2.657Zm1.025 2.574h-1.025v3.412a.804.804 0 0 1-.801.789h-1.184a.804.804 0 0 1-.801-.79V43.446c0-.428.366-.79.801-.79 1.582-.016 2.697-.036 3.342-.036 3.149 0 4.508 1.46 4.508 3.844 0 1.629-.679 2.795-2.054 3.463l2.68 3.568.156.428a.751.751 0 0 1-.765.738h-1.289c-.416 0-.73-.17-.955-.499l-2.613-3.702ZM116.896 52.088c.243.017.574.034 1.009.034 2.437 0 3.933-1.303 3.933-3.566 0-2.145-1.565-3.38-3.916-3.38-.452 0-.8.019-1.026.051v6.86Zm-.923-9.45c.471-.017.871-.017 1.201-.034h.783c2.299 0 4.021.565 5.152 1.68 1.132 1.114 1.688 2.538 1.688 4.272 0 1.766-.609 3.24-1.81 4.389-1.218 1.164-2.941 1.749-5.168 1.749-.315 0-1.288-.017-2.907-.035a.82.82 0 0 1-.801-.806V43.461a.82.82 0 0 1 .801-.806c.227 0 .591 0 1.061-.017ZM135.337 53.87a.804.804 0 0 1-.801.79h-5.796a.805.805 0 0 1-.802-.79V43.445c0-.43.367-.79.802-.79h5.623c.432 0 .799.36.799.79v.993a.805.805 0 0 1-.799.79h-3.639v2.11h3.117c.433 0 .799.359.799.79v.991a.804.804 0 0 1-.799.791h-3.117v2.178h3.812c.435 0 .801.36.801.788v.994ZM148.641 42.656c.435 0 .801.36.801.788v10.427a.804.804 0 0 1-.801.789h-.819c-.415 0-.748-.154-.991-.482l-5.395-6.72v6.413a.804.804 0 0 1-.801.789h-1.009a.804.804 0 0 1-.801-.79V43.445c0-.428.366-.788.801-.788h.818c.418 0 .749.153.992.48l5.395 6.757v-6.449c0-.428.366-.788.801-.788h1.009ZM153.521 43.605h.158l.258-.23-.258-.21h-.158v.44Zm.147.299h-.147v.275l-.21.198-.212-.198v-1.113l.201-.2h.442c.42 0 .623.193.623.502 0 .21-.131.378-.29.438l.187.243c.099.13.036.328-.159.328l-.214-.138-.221-.335Zm.035.8c.297 0 .548-.103.756-.31.201-.206.307-.454.307-.744 0-.292-.106-.54-.307-.746a1.027 1.027 0 0 0-.756-.31c-.303 0-.554.105-.757.31a1.034 1.034 0 0 0-.308.746c0 .29.106.538.312.744.203.207.454.31.753.31Zm-1.108.036a1.466 1.466 0 0 1-.461-1.09c0-.428.153-.795.454-1.096a1.507 1.507 0 0 1 1.115-.455c.444 0 .816.15 1.119.455.298.3.448.667.448 1.096 0 .427-.154.793-.454 1.096a1.519 1.519 0 0 1-1.113.455c-.433 0-.807-.152-1.108-.46Z" fill="#fff"/></svg>