<svg width="164" height="63" viewBox="0 0 164 63" fill="none" xmlns="http://www.w3.org/2000/svg">
<path d="M1.4 21.002V6.60195H7.09C7.23 6.60195 7.39667 6.60862 7.59 6.62195C7.78333 6.62862 7.97 6.64862 8.15 6.68195C8.93 6.80195 9.58333 7.06862 10.11 7.48195C10.6433 7.89529 11.0433 8.41862 11.31 9.05195C11.5767 9.67862 11.71 10.3753 11.71 11.142C11.71 11.902 11.5733 12.5986 11.3 13.232C11.0333 13.8586 10.6333 14.382 10.1 14.802C9.57333 15.2153 8.92333 15.482 8.15 15.602C7.97 15.6286 7.78333 15.6486 7.59 15.662C7.39667 15.6753 7.23 15.682 7.09 15.682H3.18V21.002H1.4ZM3.18 13.992H7.03C7.15667 13.992 7.3 13.9853 7.46 13.972C7.62667 13.9586 7.78333 13.9353 7.93 13.902C8.39 13.7953 8.76333 13.602 9.05 13.322C9.34333 13.0353 9.55667 12.702 9.69 12.322C9.82333 11.9353 9.89 11.542 9.89 11.142C9.89 10.742 9.82333 10.352 9.69 9.97195C9.55667 9.58529 9.34333 9.24862 9.05 8.96195C8.76333 8.67529 8.39 8.48195 7.93 8.38195C7.78333 8.34195 7.62667 8.31862 7.46 8.31195C7.3 8.29862 7.15667 8.29195 7.03 8.29195H3.18V13.992ZM13.3047 21.002V10.202H14.8947V12.812L14.6347 12.472C14.7614 12.1386 14.9247 11.832 15.1247 11.552C15.3314 11.272 15.5614 11.042 15.8147 10.862C16.0947 10.6353 16.4114 10.462 16.7647 10.342C17.118 10.222 17.478 10.152 17.8447 10.132C18.2114 10.1053 18.5547 10.1286 18.8747 10.202V11.872C18.5014 11.772 18.0914 11.7453 17.6447 11.792C17.198 11.8386 16.7847 12.002 16.4047 12.282C16.058 12.5286 15.788 12.8286 15.5947 13.182C15.408 13.5353 15.278 13.9186 15.2047 14.332C15.1314 14.7386 15.0947 15.1553 15.0947 15.582V21.002H13.3047ZM24.7703 21.302C23.697 21.302 22.7703 21.0586 21.9903 20.572C21.217 20.0853 20.6203 19.412 20.2003 18.552C19.7803 17.692 19.5703 16.7053 19.5703 15.592C19.5703 14.4586 19.7836 13.4653 20.2103 12.612C20.637 11.7586 21.2403 11.0953 22.0203 10.622C22.8003 10.142 23.717 9.90195 24.7703 9.90195C25.8503 9.90195 26.7803 10.1453 27.5603 10.632C28.3403 11.112 28.937 11.782 29.3503 12.642C29.7703 13.4953 29.9803 14.4786 29.9803 15.592C29.9803 16.7186 29.7703 17.712 29.3503 18.572C28.9303 19.4253 28.3303 20.0953 27.5503 20.582C26.7703 21.062 25.8436 21.302 24.7703 21.302ZM24.7703 19.612C25.8903 19.612 26.7236 19.2386 27.2703 18.492C27.817 17.7453 28.0903 16.7786 28.0903 15.592C28.0903 14.372 27.8136 13.402 27.2603 12.682C26.707 11.9553 25.877 11.592 24.7703 11.592C24.017 11.592 23.397 11.762 22.9103 12.102C22.4236 12.442 22.0603 12.912 21.8203 13.512C21.5803 14.112 21.4603 14.8053 21.4603 15.592C21.4603 16.8053 21.7403 17.7786 22.3003 18.512C22.8603 19.2453 23.6836 19.612 24.7703 19.612ZM36.022 21.302C35.0154 21.302 34.152 21.052 33.432 20.552C32.712 20.0453 32.1554 19.362 31.762 18.502C31.3754 17.642 31.182 16.672 31.182 15.592C31.182 14.512 31.3754 13.542 31.762 12.682C32.1554 11.822 32.712 11.1453 33.432 10.652C34.152 10.152 35.012 9.90195 36.012 9.90195C37.032 9.90195 37.8887 10.1486 38.582 10.642C39.2754 11.1353 39.7987 11.812 40.152 12.672C40.512 13.532 40.692 14.5053 40.692 15.592C40.692 16.6653 40.512 17.6353 40.152 18.502C39.7987 19.362 39.2754 20.0453 38.582 20.552C37.8887 21.052 37.0354 21.302 36.022 21.302ZM36.242 19.672C36.9687 19.672 37.5654 19.4986 38.032 19.152C38.4987 18.7986 38.842 18.3153 39.062 17.702C39.2887 17.082 39.402 16.3786 39.402 15.592C39.402 14.792 39.2887 14.0886 39.062 13.482C38.842 12.8686 38.502 12.392 38.042 12.052C37.582 11.7053 36.9987 11.532 36.292 11.532C35.5587 11.532 34.952 11.712 34.472 12.072C33.9987 12.432 33.6454 12.9186 33.412 13.532C33.1854 14.1453 33.072 14.832 33.072 15.592C33.072 16.3586 33.1887 17.052 33.422 17.672C33.6554 18.2853 34.0054 18.772 34.472 19.132C34.9454 19.492 35.5354 19.672 36.242 19.672ZM39.402 21.002V13.052H39.202V6.60195H40.992V21.002H39.402ZM47.4938 21.282C46.8004 21.282 46.2038 21.172 45.7038 20.952C45.2104 20.732 44.8004 20.4386 44.4738 20.072C44.1471 19.7053 43.8904 19.2986 43.7038 18.852C43.5171 18.4053 43.3838 17.9486 43.3038 17.482C43.2304 17.0153 43.1938 16.5786 43.1938 16.172V10.202H44.9938V15.612C44.9938 16.1186 45.0404 16.6086 45.1338 17.082C45.2271 17.5553 45.3838 17.982 45.6038 18.362C45.8304 18.742 46.1304 19.042 46.5038 19.262C46.8838 19.482 47.3571 19.592 47.9238 19.592C48.3704 19.592 48.7771 19.5153 49.1438 19.362C49.5104 19.2086 49.8238 18.982 50.0838 18.682C50.3438 18.3753 50.5438 17.9886 50.6838 17.522C50.8238 17.0553 50.8938 16.512 50.8938 15.892L52.0638 16.252C52.0638 17.292 51.8738 18.1886 51.4938 18.942C51.1204 19.6953 50.5904 20.2753 49.9038 20.682C49.2238 21.082 48.4204 21.282 47.4938 21.282ZM51.0938 21.002V18.112H50.8938V10.202H52.6838V21.002H51.0938ZM59.6336 21.302C58.5403 21.302 57.6103 21.0586 56.8436 20.572C56.0836 20.0786 55.5036 19.402 55.1036 18.542C54.7036 17.682 54.4969 16.702 54.4836 15.602C54.4969 14.4753 54.7069 13.4853 55.1136 12.632C55.5269 11.772 56.1169 11.102 56.8836 10.622C57.6503 10.142 58.5736 9.90195 59.6536 9.90195C60.7936 9.90195 61.7736 10.182 62.5936 10.742C63.4203 11.302 63.9736 12.0686 64.2536 13.042L62.4936 13.572C62.2669 12.9453 61.8969 12.4586 61.3836 12.112C60.8769 11.7653 60.2936 11.592 59.6336 11.592C58.8936 11.592 58.2836 11.7653 57.8036 12.112C57.3236 12.452 56.9669 12.9253 56.7336 13.532C56.5003 14.132 56.3803 14.822 56.3736 15.602C56.3869 16.802 56.6636 17.772 57.2036 18.512C57.7503 19.2453 58.5603 19.612 59.6336 19.612C60.3403 19.612 60.9269 19.452 61.3936 19.132C61.8603 18.8053 62.2136 18.3353 62.4536 17.722L64.2536 18.192C63.8803 19.1986 63.2969 19.9686 62.5036 20.502C61.7103 21.0353 60.7536 21.302 59.6336 21.302ZM70.2816 21.302C69.2216 21.302 68.2949 21.0686 67.5016 20.602C66.7149 20.1286 66.1016 19.472 65.6616 18.632C65.2216 17.7853 65.0016 16.7986 65.0016 15.672C65.0016 14.492 65.2182 13.472 65.6516 12.612C66.0849 11.7453 66.6882 11.0786 67.4616 10.612C68.2416 10.1386 69.1549 9.90195 70.2016 9.90195C71.2882 9.90195 72.2116 10.152 72.9716 10.652C73.7382 11.152 74.3116 11.8653 74.6916 12.792C75.0782 13.7186 75.2449 14.822 75.1916 16.102H73.3916V15.462C73.3716 14.1353 73.1016 13.1453 72.5816 12.492C72.0616 11.832 71.2882 11.502 70.2616 11.502C69.1616 11.502 68.3249 11.8553 67.7516 12.562C67.1782 13.2686 66.8916 14.282 66.8916 15.602C66.8916 16.8753 67.1782 17.862 67.7516 18.562C68.3249 19.262 69.1416 19.612 70.2016 19.612C70.9149 19.612 71.5349 19.4486 72.0616 19.122C72.5882 18.7953 73.0016 18.3253 73.3016 17.712L75.0116 18.302C74.5916 19.2553 73.9582 19.9953 73.1116 20.522C72.2716 21.042 71.3282 21.302 70.2816 21.302ZM66.2916 16.102V14.672H74.2716V16.102H66.2916ZM81.258 21.302C80.2513 21.302 79.388 21.052 78.668 20.552C77.948 20.0453 77.3913 19.362 76.998 18.502C76.6113 17.642 76.418 16.672 76.418 15.592C76.418 14.512 76.6113 13.542 76.998 12.682C77.3913 11.822 77.948 11.1453 78.668 10.652C79.388 10.152 80.248 9.90195 81.248 9.90195C82.268 9.90195 83.1246 10.1486 83.818 10.642C84.5113 11.1353 85.0346 11.812 85.388 12.672C85.748 13.532 85.928 14.5053 85.928 15.592C85.928 16.6653 85.748 17.6353 85.388 18.502C85.0346 19.362 84.5113 20.0453 83.818 20.552C83.1246 21.052 82.2713 21.302 81.258 21.302ZM81.478 19.672C82.2046 19.672 82.8013 19.4986 83.268 19.152C83.7346 18.7986 84.078 18.3153 84.298 17.702C84.5246 17.082 84.638 16.3786 84.638 15.592C84.638 14.792 84.5246 14.0886 84.298 13.482C84.078 12.8686 83.738 12.392 83.278 12.052C82.818 11.7053 82.2346 11.532 81.528 11.532C80.7946 11.532 80.188 11.712 79.708 12.072C79.2346 12.432 78.8813 12.9186 78.648 13.532C78.4213 14.1453 78.308 14.832 78.308 15.592C78.308 16.3586 78.4246 17.052 78.658 17.672C78.8913 18.2853 79.2413 18.772 79.708 19.132C80.1813 19.492 80.7713 19.672 81.478 19.672ZM84.638 21.002V13.052H84.438V6.60195H86.228V21.002H84.638ZM97.1936 21.302C96.1803 21.302 95.3269 21.052 94.6336 20.552C93.9403 20.0453 93.4136 19.362 93.0536 18.502C92.7003 17.6353 92.5236 16.6653 92.5236 15.592C92.5236 14.5053 92.7003 13.532 93.0536 12.672C93.4136 11.812 93.9403 11.1353 94.6336 10.642C95.3336 10.1486 96.1903 9.90195 97.2036 9.90195C98.2036 9.90195 99.0636 10.152 99.7836 10.652C100.51 11.1453 101.067 11.822 101.454 12.682C101.84 13.542 102.034 14.512 102.034 15.592C102.034 16.672 101.84 17.642 101.454 18.502C101.067 19.362 100.51 20.0453 99.7836 20.552C99.0636 21.052 98.2003 21.302 97.1936 21.302ZM92.2236 21.002V6.60195H94.0136V13.052H93.8136V21.002H92.2236ZM96.9736 19.672C97.6869 19.672 98.2769 19.492 98.7436 19.132C99.2103 18.772 99.5603 18.2853 99.7936 17.672C100.027 17.052 100.144 16.3586 100.144 15.592C100.144 14.832 100.027 14.1453 99.7936 13.532C99.5669 12.9186 99.2136 12.432 98.7336 12.072C98.2603 11.712 97.6569 11.532 96.9236 11.532C96.2236 11.532 95.6436 11.7053 95.1836 12.052C94.7236 12.392 94.3803 12.8686 94.1536 13.482C93.9269 14.0886 93.8136 14.792 93.8136 15.592C93.8136 16.3786 93.9236 17.082 94.1436 17.702C94.3703 18.3153 94.7169 18.7986 95.1836 19.152C95.6503 19.4986 96.2469 19.672 96.9736 19.672ZM104.74 25.802L106.83 20.122L106.86 21.802L102.14 10.202H104.01L107.71 19.532H107.07L110.54 10.202H112.35L106.47 25.802H104.74Z" fill="white"/>
<path fill-rule="evenodd" clip-rule="evenodd" d="M156.691 62.002H7.30913C3.27264 62.002 0 58.7775 0 54.8006V42.2035C0 38.2264 3.27264 35.002 7.30913 35.002H156.691C160.727 35.002 164 38.2264 164 42.2035V54.8006C164 58.7775 160.727 62.002 156.691 62.002Z" fill="#1DABDD"/>
<path fill-rule="evenodd" clip-rule="evenodd" d="M18.3346 43.4451C18.3346 43.0164 18.6984 42.6556 19.1352 42.6556H20.3194C20.7544 42.6556 21.12 43.0164 21.12 43.4451V51.7278C21.12 53.7686 19.9709 54.8645 17.8995 54.8645C17.2198 54.8645 16.5768 54.7281 16.0013 54.4359C15.7067 54.2824 15.5491 54.0757 15.5491 53.7855L15.6528 53.372L15.9669 52.6702C16.1247 52.3439 16.3497 52.1903 16.646 52.1903L17.0467 52.2418L17.4296 52.2925H17.5168C18.0205 52.2925 18.3346 51.9152 18.3346 51.2286V43.4451Z" fill="white"/>
<path fill-rule="evenodd" clip-rule="evenodd" d="M32.4566 43.4451C32.4566 43.0164 32.8223 42.6556 33.2571 42.6556H34.439C34.874 42.6556 35.2396 43.0164 35.2396 43.4451V49.704C35.2396 51.4352 34.7704 52.7235 33.831 53.5789C32.872 54.4359 31.6903 54.8645 30.2613 54.8645C28.6428 54.8645 27.3568 54.4191 26.3978 53.5106C25.4413 52.6019 24.9541 51.2992 24.9541 49.5844V43.4451C24.9541 43.0164 25.3203 42.6556 25.7554 42.6556H26.9372C27.3722 42.6556 27.7378 43.0164 27.7378 43.4451V49.0003C27.7378 51.1966 28.5752 52.2925 30.2613 52.2925C31.8656 52.2925 32.4566 51.2134 32.4566 49.1557V43.4451Z" fill="white"/>
<path fill-rule="evenodd" clip-rule="evenodd" d="M42.0378 53.8702C42.0378 54.2989 41.6722 54.6591 41.2372 54.6591H40.053C39.6179 54.6591 39.2524 54.2989 39.2524 53.8702V43.4445C39.2524 43.0159 39.6179 42.6551 40.053 42.6551H41.2372C41.6722 42.6551 42.0378 43.0159 42.0378 43.4445V53.8702Z" fill="white"/>
<path fill-rule="evenodd" clip-rule="evenodd" d="M51.7189 45.0217C50.7273 45.0217 49.9268 45.3479 49.2814 45.9809C48.6389 46.6168 48.3076 47.508 48.3076 48.6576C48.3076 49.7192 48.6561 50.5938 49.3335 51.2655C50.0134 51.9503 50.9003 52.2936 51.9982 52.2936C52.6429 52.2936 53.286 52.14 53.894 51.8283L54.3983 51.711C54.7123 51.711 54.9565 51.8475 55.1123 52.1209L55.5303 52.773L55.6517 53.2016C55.6517 53.4942 55.5304 53.7331 55.2709 53.9229C54.3486 54.5581 53.1644 54.8652 51.7361 54.8652C49.8402 54.8652 48.3075 54.3001 47.1234 53.1509C45.9399 52.0181 45.3492 50.5279 45.3492 48.6576C45.3492 46.8556 45.905 45.365 47.0197 44.1983C48.1346 43.0316 49.699 42.4494 51.7189 42.4494C52.779 42.4494 53.773 42.6714 54.6776 43.1169C54.9566 43.2389 55.0977 43.4626 55.0977 43.7865L55.0086 44.1663L54.6258 44.9532C54.4847 45.2622 54.2425 45.4181 53.8767 45.4181L53.4614 45.3305C52.9203 45.1262 52.3466 45.0217 51.7189 45.0217Z" fill="white"/>
<path fill-rule="evenodd" clip-rule="evenodd" d="M62.2915 47.1996L64.5732 43.1864C64.7652 42.826 65.0597 42.6556 65.4776 42.6556H66.3474C66.837 42.6556 67.2176 43.0497 67.2176 43.5127L67.0966 43.9432L63.5621 49.7716V53.8701C63.5621 54.2988 63.1981 54.6596 62.7631 54.6596H61.5797C61.1448 54.6596 60.7783 54.2988 60.7783 53.8701V49.7716L57.2806 43.9432L57.1572 43.5127C57.1572 43.0497 57.5407 42.6556 58.028 42.6556H59.0728C59.4905 42.6556 59.7875 42.826 59.9777 43.1864L62.2915 47.1996Z" fill="white"/>
<path fill-rule="evenodd" clip-rule="evenodd" d="M80.3174 52.2937C81.012 52.2937 81.9367 51.9675 82.233 51.6924V50.3896H80.4385C80.0034 50.3896 79.6401 50.0288 79.6401 49.6001V48.6064C79.6401 48.176 80.0034 47.8156 80.4385 47.8156H84.0422C84.4773 47.8156 84.8437 48.176 84.8437 48.6064V52.6541C84.8437 53.0489 84.688 53.3385 84.3737 53.5626C83.2761 54.3685 81.6574 54.8653 80.2806 54.8653C78.2289 54.8653 76.627 54.2983 75.4797 53.1849C74.3286 52.072 73.755 50.5619 73.755 48.6578C73.755 46.892 74.3135 45.3995 75.4429 44.2159C76.5749 43.0323 78.0707 42.4502 79.9347 42.4502C81.2741 42.4502 82.3888 42.689 83.257 43.1539C83.5901 43.3411 83.7459 43.5823 83.7459 43.8913L83.6422 44.2667L83.1704 45.0901C82.9968 45.382 82.7546 45.5355 82.4386 45.5355L82.0232 45.4334C81.447 45.1583 80.8562 45.0218 80.2653 45.0218C78.1597 45.0218 76.7137 46.2736 76.7137 48.6578C76.7137 50.869 78.14 52.2937 80.3174 52.2937Z" fill="white"/>
<path fill-rule="evenodd" clip-rule="evenodd" d="M92.7878 46.1708L91.4128 49.5657H94.1466L92.7878 46.1708ZM95.1897 52.1402H90.3697L89.5861 54.0933C89.4279 54.4706 89.1487 54.6587 88.7507 54.6587H87.6902C87.2701 54.6587 86.9412 54.3151 86.9412 53.923L86.991 53.6304L91.3783 43.2215C91.5538 42.8442 91.833 42.6564 92.231 42.6564H93.5018C93.9018 42.6564 94.181 42.8442 94.3565 43.2215L98.7416 53.6304L98.7918 53.923C98.7918 54.3151 98.4623 54.6587 98.0446 54.6587H96.809C96.4083 54.6587 96.1291 54.4706 95.9733 54.0933L95.1897 52.1402Z" fill="white"/>
<path fill-rule="evenodd" clip-rule="evenodd" d="M104.373 47.8851H105.381C106.652 47.8851 107.28 47.4221 107.28 46.4966C107.28 45.6201 106.721 45.1934 105.589 45.1934C105.537 45.1934 105.139 45.2104 104.373 45.2277V47.8851ZM105.398 50.459H104.373V53.8709C104.373 54.2995 104.007 54.6597 103.572 54.6597H102.388C101.953 54.6597 101.587 54.2995 101.587 53.8709V43.4451C101.587 43.0165 101.953 42.6556 102.388 42.6556C103.97 42.6386 105.085 42.6194 105.73 42.6194C108.879 42.6194 110.238 44.0781 110.238 46.4626C110.238 48.0919 109.559 49.258 108.184 49.9259L110.864 53.4936L111.02 53.9222C111.02 54.3163 110.691 54.6597 110.255 54.6597H108.966C108.55 54.6597 108.236 54.4893 108.011 54.1611L105.398 50.459Z" fill="white"/>
<path fill-rule="evenodd" clip-rule="evenodd" d="M116.896 52.0876C117.139 52.1047 117.47 52.1216 117.905 52.1216C120.342 52.1216 121.838 50.8188 121.838 48.5562C121.838 46.4109 120.273 45.1757 117.922 45.1757C117.47 45.1757 117.122 45.1949 116.896 45.2271V52.0876ZM115.973 42.6382C116.444 42.6211 116.844 42.6211 117.174 42.6043H117.957C120.256 42.6043 121.978 43.1694 123.109 44.2847C124.241 45.3977 124.797 46.8224 124.797 48.5562C124.797 50.3219 124.188 51.7951 122.987 52.9447C121.769 54.1091 120.046 54.6936 117.819 54.6936C117.504 54.6936 116.531 54.6766 114.912 54.6591C114.477 54.6591 114.111 54.282 114.111 53.8534V43.4614C114.111 43.0329 114.477 42.6551 114.912 42.6551C115.139 42.6551 115.503 42.6553 115.973 42.6382Z" fill="white"/>
<path fill-rule="evenodd" clip-rule="evenodd" d="M135.337 53.8702C135.337 54.2989 134.971 54.6591 134.536 54.6591H128.74C128.305 54.6591 127.938 54.2989 127.938 53.8702V43.4445C127.938 43.0159 128.305 42.6551 128.74 42.6551H134.363C134.795 42.6551 135.162 43.0159 135.162 43.4445V44.4383C135.162 44.8669 134.795 45.2271 134.363 45.2271H130.724V47.3381H133.841C134.274 47.3381 134.64 47.6966 134.64 48.1276V49.119C134.64 49.55 134.274 49.9101 133.841 49.9101H130.724V52.0876H134.536C134.971 52.0876 135.337 52.4478 135.337 52.8765V53.8702Z" fill="white"/>
<path fill-rule="evenodd" clip-rule="evenodd" d="M148.641 42.6556C149.076 42.6556 149.442 43.0158 149.442 43.4444V53.8708C149.442 54.2994 149.076 54.6596 148.641 54.6596H147.822C147.407 54.6596 147.074 54.5061 146.831 54.1779L141.436 47.4583V53.8708C141.436 54.2994 141.07 54.6596 140.635 54.6596H139.626C139.191 54.6596 138.825 54.2994 138.825 53.8708V43.4444C138.825 43.0158 139.191 42.6556 139.626 42.6556H140.444C140.862 42.6556 141.193 42.8091 141.436 43.1356L146.831 49.8932V43.4444C146.831 43.0158 147.197 42.6556 147.632 42.6556H148.641Z" fill="white"/>
<path fill-rule="evenodd" clip-rule="evenodd" d="M153.521 43.6053H153.679L153.937 43.375L153.679 43.1641H153.521V43.6053ZM153.668 43.9039H153.521V44.179L153.311 44.3773L153.099 44.179V43.0656L153.3 42.8653H153.742C154.162 42.8653 154.365 43.0594 154.365 43.3684C154.365 43.5776 154.234 43.7463 154.075 43.806L154.262 44.0491C154.361 44.179 154.298 44.3773 154.103 44.3773L153.889 44.2389L153.668 43.9039ZM153.703 44.7038C154 44.7038 154.251 44.601 154.459 44.3942C154.66 44.1875 154.766 43.9402 154.766 43.6501C154.766 43.3582 154.66 43.1108 154.459 42.9035C154.255 42.6992 154.004 42.5947 153.703 42.5947C153.4 42.5947 153.149 42.6992 152.946 42.9035C152.744 43.1108 152.638 43.3582 152.638 43.6501C152.638 43.9402 152.744 44.1875 152.95 44.3942C153.153 44.601 153.404 44.7038 153.703 44.7038ZM152.595 44.7401C152.287 44.4389 152.134 44.0769 152.134 43.6501C152.134 43.2215 152.287 42.8545 152.588 42.5542C152.891 42.2488 153.263 42.0995 153.703 42.0995C154.147 42.0995 154.519 42.2488 154.822 42.5542C155.12 42.8545 155.27 43.2215 155.27 43.6501C155.27 44.0769 155.116 44.4432 154.816 44.746C154.512 45.0489 154.14 45.2007 153.703 45.2007C153.27 45.2007 152.896 45.0488 152.595 44.7401Z" fill="white"/>
</svg>
