<svg width="164" height="62" viewBox="0 0 164 62" fill="none" xmlns="http://www.w3.org/2000/svg">
<path d="M1.4 21V6.6H7.09C7.23 6.6 7.39667 6.60667 7.59 6.62C7.78333 6.62667 7.97 6.64667 8.15 6.68C8.93 6.8 9.58333 7.06667 10.11 7.48C10.6433 7.89333 11.0433 8.41667 11.31 9.05C11.5767 9.67667 11.71 10.3733 11.71 11.14C11.71 11.9 11.5733 12.5967 11.3 13.23C11.0333 13.8567 10.6333 14.38 10.1 14.8C9.57333 15.2133 8.92333 15.48 8.15 15.6C7.97 15.6267 7.78333 15.6467 7.59 15.66C7.39667 15.6733 7.23 15.68 7.09 15.68H3.18V21H1.4ZM3.18 13.99H7.03C7.15667 13.99 7.3 13.9833 7.46 13.97C7.62667 13.9567 7.78333 13.9333 7.93 13.9C8.39 13.7933 8.76333 13.6 9.05 13.32C9.34333 13.0333 9.55667 12.7 9.69 12.32C9.82333 11.9333 9.89 11.54 9.89 11.14C9.89 10.74 9.82333 10.35 9.69 9.97C9.55667 9.58333 9.34333 9.24667 9.05 8.96C8.76333 8.67333 8.39 8.48 7.93 8.38C7.78333 8.34 7.62667 8.31667 7.46 8.31C7.3 8.29667 7.15667 8.29 7.03 8.29H3.18V13.99ZM13.3047 21V10.2H14.8947V12.81L14.6347 12.47C14.7614 12.1367 14.9247 11.83 15.1247 11.55C15.3314 11.27 15.5614 11.04 15.8147 10.86C16.0947 10.6333 16.4114 10.46 16.7647 10.34C17.118 10.22 17.478 10.15 17.8447 10.13C18.2114 10.1033 18.5547 10.1267 18.8747 10.2V11.87C18.5014 11.77 18.0914 11.7433 17.6447 11.79C17.198 11.8367 16.7847 12 16.4047 12.28C16.058 12.5267 15.788 12.8267 15.5947 13.18C15.408 13.5333 15.278 13.9167 15.2047 14.33C15.1314 14.7367 15.0947 15.1533 15.0947 15.58V21H13.3047ZM24.7703 21.3C23.697 21.3 22.7703 21.0567 21.9903 20.57C21.217 20.0833 20.6203 19.41 20.2003 18.55C19.7803 17.69 19.5703 16.7033 19.5703 15.59C19.5703 14.4567 19.7836 13.4633 20.2103 12.61C20.637 11.7567 21.2403 11.0933 22.0203 10.62C22.8003 10.14 23.717 9.9 24.7703 9.9C25.8503 9.9 26.7803 10.1433 27.5603 10.63C28.3403 11.11 28.937 11.78 29.3503 12.64C29.7703 13.4933 29.9803 14.4767 29.9803 15.59C29.9803 16.7167 29.7703 17.71 29.3503 18.57C28.9303 19.4233 28.3303 20.0933 27.5503 20.58C26.7703 21.06 25.8436 21.3 24.7703 21.3ZM24.7703 19.61C25.8903 19.61 26.7236 19.2367 27.2703 18.49C27.817 17.7433 28.0903 16.7767 28.0903 15.59C28.0903 14.37 27.8136 13.4 27.2603 12.68C26.707 11.9533 25.877 11.59 24.7703 11.59C24.017 11.59 23.397 11.76 22.9103 12.1C22.4236 12.44 22.0603 12.91 21.8203 13.51C21.5803 14.11 21.4603 14.8033 21.4603 15.59C21.4603 16.8033 21.7403 17.7767 22.3003 18.51C22.8603 19.2433 23.6836 19.61 24.7703 19.61ZM36.022 21.3C35.0154 21.3 34.152 21.05 33.432 20.55C32.712 20.0433 32.1554 19.36 31.762 18.5C31.3754 17.64 31.182 16.67 31.182 15.59C31.182 14.51 31.3754 13.54 31.762 12.68C32.1554 11.82 32.712 11.1433 33.432 10.65C34.152 10.15 35.012 9.9 36.012 9.9C37.032 9.9 37.8887 10.1467 38.582 10.64C39.2754 11.1333 39.7987 11.81 40.152 12.67C40.512 13.53 40.692 14.5033 40.692 15.59C40.692 16.6633 40.512 17.6333 40.152 18.5C39.7987 19.36 39.2754 20.0433 38.582 20.55C37.8887 21.05 37.0354 21.3 36.022 21.3ZM36.242 19.67C36.9687 19.67 37.5654 19.4967 38.032 19.15C38.4987 18.7967 38.842 18.3133 39.062 17.7C39.2887 17.08 39.402 16.3767 39.402 15.59C39.402 14.79 39.2887 14.0867 39.062 13.48C38.842 12.8667 38.502 12.39 38.042 12.05C37.582 11.7033 36.9987 11.53 36.292 11.53C35.5587 11.53 34.952 11.71 34.472 12.07C33.9987 12.43 33.6454 12.9167 33.412 13.53C33.1854 14.1433 33.072 14.83 33.072 15.59C33.072 16.3567 33.1887 17.05 33.422 17.67C33.6554 18.2833 34.0054 18.77 34.472 19.13C34.9454 19.49 35.5354 19.67 36.242 19.67ZM39.402 21V13.05H39.202V6.6H40.992V21H39.402ZM47.4938 21.28C46.8004 21.28 46.2038 21.17 45.7038 20.95C45.2104 20.73 44.8004 20.4367 44.4738 20.07C44.1471 19.7033 43.8904 19.2967 43.7038 18.85C43.5171 18.4033 43.3838 17.9467 43.3038 17.48C43.2304 17.0133 43.1938 16.5767 43.1938 16.17V10.2H44.9938V15.61C44.9938 16.1167 45.0404 16.6067 45.1338 17.08C45.2271 17.5533 45.3838 17.98 45.6038 18.36C45.8304 18.74 46.1304 19.04 46.5038 19.26C46.8838 19.48 47.3571 19.59 47.9238 19.59C48.3704 19.59 48.7771 19.5133 49.1438 19.36C49.5104 19.2067 49.8238 18.98 50.0838 18.68C50.3438 18.3733 50.5438 17.9867 50.6838 17.52C50.8238 17.0533 50.8938 16.51 50.8938 15.89L52.0638 16.25C52.0638 17.29 51.8738 18.1867 51.4938 18.94C51.1204 19.6933 50.5904 20.2733 49.9038 20.68C49.2238 21.08 48.4204 21.28 47.4938 21.28ZM51.0938 21V18.11H50.8938V10.2H52.6838V21H51.0938ZM59.6336 21.3C58.5403 21.3 57.6103 21.0567 56.8436 20.57C56.0836 20.0767 55.5036 19.4 55.1036 18.54C54.7036 17.68 54.4969 16.7 54.4836 15.6C54.4969 14.4733 54.7069 13.4833 55.1136 12.63C55.5269 11.77 56.1169 11.1 56.8836 10.62C57.6503 10.14 58.5736 9.9 59.6536 9.9C60.7936 9.9 61.7736 10.18 62.5936 10.74C63.4203 11.3 63.9736 12.0667 64.2536 13.04L62.4936 13.57C62.2669 12.9433 61.8969 12.4567 61.3836 12.11C60.8769 11.7633 60.2936 11.59 59.6336 11.59C58.8936 11.59 58.2836 11.7633 57.8036 12.11C57.3236 12.45 56.9669 12.9233 56.7336 13.53C56.5003 14.13 56.3803 14.82 56.3736 15.6C56.3869 16.8 56.6636 17.77 57.2036 18.51C57.7503 19.2433 58.5603 19.61 59.6336 19.61C60.3403 19.61 60.9269 19.45 61.3936 19.13C61.8603 18.8033 62.2136 18.3333 62.4536 17.72L64.2536 18.19C63.8803 19.1967 63.2969 19.9667 62.5036 20.5C61.7103 21.0333 60.7536 21.3 59.6336 21.3ZM70.2816 21.3C69.2216 21.3 68.2949 21.0667 67.5016 20.6C66.7149 20.1267 66.1016 19.47 65.6616 18.63C65.2216 17.7833 65.0016 16.7967 65.0016 15.67C65.0016 14.49 65.2182 13.47 65.6516 12.61C66.0849 11.7433 66.6882 11.0767 67.4616 10.61C68.2416 10.1367 69.1549 9.9 70.2016 9.9C71.2882 9.9 72.2116 10.15 72.9716 10.65C73.7382 11.15 74.3116 11.8633 74.6916 12.79C75.0782 13.7167 75.2449 14.82 75.1916 16.1H73.3916V15.46C73.3716 14.1333 73.1016 13.1433 72.5816 12.49C72.0616 11.83 71.2882 11.5 70.2616 11.5C69.1616 11.5 68.3249 11.8533 67.7516 12.56C67.1782 13.2667 66.8916 14.28 66.8916 15.6C66.8916 16.8733 67.1782 17.86 67.7516 18.56C68.3249 19.26 69.1416 19.61 70.2016 19.61C70.9149 19.61 71.5349 19.4467 72.0616 19.12C72.5882 18.7933 73.0016 18.3233 73.3016 17.71L75.0116 18.3C74.5916 19.2533 73.9582 19.9933 73.1116 20.52C72.2716 21.04 71.3282 21.3 70.2816 21.3ZM66.2916 16.1V14.67H74.2716V16.1H66.2916ZM81.258 21.3C80.2513 21.3 79.388 21.05 78.668 20.55C77.948 20.0433 77.3913 19.36 76.998 18.5C76.6113 17.64 76.418 16.67 76.418 15.59C76.418 14.51 76.6113 13.54 76.998 12.68C77.3913 11.82 77.948 11.1433 78.668 10.65C79.388 10.15 80.248 9.9 81.248 9.9C82.268 9.9 83.1246 10.1467 83.818 10.64C84.5113 11.1333 85.0346 11.81 85.388 12.67C85.748 13.53 85.928 14.5033 85.928 15.59C85.928 16.6633 85.748 17.6333 85.388 18.5C85.0346 19.36 84.5113 20.0433 83.818 20.55C83.1246 21.05 82.2713 21.3 81.258 21.3ZM81.478 19.67C82.2046 19.67 82.8013 19.4967 83.268 19.15C83.7346 18.7967 84.078 18.3133 84.298 17.7C84.5246 17.08 84.638 16.3767 84.638 15.59C84.638 14.79 84.5246 14.0867 84.298 13.48C84.078 12.8667 83.738 12.39 83.278 12.05C82.818 11.7033 82.2346 11.53 81.528 11.53C80.7946 11.53 80.188 11.71 79.708 12.07C79.2346 12.43 78.8813 12.9167 78.648 13.53C78.4213 14.1433 78.308 14.83 78.308 15.59C78.308 16.3567 78.4246 17.05 78.658 17.67C78.8913 18.2833 79.2413 18.77 79.708 19.13C80.1813 19.49 80.7713 19.67 81.478 19.67ZM84.638 21V13.05H84.438V6.6H86.228V21H84.638ZM97.1936 21.3C96.1803 21.3 95.3269 21.05 94.6336 20.55C93.9403 20.0433 93.4136 19.36 93.0536 18.5C92.7003 17.6333 92.5236 16.6633 92.5236 15.59C92.5236 14.5033 92.7003 13.53 93.0536 12.67C93.4136 11.81 93.9403 11.1333 94.6336 10.64C95.3336 10.1467 96.1903 9.9 97.2036 9.9C98.2036 9.9 99.0636 10.15 99.7836 10.65C100.51 11.1433 101.067 11.82 101.454 12.68C101.84 13.54 102.034 14.51 102.034 15.59C102.034 16.67 101.84 17.64 101.454 18.5C101.067 19.36 100.51 20.0433 99.7836 20.55C99.0636 21.05 98.2003 21.3 97.1936 21.3ZM92.2236 21V6.6H94.0136V13.05H93.8136V21H92.2236ZM96.9736 19.67C97.6869 19.67 98.2769 19.49 98.7436 19.13C99.2103 18.77 99.5603 18.2833 99.7936 17.67C100.027 17.05 100.144 16.3567 100.144 15.59C100.144 14.83 100.027 14.1433 99.7936 13.53C99.5669 12.9167 99.2136 12.43 98.7336 12.07C98.2603 11.71 97.6569 11.53 96.9236 11.53C96.2236 11.53 95.6436 11.7033 95.1836 12.05C94.7236 12.39 94.3803 12.8667 94.1536 13.48C93.9269 14.0867 93.8136 14.79 93.8136 15.59C93.8136 16.3767 93.9236 17.08 94.1436 17.7C94.3703 18.3133 94.7169 18.7967 95.1836 19.15C95.6503 19.4967 96.2469 19.67 96.9736 19.67ZM104.74 25.8L106.83 20.12L106.86 21.8L102.14 10.2H104.01L107.71 19.53H107.07L110.54 10.2H112.35L106.47 25.8H104.74Z" fill="black"/>
<path fill-rule="evenodd" clip-rule="evenodd" d="M156.691 62H7.30913C3.27264 62 0 58.7756 0 54.7986V42.2016C0 38.2244 3.27264 35 7.30913 35H156.691C160.727 35 164 38.2244 164 42.2016V54.7986C164 58.7756 160.727 62 156.691 62Z" fill="#1DABDD"/>
<path fill-rule="evenodd" clip-rule="evenodd" d="M18.3346 43.4431C18.3346 43.0145 18.6984 42.6536 19.1352 42.6536H20.3194C20.7544 42.6536 21.12 43.0145 21.12 43.4431V51.7258C21.12 53.7667 19.9709 54.8626 17.8995 54.8626C17.2198 54.8626 16.5768 54.7261 16.0013 54.434C15.7067 54.2804 15.5491 54.0738 15.5491 53.7835L15.6528 53.37L15.9669 52.6682C16.1247 52.3419 16.3497 52.1884 16.646 52.1884L17.0467 52.2398L17.4296 52.2905H17.5168C18.0205 52.2905 18.3346 51.9133 18.3346 51.2266V43.4431Z" fill="white"/>
<path fill-rule="evenodd" clip-rule="evenodd" d="M32.4566 43.4431C32.4566 43.0145 32.8223 42.6536 33.2571 42.6536H34.439C34.874 42.6536 35.2396 43.0145 35.2396 43.4431V49.7021C35.2396 51.4333 34.7704 52.7215 33.831 53.5769C32.872 54.434 31.6903 54.8626 30.2613 54.8626C28.6428 54.8626 27.3568 54.4171 26.3978 53.5087C25.4413 52.6 24.9541 51.2972 24.9541 49.5824V43.4431C24.9541 43.0145 25.3203 42.6536 25.7554 42.6536H26.9372C27.3722 42.6536 27.7378 43.0145 27.7378 43.4431V48.9983C27.7378 51.1946 28.5752 52.2905 30.2613 52.2905C31.8656 52.2905 32.4566 51.2115 32.4566 49.1538V43.4431Z" fill="white"/>
<path fill-rule="evenodd" clip-rule="evenodd" d="M42.0378 53.8683C42.0378 54.2969 41.6722 54.6571 41.2372 54.6571H40.053C39.6179 54.6571 39.2524 54.2969 39.2524 53.8683V43.4426C39.2524 43.0139 39.6179 42.6531 40.053 42.6531H41.2372C41.6722 42.6531 42.0378 43.0139 42.0378 43.4426V53.8683Z" fill="white"/>
<path fill-rule="evenodd" clip-rule="evenodd" d="M51.7189 45.0197C50.7273 45.0197 49.9268 45.346 49.2814 45.9789C48.6389 46.6148 48.3076 47.506 48.3076 48.6557C48.3076 49.7172 48.6561 50.5918 49.3335 51.2635C50.0134 51.9483 50.9003 52.2916 51.9982 52.2916C52.6429 52.2916 53.286 52.1381 53.894 51.8263L54.3983 51.709C54.7123 51.709 54.9565 51.8455 55.1123 52.1189L55.5303 52.771L55.6517 53.1997C55.6517 53.4922 55.5304 53.7311 55.2709 53.9209C54.3486 54.5562 53.1644 54.8633 51.7361 54.8633C49.8402 54.8633 48.3075 54.2982 47.1234 53.1489C45.9399 52.0161 45.3492 50.5259 45.3492 48.6557C45.3492 46.8537 45.905 45.3631 47.0197 44.1963C48.1346 43.0296 49.699 42.4475 51.7189 42.4475C52.779 42.4475 53.773 42.6695 54.6776 43.1149C54.9566 43.2369 55.0977 43.4606 55.0977 43.7846L55.0086 44.1644L54.6258 44.9513C54.4847 45.2603 54.2425 45.4162 53.8767 45.4162L53.4614 45.3285C52.9203 45.1242 52.3466 45.0197 51.7189 45.0197Z" fill="white"/>
<path fill-rule="evenodd" clip-rule="evenodd" d="M62.2915 47.1976L64.5732 43.1844C64.7652 42.824 65.0597 42.6536 65.4776 42.6536H66.3474C66.837 42.6536 67.2176 43.0477 67.2176 43.5107L67.0966 43.9413L63.5621 49.7697V53.8682C63.5621 54.2968 63.1981 54.6576 62.7631 54.6576H61.5797C61.1448 54.6576 60.7783 54.2968 60.7783 53.8682V49.7697L57.2806 43.9413L57.1572 43.5107C57.1572 43.0477 57.5407 42.6536 58.028 42.6536H59.0728C59.4905 42.6536 59.7875 42.824 59.9777 43.1844L62.2915 47.1976Z" fill="white"/>
<path fill-rule="evenodd" clip-rule="evenodd" d="M80.3174 52.2918C81.012 52.2918 81.9367 51.9655 82.233 51.6904V50.3876H80.4385C80.0034 50.3876 79.6401 50.0268 79.6401 49.5982V48.6044C79.6401 48.1741 80.0034 47.8137 80.4385 47.8137H84.0422C84.4773 47.8137 84.8437 48.1741 84.8437 48.6044V52.6522C84.8437 53.0469 84.688 53.3365 84.3737 53.5606C83.2761 54.3665 81.6574 54.8634 80.2806 54.8634C78.2289 54.8634 76.627 54.2964 75.4797 53.183C74.3286 52.07 73.755 50.5599 73.755 48.6558C73.755 46.8901 74.3135 45.3975 75.4429 44.2139C76.5749 43.0304 78.0707 42.4482 79.9347 42.4482C81.2741 42.4482 82.3888 42.6871 83.257 43.1519C83.5901 43.3392 83.7459 43.5804 83.7459 43.8894L83.6422 44.2647L83.1704 45.0881C82.9968 45.38 82.7546 45.5336 82.4386 45.5336L82.0232 45.4314C81.447 45.1563 80.8562 45.0198 80.2653 45.0198C78.1597 45.0198 76.7137 46.2716 76.7137 48.6558C76.7137 50.867 78.14 52.2918 80.3174 52.2918Z" fill="white"/>
<path fill-rule="evenodd" clip-rule="evenodd" d="M92.7878 46.1688L91.4128 49.5638H94.1466L92.7878 46.1688ZM95.1897 52.1382H90.3697L89.5861 54.0914C89.4279 54.4686 89.1487 54.6567 88.7507 54.6567H87.6902C87.2701 54.6567 86.9412 54.3132 86.9412 53.921L86.991 53.6284L91.3783 43.2195C91.5538 42.8423 91.833 42.6544 92.231 42.6544H93.5018C93.9018 42.6544 94.181 42.8423 94.3565 43.2195L98.7416 53.6284L98.7918 53.921C98.7918 54.3132 98.4623 54.6567 98.0446 54.6567H96.809C96.4083 54.6567 96.1291 54.4686 95.9733 54.0914L95.1897 52.1382Z" fill="white"/>
<path fill-rule="evenodd" clip-rule="evenodd" d="M104.373 47.8831H105.381C106.652 47.8831 107.28 47.4201 107.28 46.4946C107.28 45.6181 106.721 45.1914 105.589 45.1914C105.537 45.1914 105.139 45.2085 104.373 45.2257V47.8831ZM105.398 50.4571H104.373V53.8689C104.373 54.2976 104.007 54.6577 103.572 54.6577H102.388C101.953 54.6577 101.587 54.2976 101.587 53.8689V43.4432C101.587 43.0145 101.953 42.6537 102.388 42.6537C103.97 42.6366 105.085 42.6174 105.73 42.6174C108.879 42.6174 110.238 44.0761 110.238 46.4607C110.238 48.0899 109.559 49.256 108.184 49.9239L110.864 53.4916L111.02 53.9203C111.02 54.3144 110.691 54.6577 110.255 54.6577H108.966C108.55 54.6577 108.236 54.4873 108.011 54.1591L105.398 50.4571Z" fill="white"/>
<path fill-rule="evenodd" clip-rule="evenodd" d="M116.896 52.0857C117.139 52.1028 117.47 52.1196 117.905 52.1196C120.342 52.1196 121.838 50.8169 121.838 48.5542C121.838 46.4089 120.273 45.1737 117.922 45.1737C117.47 45.1737 117.122 45.1929 116.896 45.2251V52.0857ZM115.973 42.6363C116.444 42.6192 116.844 42.6192 117.174 42.6023H117.957C120.256 42.6023 121.978 43.1675 123.109 44.2828C124.241 45.3957 124.797 46.8205 124.797 48.5542C124.797 50.32 124.188 51.7931 122.987 52.9428C121.769 54.1071 120.046 54.6916 117.819 54.6916C117.504 54.6916 116.531 54.6746 114.912 54.6571C114.477 54.6571 114.111 54.2801 114.111 53.8514V43.4594C114.111 43.031 114.477 42.6531 114.912 42.6531C115.139 42.6531 115.503 42.6533 115.973 42.6363Z" fill="white"/>
<path fill-rule="evenodd" clip-rule="evenodd" d="M135.337 53.8683C135.337 54.2969 134.971 54.6571 134.536 54.6571H128.74C128.305 54.6571 127.938 54.2969 127.938 53.8683V43.4426C127.938 43.0139 128.305 42.6531 128.74 42.6531H134.363C134.795 42.6531 135.162 43.0139 135.162 43.4426V44.4363C135.162 44.865 134.795 45.2251 134.363 45.2251H130.724V47.3361H133.841C134.274 47.3361 134.64 47.6946 134.64 48.1256V49.117C134.64 49.548 134.274 49.9082 133.841 49.9082H130.724V52.0857H134.536C134.971 52.0857 135.337 52.4459 135.337 52.8745V53.8683Z" fill="white"/>
<path fill-rule="evenodd" clip-rule="evenodd" d="M148.641 42.6536C149.076 42.6536 149.442 43.0138 149.442 43.4425V53.8688C149.442 54.2975 149.076 54.6576 148.641 54.6576H147.822C147.407 54.6576 147.074 54.5041 146.831 54.1759L141.436 47.4563V53.8688C141.436 54.2975 141.07 54.6576 140.635 54.6576H139.626C139.191 54.6576 138.825 54.2975 138.825 53.8688V43.4425C138.825 43.0138 139.191 42.6536 139.626 42.6536H140.444C140.862 42.6536 141.193 42.8072 141.436 43.1337L146.831 49.8912V43.4425C146.831 43.0138 147.197 42.6536 147.632 42.6536H148.641Z" fill="white"/>
<path fill-rule="evenodd" clip-rule="evenodd" d="M153.521 43.6034H153.679L153.937 43.3731L153.679 43.1622H153.521V43.6034ZM153.668 43.9019H153.521V44.177L153.311 44.3753L153.099 44.177V43.0636L153.3 42.8634H153.742C154.162 42.8634 154.365 43.0574 154.365 43.3664C154.365 43.5757 154.234 43.7443 154.075 43.804L154.262 44.0472C154.361 44.177 154.298 44.3753 154.103 44.3753L153.889 44.237L153.668 43.9019ZM153.703 44.7019C154 44.7019 154.251 44.5991 154.459 44.3922C154.66 44.1856 154.766 43.9382 154.766 43.6482C154.766 43.3562 154.66 43.1088 154.459 42.9016C154.255 42.6973 154.004 42.5928 153.703 42.5928C153.4 42.5928 153.149 42.6973 152.946 42.9016C152.744 43.1088 152.638 43.3562 152.638 43.6482C152.638 43.9382 152.744 44.1856 152.95 44.3922C153.153 44.5991 153.404 44.7019 153.703 44.7019ZM152.595 44.7381C152.287 44.437 152.134 44.0749 152.134 43.6482C152.134 43.2195 152.287 42.8525 152.588 42.5523C152.891 42.2469 153.263 42.0976 153.703 42.0976C154.147 42.0976 154.519 42.2469 154.822 42.5523C155.12 42.8525 155.27 43.2195 155.27 43.6482C155.27 44.0749 155.116 44.4413 154.816 44.7441C154.512 45.0469 154.14 45.1987 153.703 45.1987C153.27 45.1987 152.896 45.0469 152.595 44.7381Z" fill="white"/>
</svg>
