<svg width="80" height="80" viewBox="0 0 80 80" fill="none" xmlns="http://www.w3.org/2000/svg">
<path d="M24.0898 43.4521C24.9185 50.4248 27.0082 53.9294 31.6919 56.1561C36.0874 58.2371 36.7 56.4484 33.3493 53.1994C26.5398 46.5551 25.0266 42.0648 29.3861 39.9111C31.6561 38.8158 48.4816 39.4728 48.4816 39.4728C50.1749 39.4364 51.5441 40.8601 51.4358 42.5761C50.9674 50.0598 48.5537 56.2657 41.0957 56.3024C39.1502 56.3024 38.5373 57.0688 39.8703 57.7991C46.8963 61.6321 55.399 52.8708 55.5793 41.6268C55.6513 36.5525 46.0676 35.0191 26.0353 36.8811C23.4412 37.1731 23.3692 37.3921 24.0898 43.4521Z" fill="black"/>
<path d="M44.2661 29.1784C45.5633 29.7261 45.9235 30.2008 46.0676 31.5514C46.3199 34.3624 48.4816 34.2894 48.4816 31.5148V29.4341H51.472C56.0836 29.4341 55.9036 27.2802 51.2559 26.5135L48.7339 26.112L48.5898 23.8486C48.4096 21.0376 47.0407 19.9424 45.5994 21.4027C45.2751 21.7313 44.9869 22.7534 44.9869 23.7026C44.9869 25.2358 44.8425 25.3818 43.4736 25.3818C40.5191 25.3818 41.0596 27.7913 44.2661 29.1784Z" fill="black"/>
<path d="M50.1031 14.6487C43.9059 13.7361 42.8249 14.7948 47.4726 17.2772C52.9132 20.1977 60.7314 29.3971 61.7762 37.8668C63.0734 48.3074 54.6065 60.0257 44.3023 61.9607C28.5575 64.9177 13.4253 47.7598 18.5414 32.7191C21.8561 22.9721 30.0707 14.5392 36.4479 15.9995C40.1588 16.8391 40.447 14.7948 37.5287 14.2472C35.9074 13.9551 33.4934 13.8821 31.512 14.2472C13.1731 17.4597 5.21072 45.1314 18.9017 58.1274C33.9619 72.4014 57.9212 66.524 66.5322 46.4821C71.7202 34.4351 62.4249 16.4375 50.1031 14.6487Z" fill="black"/>
<path d="M26.9362 28.9225C28.7736 28.9225 28.9177 29.0318 28.9177 30.4192C28.9177 34.0698 31.6199 35.0555 32.1966 31.5875C32.7009 28.5575 32.8088 28.4115 34.7185 28.4115C37.2405 28.4115 36.9523 26.8051 34.3221 26.148C32.6289 25.7099 32.4486 25.5274 32.4486 23.9576C32.4486 20.4895 30.2148 18.9198 29.0259 21.5482C28.7015 22.2784 28.4494 23.41 28.4494 24.1037C28.4494 25.2719 28.3414 25.3449 26.5039 25.0528C22.6128 24.4322 22.7568 28.9225 26.9362 28.9225Z" fill="black"/>
</svg>
