<svg width="200" height="80" fill="none" xmlns="http://www.w3.org/2000/svg"><path fill-rule="evenodd" clip-rule="evenodd" d="m194.781 11.585-.163-.164V9.018h-.837l-.161-.162v-.182l.161-.16h2.215l.164.16v.181l-.164.163h-.836v2.405l-.163.163h-.216ZM197.429 9.377v2.044l-.161.164h-.217l-.163-.164V8.674l.163-.16h.253l.209.109.973 1.325.93-1.325.205-.11h.218l.161.161v2.748l-.161.164h-.213l-.161-.164V9.363l-.806 1.13h-.418l-.812-1.115ZM19.602 8.27c0-.318-.16-.647-.474-.982 5.084 0 4.876.128 7.477.128 5.352 0 6.967-.447 6.967-5.49C33.572.09 32.023 0 31.74 0c-.238 0-.575.067-.575.207 0 .117.332.298.332.64 0 1.216-3.549 2.556-14.358 2.556C7.867 3.403 0 2.033 0 11.11c0 2.139 2.344 2.614 2.928 2.614.227 0 .608-.043.608-.229 0-.254-.713-.57-.713-1.448 0-2.69 1.446-4.179 12.368-4.682-3.057 4.987-6.118 19.903-6.118 23.346 0 6.407 3.666 7.339 5.65 7.339.496 0 .743-.086.743-.264 0-.36-1.035-3-1.035-6.484 0-10.097 5.17-22.37 5.17-23.031ZM86.27 14.085c.369 0 .553.158.553.475 0 1.162-2.184 3.588-5.229 4.498.846-1.756 2.727-4.973 4.676-4.973Zm81.826 20.483c-.294 0-.247.743-.853.743-3.593 0-10.337-9.405-12.402-13.363.451-.3 8.075-5.66 8.075-7.232 0-2.445-2.358-2.962-3.005-2.962-.235 0-.843.086-.843.398 0 .326.444.391.444.922 0 1.37-4.923 5.404-7.463 7.172 1.752-6.282 3.528-6.296 3.528-6.936 0-1.075-2.815-1.726-3.355-1.726-2.594 0-4.201 3.831-4.986 8.068-1.122 1.165-3.365 6.2-7.293 6.2-.57 0-2.241-.072-2.241-2.953 0-3.259 2.603-8.814 5.047-8.814.636 0 .846.277.846.734 0 .91-1.308 2.955-2.951 2.955-.297 0-.558.194-.558.883 0 .962.745 2.42 2.039 2.42 1.87 0 3.548-3.323 3.548-5.205 0-2.84-1.809-4.118-3.821-4.118-3.526 0-7.626 4.53-8.395 10.18-1.286 1.82-2.844 3.998-3.996 3.998-.631 0-.937-.429-.937-1.529 0-2.732 2.341-8.082 3.9-9.852l.189-.43c0-1.03-3.142-2.328-3.696-2.328-2.902 0-5.998 4.38-8.34 9.71.583-4.131 2.192-6.377 2.69-6.952l.21-.48c0-.955-2.502-2.278-3.173-2.278-3.346 0-8.166 8.462-8.727 10.41.591-3.665 2.204-6.425 3.274-7.652l.189-.43c0-1.028-3.098-2.328-3.659-2.328-1.482 0-3.769 5.434-4.293 10.682-.191.27-.399.559-.638.885-1.826 2.473-2.57 3.107-3.273 3.107-.306 0-.899-.056-.899-1.486 0-2.853 2.299-7.91 3.703-9.547l.166-.384c0-.972-2.965-2.295-3.517-2.295-1.189 0-2.93 3.527-3.979 7.484-1.638-.051-3.3-.152-4.51-.24.863-2.641 2.113-4.442 2.657-5.068l.19-.431c0-1.034-3.146-2.327-3.697-2.327-1.23 0-2.923 3.706-3.794 7.824-1.18 1.57-3.33 5.741-7.005 5.741-1.792 0-2.138-1.481-1.95-3.03 2.734 0 8.452-3.652 8.452-7.663 0-.939-.353-3.291-3.659-3.291-3.591 0-9.78 5.208-9.78 12.042 0 1.614.86 7.071 5.252 7.071 3.283 0 6.262-2.772 8.152-5.557.157 2.378 1.703 5.157 4.606 5.157.182 0 .273-.117.273-.35a17.97 17.97 0 0 1-.41-7.006c1.67.044 3.274.133 4.574.221-.155 1.018-.248 2.015-.248 2.935 0 4.677 2.2 5.015 3.124 5.015 1.327 0 3.226-.378 5.572-3.068.351-.407.676-.85.989-1.311.666 1.73 2.056 3.223 4.178 3.223l.27-.31v-.039c0-3.526 2.562-8.972 5.35-13.167l.039-.04c-.516 1.535-1.414 4.717-1.414 8.001 0 2.224 1.419 5.555 4.678 5.555.175 0 .262-.137.262-.414l-.028-.324c0-2.012.878-5.935 4.752-12.236-.142.41-1.624 4.633-1.624 8.549 0 4.148 1.557 5.24 3.222 5.24.092 0 2.798.297 5.728-3.184.306-.353.586-.744.867-1.136.603 2.162 1.944 4.244 4.355 4.244 3.189 0 6.603-3.189 8.608-6.23-.166 4.35 3.264 6.19 4.341 6.19.238 0 .486-.398.486-.592 0-.084-1.299-2.522.194-8.657 3.322 7.297 7.8 16.57 12.578 16.57 2.927 0 4.329-2.083 4.329-2.876 0-.497-.441-.702-.514-.702Z" fill="#DE0D17"/><path fill-rule="evenodd" clip-rule="evenodd" d="M189.807 14.085c.37 0 .555.158.555.475 0 1.162-2.186 3.588-5.23 4.498.846-1.756 2.727-4.973 4.675-4.973Zm3.898 5.32c-.935 0-3.147 6.333-7.676 6.333-.575 0-1.991-.077-1.991-2.373 0-.21.014-.429.043-.657 2.841 0 7.801-3.597 8.337-6.564a5.74 5.74 0 0 0 .114-1.099c0-.939-.353-3.291-3.659-3.291-2.914 0-8.517 3.84-9.601 10.138-1.264 1.81-2.797 3.96-3.961 3.96-.619 0-.934-.407-.934-1.52 0-2.875 2.381-8.116 3.857-9.79l.19-.429c0-1.01-3.078-2.32-3.657-2.32-1.278 0-3.145 4.17-4.052 8.197-.614 1.483-2.179 4.504-3.78 4.504-.594 0-.996-.377-.996-1.565 0-2.569 2.274-6.992 3.452-8.378l.184-.468c0-.976-2.395-2.29-3.068-2.29-1.787 0-5.532 8.27-5.532 13.207 0 .722.179 5.052 3.422 5.052 1.585 0 3.587-1.558 5.771-5.091.064 4.378 1.569 5.904 2.846 5.904.092 0 2.744.31 5.688-3.21.297-.345.567-.726.838-1.106.61 2.047 1.968 4.318 4.805 4.318 5.542 0 10.241-7.896 10.241-10.43 0-.734-.313-1.032-.881-1.032ZM101.995 58.986c-.035 0-1.203.163-1.203-1.94 0-2.697 2.453-7.924 6.112-7.924.493 0 .741.114.741.347 0 .885-2.376 2.714-2.376 3.42 0 .302.086.486.506.737-1.205 2.675-2.018 5.36-3.78 5.36Zm-6.661 16.572c-.522 0-1.08-.202-1.678-.608l-.248-.521c0-.918 2.091-2.232 6.248-3.401-.397.873-1.934 4.53-4.322 4.53Zm-6.938-22.98c0 .452.295.655.507.739-1.21 2.685-1.976 5.164-3.624 5.164-.18 0-1.166.074-1.166-1.827 0-2.261 2.124-7.688 5.842-7.688.273 0 .682.012.682.393 0 .804-2.24 2.593-2.24 3.219Zm21.354 12.623c-.858 0-1.792.039-2.806.116l4.201-12.123c0-.646-1.15-1.182-1.785-1.354.939-1.279.974-2.616.974-3.147 0-1.316-.77-2.951-3.43-2.951-2.456 0-8.62 2.916-10.332 9.16-1.37 1.892-3.287 4.939-4.636 4.939-2.617 0 2.155-6.739 2.155-6.885 0-.587-.954-1.16-1.727-1.35.98-1.233.944-2.803.944-3.069 0-1.434-1.028-2.795-3.32-2.795-1.328 0-6.193 1.363-9.1 6.582-.836 1.503-1.254 3.303-1.263 5.4-.828-1.673-2.538-2.388-3.41-2.388-2.988 0-.822.902-.829 4.705-.01 4.12-4.063 7.284-7.327 7.284-1.924 0-3.907-1.266-3.907-6.077 0-7.808 5.951-21.736 10.725-21.736 1.243 0 2.184.533 2.184 2 0 2.775-1.887 3.748 1.078 3.748 2.944 0 3.301-1.32 3.301-3.098 0-2.278-1.705-5.408-6.369-5.408-6.113 0-15.976 8.021-15.976 22.763 0 9.694 8.19 10.642 9.819 10.642 7.33 0 10.68-5.84 11.126-9.512.465 1.62 1.421 3.272 3.363 3.272 1.58 0 3.425-2.99 3.741-3.536-.152 1.594.089 4.468 2.493 4.468 2.563 0 4.981-2.082 6.682-4.482.451 2.309 1.669 4.289 3.727 4.289 1.101 0 2.311-1.48 3.273-2.679-.399.831-.922 2.04-1.714 4.272-1.318.342-9.033 2.313-9.585 8.466-.032.16-.077.429-.077.778.155 2.593 2.02 4.505 5.063 4.505 3.872 0 5.802-4.35 8.146-10.137 1.939-.282 3.47-.342 4.337-.342 4.315 0 5.409 1.232 5.637 1.467.288.296.522.438.69.438.087 0 .332-.063.332-.575 0-1.453-2.08-5.65-6.398-5.65Z" fill="#DE0D17"/><path fill-rule="evenodd" clip-rule="evenodd" d="M136.398 53.65c-.937 0-4.015 6.409-6 6.409-1.225 0 2.843-7.121 2.843-10.384 0-2.096-1.6-3.643-2.766-3.643-.804 0-4.167 5.62-6.253 7.337.133-1.148.341-3.37-1.949-3.37-2.472 0-3.822 2.114-3.822 4.187 0 1.35.946 2.537 2.465 2.79-1.234 1.487-2.874 3.278-4.683 3.278-2.484 0 .599-8.462 2.804-11.031l.166-.387c0-.97-2.965-2.297-3.516-2.297-1.799 0-4.877 8.074-4.877 13.515 0 4.67 2.197 5.016 3.122 5.016 4.687 0 7.673-4.94 7.79-4.94.755-1.106 1.301-2.094 1.776-3.517 1.813-1.266 5.727-7.67 5.762-7.67l.026.052c0 .852-4.108 9.836-4.108 12.368 0 1.64.878 3.707 3.037 3.707 4.384-.102 8.935-6.866 8.935-10.369 0-1.045-.579-1.05-.752-1.05ZM26.297 18.59c0 .453.296.655.506.737-1.222 2.711-1.98 5.168-3.623 5.168-.183 0-1.167.073-1.167-1.828 0-2.301 2.155-7.689 5.842-7.689.276 0 .68.014.68.396 0 .8-2.238 2.593-2.238 3.217ZM64.12 31.036c.238 0 .486-.4.486-.591 0-.089-1.328-2.555.25-8.888.427 1.067.633 1.57 1.551 3.748 2.157 5.23 3.802 6.68 5.22 6.68 2.222 0 4.192-3.692 4.192-4.507 0-.308-.14-.427-.371-.427-.449 0-.601.739-1.559.739-1.837 0-3.585-3.345-4.984-6.314 2.157-1.554 7.108-5.281 7.108-6.548 0-2.446-2.358-2.963-3.005-2.963-.236 0-.843.084-.843.399 0 .324.444.391.444.922 0 1.37-4.923 5.404-7.463 7.171 1.752-6.284 3.528-6.295 3.528-6.935 0-1.075-2.816-1.729-3.356-1.729-2.742 0-4.385 4.29-5.114 8.811-1.327 1.656-3.514 5.446-4.968 5.446-1.3 0-.979-2.388-.348-4.454 1.645-3.784 2.656-7.362 2.656-7.705 0-1.096-2.144-2.098-3.934-2.098-1.416 0-3.876 13.756-6.788 13.756-2.799 0 .306-8.77 2.267-10.996l.191-.43c0-1-2.981-2.33-3.659-2.33-2.175 0-4.4 7.193-4.011 11.033-.127.235-1.964 3.69-3.314 3.69-2.446 0 .97-10.777 2.105-11.963l.19-.43c0-1.005-3.008-2.33-3.58-2.33-1.108 0-2.264 2.851-2.923 4.952-.505 1.619-1.077 4.069-1.27 6.489-1.027 1.386-2.116 2.62-2.985 2.62-2.131 0 .972-5.467 1.918-6.407l.239-.478c0-.59-.947-1.155-1.727-1.349.984-1.236.942-2.802.942-3.067 0-1.249-.827-2.798-3.318-2.798-2.734 0-10.365 3.853-10.365 12.04 0 1.163.411 6.138 3.778 6.138 1.58 0 3.43-2.993 3.74-3.534-.149 1.591.092 4.468 2.496 4.468 2.07 0 3.981-1.305 5.515-3.019.703 2.996 2.434 3.056 3.025 3.056 2.239 0 4.47-1.534 6.078-4.584.336 1.449 1.337 4.584 4.792 4.584 1.19 0 2.34-.701 3.414-1.81.757 1.715 2.089 1.773 2.577 1.773 1.336 0 3.238-.387 5.572-3.07a14.79 14.79 0 0 0 1.253-1.717c.042 2.292 2.771 4.956 4.358 4.956Z" fill="#DE0D17"/></svg>