<svg width="181" height="73" fill="none" xmlns="http://www.w3.org/2000/svg"><path fill-rule="evenodd" clip-rule="evenodd" d="m176.277 10.571-.148-.149V8.228h-.757l-.146-.148v-.166l.146-.146h2.004l.148.146v.166l-.148.148h-.756v2.194l-.148.15h-.195ZM178.673 8.556v1.866l-.145.15h-.197l-.148-.15V7.914l.148-.146h.229l.19.1.88 1.209.841-1.21.186-.1h.197l.146.147v2.508l-.146.15h-.192l-.146-.15V8.543l-.73 1.03h-.378l-.735-1.017ZM17.74 7.547c0-.29-.144-.59-.43-.897 4.602 0 4.413.117 6.767.117 4.845 0 6.306-.408 6.306-5.01C30.383.083 28.981 0 28.725 0c-.216 0-.52.061-.52.19 0 .105.3.27.3.584 0 1.109-3.212 2.331-12.994 2.331C7.12 3.105 0 1.855 0 10.138c0 1.951 2.121 2.385 2.65 2.385.205 0 .55-.039.55-.208 0-.232-.645-.522-.645-1.322 0-2.455 1.309-3.813 11.192-4.273-2.766 4.551-5.536 18.162-5.536 21.303 0 5.848 3.318 6.698 5.113 6.698.449 0 .673-.08.673-.24 0-.33-.937-2.738-.937-5.918 0-9.213 4.68-20.412 4.68-21.016ZM78.074 12.852c.334 0 .501.145.501.434 0 1.06-1.977 3.274-4.732 4.104.765-1.602 2.468-4.538 4.231-4.538Zm74.053 18.692c-.266 0-.224.677-.772.677-3.252 0-9.355-8.582-11.224-12.193.408-.274 7.308-5.164 7.308-6.6 0-2.23-2.134-2.703-2.719-2.703-.214 0-.764.08-.764.363 0 .298.402.358.402.842 0 1.25-4.455 4.931-6.754 6.544 1.586-5.732 3.193-5.744 3.193-6.329 0-.98-2.548-1.575-3.036-1.575-2.348 0-3.802 3.497-4.513 7.363-1.015 1.062-3.045 5.657-6.599 5.657-.516 0-2.029-.066-2.029-2.695 0-2.973 2.356-8.043 4.568-8.043.575 0 .765.254.765.67 0 .831-1.184 2.697-2.67 2.697-.269 0-.505.177-.505.806 0 .877.674 2.208 1.845 2.208 1.692 0 3.211-3.033 3.211-4.75 0-2.59-1.637-3.758-3.458-3.758-3.191 0-6.902 4.135-7.598 9.29-1.163 1.66-2.573 3.648-3.616 3.648-.571 0-.848-.391-.848-1.395 0-2.493 2.119-7.375 3.529-8.99l.172-.393c0-.94-2.844-2.124-3.345-2.124-2.627 0-5.429 3.996-7.548 8.86.527-3.77 1.984-5.818 2.435-6.343l.19-.438c0-.871-2.265-2.079-2.872-2.079-3.028 0-7.39 7.722-7.898 9.499.535-3.344 1.994-5.862 2.963-6.982l.171-.393c0-.937-2.804-2.124-3.311-2.124-1.341 0-3.411 4.959-3.885 9.747-.174.247-.362.51-.577.808-1.654 2.257-2.326 2.835-2.963 2.835-.277 0-.814-.05-.814-1.356 0-2.603 2.081-7.218 3.352-8.712l.15-.35c0-.886-2.684-2.094-3.183-2.094-1.076 0-2.651 3.218-3.6 6.83a101.64 101.64 0 0 1-4.082-.22c.78-2.41 1.912-4.053 2.405-4.625l.17-.393c0-.944-2.846-2.123-3.345-2.123-1.112 0-2.645 3.381-3.434 7.14-1.068 1.432-3.013 5.238-6.339 5.238-1.622 0-1.935-1.352-1.764-2.765 2.474 0 7.648-3.332 7.648-6.992 0-.857-.318-3.004-3.31-3.004-3.25 0-8.852 4.753-8.852 10.989 0 1.472.778 6.452 4.753 6.452 2.971 0 5.667-2.529 7.378-5.07.142 2.17 1.541 4.705 4.168 4.705.165 0 .247-.106.247-.32a16.53 16.53 0 0 1-.37-6.392c1.51.04 2.963.121 4.138.202a18.3 18.3 0 0 0-.224 2.678c0 4.267 1.992 4.575 2.828 4.575 1.2 0 2.92-.344 5.043-2.798.317-.372.61-.776.895-1.197.602 1.58 1.86 2.941 3.78 2.941l.245-.282v-.036c0-3.218 2.318-8.188 4.841-12.016l.036-.035c-.468 1.4-1.28 4.303-1.28 7.3 0 2.03 1.284 5.07 4.234 5.07.158 0 .237-.126.237-.379l-.025-.295c0-1.837.794-5.416 4.3-11.165-.129.374-1.469 4.227-1.469 7.8 0 3.785 1.408 4.782 2.916 4.782.082 0 2.531.27 5.183-2.905.277-.323.53-.68.784-1.037.546 1.972 1.76 3.872 3.942 3.872 2.886 0 5.976-2.91 7.79-5.685-.15 3.97 2.954 5.65 3.929 5.65.215 0 .44-.364.44-.541 0-.077-1.176-2.302.175-7.9 3.007 6.659 7.059 15.12 11.383 15.12 2.649 0 3.918-1.9 3.918-2.624 0-.453-.399-.64-.465-.64Z" fill="#DE0D17"/><path fill-rule="evenodd" clip-rule="evenodd" d="M171.775 12.852c.335 0 .502.145.502.434 0 1.06-1.977 3.274-4.733 4.104.766-1.602 2.468-4.538 4.231-4.538Zm3.528 4.855c-.846 0-2.848 5.78-6.947 5.78-.52 0-1.801-.071-1.801-2.167 0-.19.012-.39.038-.599 2.572 0 7.06-3.282 7.545-5.99.069-.354.104-.688.104-1.002 0-.857-.32-3.004-3.312-3.004-2.637 0-7.707 3.505-8.689 9.252-1.144 1.652-2.531 3.613-3.584 3.613-.561 0-.846-.372-.846-1.388 0-2.622 2.155-7.405 3.491-8.933l.171-.39c0-.923-2.785-2.118-3.309-2.118-1.157 0-2.846 3.805-3.666 7.48-.557 1.353-1.973 4.11-3.422 4.11-.537 0-.901-.344-.901-1.428 0-2.344 2.058-6.38 3.124-7.645l.166-.427c0-.89-2.167-2.09-2.776-2.09-1.618 0-5.007 7.546-5.007 12.052 0 .658.162 4.61 3.098 4.61 1.433 0 3.246-1.423 5.222-4.646.058 3.995 1.42 5.387 2.576 5.387.083 0 2.483.283 5.147-2.929.269-.314.514-.662.759-1.009.552 1.868 1.781 3.94 4.348 3.94 5.015 0 9.268-7.205 9.268-9.517 0-.67-.283-.942-.797-.942ZM92.305 53.824c-.031 0-1.089.15-1.089-1.77 0-2.46 2.221-7.23 5.532-7.23.446 0 .67.104.67.317 0 .807-2.15 2.476-2.15 3.12 0 .275.078.444.459.673-1.091 2.44-1.827 4.89-3.422 4.89Zm-6.028 15.123c-.472 0-.977-.185-1.518-.555l-.224-.476c0-.837 1.892-2.036 5.654-3.103-.36.797-1.751 4.134-3.912 4.134ZM80 47.977a.69.69 0 0 0 .459.675c-1.096 2.45-1.79 4.712-3.28 4.712-.163 0-1.056.068-1.056-1.667 0-2.063 1.923-7.016 5.287-7.016.247 0 .618.011.618.36 0 .733-2.028 2.365-2.028 2.937Zm19.325 11.519c-.776 0-1.622.035-2.54.105l3.802-11.062c0-.589-1.04-1.078-1.615-1.235.85-1.167.882-2.387.882-2.872 0-1.2-.698-2.693-3.105-2.693-2.222 0-7.8 2.662-9.35 8.36-1.24 1.726-2.975 4.506-4.196 4.506-2.368 0 1.95-6.15 1.95-6.283 0-.536-.863-1.058-1.563-1.23.888-1.127.855-2.56.855-2.802 0-1.309-.93-2.55-3.005-2.55-1.202 0-5.604 1.243-8.235 6.006-.757 1.37-1.135 3.014-1.144 4.926-.748-1.525-2.296-2.178-3.085-2.178-2.705 0-.744.823-.75 4.293-.009 3.76-3.678 6.647-6.632 6.647-1.74 0-3.536-1.155-3.536-5.545 0-7.125 5.387-19.835 9.707-19.835 1.125 0 1.977.487 1.977 1.826 0 2.531-1.709 3.42.975 3.42 2.664 0 2.987-1.205 2.987-2.827 0-2.079-1.543-4.935-5.764-4.935-5.532 0-14.458 7.32-14.458 20.772 0 8.845 7.412 9.71 8.886 9.71 6.634 0 9.666-5.328 10.07-8.68.42 1.48 1.285 2.986 3.043 2.986 1.429 0 3.1-2.729 3.385-3.226-.137 1.454.08 4.076 2.257 4.076 2.32 0 4.508-1.9 6.047-4.089.408 2.106 1.51 3.913 3.373 3.913.996 0 2.091-1.35 2.962-2.444-.361.759-.835 1.862-1.552 3.898-1.192.312-8.174 2.11-8.674 7.726-.029.146-.07.39-.07.71.14 2.365 1.828 4.11 4.583 4.11 3.504 0 5.25-3.97 7.371-9.25a27.789 27.789 0 0 1 3.925-.312c3.906 0 4.896 1.124 5.102 1.339.261.27.472.4.624.4.079 0 .301-.058.301-.526 0-1.326-1.883-5.155-5.79-5.155Z" fill="#DE0D17"/><path fill-rule="evenodd" clip-rule="evenodd" d="M123.44 48.956c-.848 0-3.633 5.847-5.43 5.847-1.108 0 2.573-6.497 2.573-9.475 0-1.913-1.448-3.324-2.504-3.324-.727 0-3.77 5.129-5.658 6.695.121-1.048.309-3.075-1.764-3.075-2.237 0-3.459 1.93-3.459 3.821 0 1.23.856 2.315 2.231 2.546-1.117 1.356-2.601 2.99-4.238 2.99-2.248 0 .542-7.72 2.538-10.065l.15-.353c0-.886-2.683-2.096-3.183-2.096-1.628 0-4.413 7.367-4.413 12.332 0 4.262 1.988 4.578 2.826 4.578 4.241 0 6.944-4.508 7.049-4.508.684-1.01 1.178-1.91 1.607-3.21 1.641-1.155 5.183-6.998 5.215-6.998l.024.047c0 .778-3.718 8.975-3.718 11.285 0 1.497.795 3.384 2.749 3.384 3.967-.094 8.086-6.266 8.086-9.462 0-.954-.525-.959-.681-.959ZM23.799 16.964c0 .413.268.598.458.672-1.106 2.474-1.793 4.716-3.28 4.716-.164 0-1.055.066-1.055-1.669 0-2.1 1.95-7.015 5.287-7.015.25 0 .615.013.615.361 0 .73-2.026 2.366-2.026 2.935Zm34.23 11.356c.216 0 .44-.365.44-.54 0-.08-1.201-2.332.227-8.11.386.973.573 1.432 1.404 3.42 1.951 4.773 3.44 6.095 4.723 6.095 2.012 0 3.794-3.368 3.794-4.112 0-.281-.127-.39-.336-.39-.406 0-.544.675-1.41.675-1.663 0-3.244-3.053-4.511-5.762 1.952-1.418 6.433-4.82 6.433-5.975 0-2.232-2.134-2.704-2.72-2.704-.213 0-.763.077-.763.364 0 .296.402.357.402.841 0 1.25-4.456 4.931-6.754 6.544 1.586-5.734 3.193-5.744 3.193-6.329 0-.98-2.548-1.577-3.037-1.577-2.482 0-3.969 3.915-4.629 8.04-1.2 1.512-3.18 4.97-4.495 4.97-1.176 0-.886-2.18-.315-4.064 1.489-3.454 2.404-6.718 2.404-7.031 0-1-1.941-1.915-3.561-1.915-1.281 0-3.508 12.553-6.143 12.553-2.533 0 .277-8.002 2.051-10.035l.174-.392c0-.912-2.699-2.126-3.312-2.126-1.968 0-3.982 6.563-3.63 10.068-.115.215-1.777 3.367-3 3.367-2.213 0 .878-9.835 1.906-10.917l.172-.392c0-.917-2.722-2.126-3.24-2.126-1.003 0-2.049 2.602-2.646 4.519-.456 1.477-.974 3.713-1.148 5.92-.93 1.265-1.916 2.392-2.702 2.392-1.929 0 .88-4.988 1.736-5.847l.216-.436c0-.538-.857-1.054-1.563-1.23.89-1.129.852-2.557.852-2.8 0-1.139-.748-2.552-3.003-2.552-2.474 0-9.38 3.515-9.38 10.987 0 1.06.372 5.6 3.42 5.6 1.429 0 3.104-2.732 3.385-3.224-.135 1.451.082 4.076 2.258 4.076 1.874 0 3.603-1.19 4.99-2.754.637 2.733 2.204 2.788 2.739 2.788 2.026 0 4.045-1.4 5.5-4.183.305 1.322 1.21 4.183 4.337 4.183 1.076 0 2.117-.64 3.09-1.652.684 1.565 1.89 1.618 2.332 1.618 1.21 0 2.93-.353 5.043-2.801a13.49 13.49 0 0 0 1.134-1.567c.038 2.092 2.508 4.523 3.943 4.523Z" fill="#DE0D17"/></svg>