<svg width="201" height="51" viewBox="0 0 201 51" fill="none" xmlns="http://www.w3.org/2000/svg">
<path fill-rule="evenodd" clip-rule="evenodd" d="M36.1903 10.5996C36.7647 9.07922 37.3603 7.84047 37.9765 6.88523C38.5914 5.92998 39.2295 5.32311 39.8881 5.06695C40.5463 4.81177 41.2251 5.02146 41.9253 5.69332C42.1499 5.93624 42.3452 5.95574 42.5137 5.75488C42.6819 5.55255 42.7803 5.24217 42.8085 4.82537C42.8353 4.40821 42.7727 3.9241 42.6182 3.37106C42.4638 2.82048 42.1908 2.29417 41.8005 1.79644C41.4074 1.29871 40.8678 0.874189 40.1813 0.524955C39.4964 0.175231 38.6337 0 37.5976 0C36.7006 0 35.8344 0.424152 34.9935 1.27149C34.1527 2.11894 33.3617 3.25701 32.6192 4.68424C31.8766 6.11146 31.1696 7.75217 30.4987 9.61005C29.8249 11.4679 29.196 13.3929 28.6064 15.3843C28.0195 17.3771 27.4646 19.3757 26.9479 21.3806C26.4284 23.387 25.9464 25.2508 25.4982 26.9735C25.0495 28.6965 24.6436 30.2183 24.2798 31.5364C23.9148 32.8558 23.5796 33.8124 23.2718 34.4033C23.2718 34.1079 23.2299 33.3268 23.1456 32.0612C23.0614 30.7957 22.9632 29.2691 22.8508 27.4775C22.7387 25.6884 22.6121 23.7499 22.4733 21.664C22.3314 19.5781 22.2204 17.5783 22.1376 15.6676C22.1098 14.9946 21.9261 14.3544 21.5904 13.7499C21.2548 13.143 20.8349 12.5983 20.3297 12.1127C19.8258 11.6296 19.2656 11.1919 18.6507 10.8009C18.033 10.4119 17.4308 10.0811 16.8428 9.81129C15.6945 8.70877 14.4963 8.06977 13.251 7.89467C12.0032 7.71907 10.7721 7.8873 9.55363 8.39865C8.33515 8.90999 7.18032 9.73134 6.08701 10.8621C4.99485 11.9928 4.03525 13.312 3.20847 14.8191C2.38322 16.3273 1.72348 17.9767 1.23494 19.7658C0.743337 21.5562 0.5 23.3794 0.5 25.2373C0.5 25.8578 0.66703 26.4548 1.00272 27.0336C1.33943 27.6124 1.77309 28.1522 2.30501 28.6486C2.83706 29.1476 3.42552 29.5843 4.07112 29.9621C4.71519 30.3395 5.33652 30.6351 5.94014 30.8499C6.54134 31.0658 7.08092 31.187 7.55798 31.2139C8.03389 31.241 8.36959 31.1599 8.56595 30.9712C8.8173 30.7283 8.86576 30.5336 8.71278 30.3862C8.55827 30.2391 8.33514 30.0025 8.04041 29.6789C7.7467 29.3562 7.45847 28.8915 7.18033 28.2857C6.89976 27.6798 6.75802 26.7994 6.75802 25.6408C6.75802 24.6182 6.88559 23.4812 7.13847 22.2292C7.38982 20.9775 7.71889 19.7192 8.12475 18.4536C8.5301 17.1883 8.99196 15.9766 9.51138 14.8191C10.0281 13.6627 10.541 12.6657 11.0451 11.8308C11.549 10.9969 12.0249 10.3852 12.4727 9.99376C12.9205 9.60381 13.2853 9.54397 13.5649 9.81129C13.7334 9.97291 13.8597 10.0811 13.9439 10.136C14.5588 10.9698 15.0999 12.1743 15.5617 13.7499C16.0235 15.3231 16.4026 17.0681 16.6959 18.9784C16.9897 20.8903 17.228 22.8622 17.4106 24.8938C17.5929 26.9269 17.7321 28.8043 17.8301 30.5273C17.927 32.25 17.9911 33.7044 18.0189 34.888C18.0471 36.0736 18.0613 36.7862 18.0613 37.0287C18.0613 37.3242 18.2142 37.6604 18.5242 38.0382C18.8319 38.4146 19.2222 38.7911 19.7006 39.1685C20.1751 39.545 20.7011 39.9155 21.275 40.2795C21.8494 40.6427 22.4031 40.965 22.935 41.2482C23.4671 41.5305 23.9355 41.7585 24.3423 41.9337C24.7481 42.1093 25.0212 42.1976 25.1615 42.1976C25.6935 42.1976 26.2179 41.7929 26.7373 40.9847C27.2552 40.178 27.7731 39.0938 28.2913 37.735C28.8104 36.3752 29.3211 34.8069 29.8248 33.0301C30.3301 31.2545 30.8329 29.3757 31.3382 27.3979C31.8419 25.4186 32.3602 23.42 32.8922 21.4015C33.4243 19.382 33.9638 17.458 34.5099 15.6272C35.0561 13.7965 35.6164 12.1201 36.1903 10.5996Z" fill="#5F4A96"/>
<path fill-rule="evenodd" clip-rule="evenodd" d="M61.4196 45.5077C60.4388 46.262 59.4167 46.3294 58.3526 45.71C58.0998 45.4402 58.0796 45.1447 58.2887 44.8211C58.4991 44.4986 58.8781 44.1687 59.4228 43.8315C59.9704 43.4954 60.663 43.1655 61.5039 42.8429C62.3447 42.5193 63.2685 42.2103 64.2764 41.9149C63.3527 43.5555 62.3997 44.7538 61.4196 45.5077ZM40.5806 21.4012C40.9723 20.7817 41.3932 20.2302 41.8413 19.7455C42.2891 19.2613 42.7445 18.8776 43.2062 18.5953C43.6681 18.3121 44.1097 18.1699 44.5296 18.1699C44.9784 18.1699 45.1752 18.3795 45.1188 18.7967C45.0628 19.2148 44.8037 19.7052 44.3408 20.2704C43.88 20.8357 43.233 21.4085 42.4076 21.9872C41.582 22.5659 40.6088 23.0172 39.4883 23.3397C39.824 22.6665 40.1889 22.0202 40.5806 21.4012ZM81.4818 39.6539C81.1591 39.0334 80.7176 38.4348 80.1573 37.856C79.5975 37.2772 78.9187 36.7854 78.1212 36.3822C77.3226 35.9773 76.3899 35.7763 75.3269 35.7763C74.8231 35.7763 74.2973 35.7899 73.7511 35.8167C73.2038 35.8438 72.6513 35.8841 72.0914 35.937C72.1474 35.8303 72.2035 35.6954 72.2596 35.5348C72.3999 35.1841 72.6437 34.5316 72.9945 33.5754C73.3442 32.6199 73.7435 31.5103 74.1912 30.2447C74.6405 28.9791 75.1229 27.66 75.6408 26.2877C76.1602 24.9143 76.6423 23.6352 77.0915 22.4509C77.5392 21.2663 77.9374 20.2645 78.2883 19.4428C78.638 18.6224 78.8828 18.1442 79.0232 18.0093C79.2477 17.7948 79.3039 17.5519 79.1918 17.2821C79.0792 17.0135 78.8343 16.7645 78.4568 16.5355C78.0791 16.3072 77.5957 16.1184 77.0072 15.9699C76.4191 15.8229 75.7746 15.7482 75.0744 15.7482C74.8231 15.7482 74.5486 15.9296 74.2553 16.2939C73.9606 16.6569 73.6592 17.1681 73.3518 17.8278C73.0429 18.4877 72.7214 19.2673 72.3861 20.17C72.049 21.0724 71.6983 22.0619 71.3348 23.1374L70.9149 24.3894C70.6903 24.8468 70.4378 25.3324 70.1597 25.8424C69.8776 26.3551 69.5702 26.8261 69.2345 27.2564C68.899 27.6882 68.5406 28.0438 68.1629 28.3257C67.785 28.609 67.3988 28.7501 67.0071 28.7501C66.559 28.7501 66.258 28.555 66.1036 28.1651C65.9491 27.775 65.9006 27.27 65.9568 26.6505C66.0128 26.0315 66.1673 25.3384 66.4186 24.5709C66.6714 23.8034 66.9724 23.0369 67.3221 22.2691C67.6728 21.5016 68.0505 20.7758 68.4577 20.089C68.8631 19.4022 69.2627 18.8443 69.6544 18.4129C69.9058 18.1171 69.9196 17.8007 69.6964 17.465C69.4718 17.1275 69.1568 16.8174 68.751 16.5355C68.3452 16.2532 67.9177 16.0165 67.469 15.8292C67.0207 15.6416 66.7134 15.5459 66.5448 15.5459C66.2363 15.5459 65.8724 15.7617 65.4529 16.1921C65.032 16.6238 64.5979 17.2085 64.1502 17.9481C63.7025 18.6899 63.2685 19.5297 62.8474 20.4717C62.4275 21.4147 62.05 22.3908 61.7133 23.3999C61.3776 24.409 61.1045 25.4256 60.8942 26.4497C60.8583 26.62 60.8441 26.7744 60.8149 26.9411L60.7473 27.0332C60.3277 27.6131 59.9078 28.1514 59.4869 28.6493C59.067 29.1474 58.6536 29.5582 58.2477 29.8804C57.8408 30.2044 57.4568 30.3649 57.0919 30.3649C56.8673 30.3649 56.7909 30.1773 56.8611 29.8008C56.9313 29.4257 57.0777 28.9364 57.3024 28.332C57.527 27.7274 57.8 27.0357 58.1215 26.2571C58.443 25.4785 58.7581 24.6922 59.067 23.9001C59.3743 23.1079 59.6333 22.3292 59.8453 21.5642C60.0546 20.7991 60.1603 20.1345 60.1603 19.5703C60.1603 19.0333 60.0607 18.5294 59.8659 18.0584C59.6692 17.5887 59.4243 17.1852 59.131 16.8504C58.8361 16.5146 58.5132 16.2532 58.1635 16.0645C57.8126 15.8769 57.485 15.7823 57.1761 15.7823C56.9515 15.7823 56.5255 15.9442 55.8951 16.2668C55.2647 16.5894 54.5847 16.9377 53.8575 17.3127C53.9407 16.9915 54.0184 16.6088 54.0886 16.1649C54.1587 15.7225 54.1522 15.2994 54.0679 14.897C53.9837 14.4938 53.7938 14.1517 53.5001 13.8694C53.2068 13.5876 52.7222 13.4465 52.0509 13.4465C51.0136 13.4465 50.1601 13.736 49.4877 14.3148C48.815 14.8934 48.3673 15.6134 48.1426 16.4754C47.8341 17.5248 47.8621 18.3858 48.227 19.0591C48.5909 19.7321 49.1228 20.2165 49.8245 20.5121C49.4313 21.4012 48.9962 22.2826 48.5217 23.1583C48.0447 24.0325 47.5965 24.793 47.177 25.4392L47.0992 25.6134C46.784 26.0524 46.4407 26.5071 46.0428 26.994C45.3701 27.8157 44.5715 28.5686 43.6478 29.255C42.7242 29.942 41.6587 30.284 40.4554 30.284C39.5574 30.284 38.9552 29.9822 38.6478 29.3754C38.339 28.7709 38.242 28.0229 38.3541 27.1351C39.1389 27.1351 40.0203 26.9203 41.0005 26.4889C41.9816 26.0582 42.9194 25.5139 43.8163 24.8528C44.7119 24.1945 45.4892 23.46 46.1484 22.6532C46.8045 21.845 47.2048 21.065 47.3452 20.3111C47.6247 18.9374 47.4295 17.8352 46.7571 16.9989C46.0847 16.1649 45.0066 15.7482 43.5216 15.7482C42.5137 15.7482 41.3997 16.0707 40.1812 16.717C38.9627 17.3632 37.8221 18.2509 36.7566 19.3816C35.6926 20.5121 34.797 21.8387 34.0683 23.3595C33.3398 24.8799 32.9764 26.5171 32.9764 28.2655C32.9764 29.5311 33.1577 30.6212 33.5226 31.536C33.8861 32.452 34.3413 33.2062 34.8875 33.7972C35.4336 34.3908 36.0297 34.8347 36.6728 35.1302C37.3168 35.4266 37.9204 35.5886 38.4803 35.6143C39.6568 35.6425 40.8041 35.3728 41.9252 34.8062C43.0442 34.2424 44.0815 33.5153 45.0348 32.6261C45.9864 31.7383 46.8197 30.7768 47.5344 29.7397C47.6874 29.5176 47.801 29.3115 47.9388 29.097C48.2078 28.6628 48.5499 28.1514 48.9836 27.5397C49.4595 26.8664 49.9495 26.1319 50.4534 25.3384C50.9586 24.5452 51.4411 23.7297 51.9041 22.8959C52.366 22.0619 52.7359 21.2663 53.0179 20.5121C54.026 20.1637 54.9483 19.6107 55.7891 18.8577C55.9294 18.723 55.9294 18.8639 55.7891 19.2808C55.6488 19.6989 55.4332 20.2778 55.1385 21.0174C54.8437 21.7578 54.5081 22.599 54.1305 23.541C53.7515 24.484 53.388 25.4135 53.0382 26.328C52.6875 27.2429 52.3725 28.084 52.0928 28.8519C51.8122 29.618 51.6441 30.1908 51.5876 30.5672C51.4473 31.2406 51.427 31.8804 51.525 32.485C51.6234 33.0922 51.8122 33.6231 52.0928 34.0804C52.3725 34.5389 52.7359 34.9021 53.1851 35.1704C53.6328 35.4402 54.1522 35.574 54.7392 35.574C55.9424 35.5469 57.056 35.1952 58.0795 34.5156C59.1013 33.8374 59.9765 33.0786 60.7053 32.2375C60.8047 32.1284 60.8926 31.9969 60.991 31.8844C61.0905 32.1686 61.2116 32.4433 61.3559 32.7071C61.6508 33.2466 62.0435 33.6904 62.5336 34.0401C63.0236 34.3908 63.6602 34.5514 64.445 34.5243C65.1441 34.4715 65.8241 34.2167 66.4826 33.7568C67.1394 33.3004 67.7495 32.761 68.3094 32.143C68.058 32.9497 67.785 33.7443 67.4907 34.5243C67.1958 35.3053 66.896 36.0854 66.5872 36.8665C65.3546 37.189 64.1643 37.5999 63.016 38.0976C61.8677 38.5967 60.838 39.2012 59.928 39.9148C59.0185 40.6285 58.2684 41.4551 57.6799 42.398C57.0919 43.3411 56.7425 44.404 56.63 45.5886C56.574 45.8574 56.5612 46.1 56.588 46.3158V46.3565C56.588 46.8136 56.686 47.3117 56.8814 47.8498C57.0777 48.3882 57.3866 48.886 57.8065 49.3434C58.226 49.8022 58.7736 50.1919 59.4445 50.5144C60.1173 50.8384 60.9577 51 61.9658 51C62.8894 51 63.7162 50.7573 64.445 50.2729C65.1724 49.7886 65.8523 49.1018 66.4826 48.213C67.1126 47.3252 67.729 46.2411 68.3311 44.9619C68.9333 43.6831 69.5561 42.251 70.2006 40.6629C71.3489 40.5009 72.4765 40.3858 73.5829 40.3184C74.6889 40.251 75.7186 40.251 76.6706 40.3184C77.6224 40.3858 78.4771 40.5343 79.2337 40.7633C79.9903 40.9917 80.5784 41.308 80.9983 41.7126C81.4182 42.1161 81.719 42.251 81.9017 42.1161C82.084 41.981 82.1389 41.6917 82.0699 41.2478C81.9997 40.8039 81.8033 40.2719 81.4818 39.6539Z" fill="#5F4A96"/>
<path fill-rule="evenodd" clip-rule="evenodd" d="M97.3201 24.1266C96.9986 23.7367 96.5291 23.4335 95.9142 23.218C95.2686 22.9764 94.4556 22.7814 93.4759 22.6331C92.4961 22.4846 91.4523 22.3692 90.346 22.2896C89.24 22.2085 88.1196 22.1755 86.9854 22.1877C85.8512 22.2026 84.8139 22.2551 83.8761 22.3497C82.9371 22.4442 82.1458 22.5999 81.5018 22.8144C80.8587 23.0304 80.4655 23.2854 80.3252 23.5809C80.2424 23.7977 80.1924 24.113 80.1788 24.5298C80.1646 24.9479 80.1989 25.3651 80.2833 25.7819C80.3675 26.2001 80.4862 26.5434 80.6406 26.8118C80.7947 27.0818 80.999 27.176 81.2504 27.0951C81.7809 26.9064 82.4955 26.7715 83.3925 26.6904C84.2894 26.6095 85.2556 26.5765 86.2914 26.59C87.3275 26.6036 88.3991 26.6574 89.5055 26.7506C90.6115 26.8452 91.6335 26.9665 92.5739 27.1148C93.5117 27.2633 94.3308 27.4375 95.031 27.6398C95.7316 27.8406 96.2076 28.0506 96.4589 28.2662C96.6543 28.4539 96.8723 28.4945 97.1111 28.3865C97.3484 28.2797 97.5447 28.0701 97.6991 27.7611C97.8521 27.4521 97.9646 27.0877 98.0348 26.6696C98.105 26.2539 98.0843 25.8225 97.9707 25.3784C97.8586 24.9345 97.6417 24.5163 97.3201 24.1266Z" fill="#5F4A96"/>
<path fill-rule="evenodd" clip-rule="evenodd" d="M116.794 37.0078C116.01 37.3979 115.289 37.7215 114.63 37.9777C113.973 38.2328 113.397 38.4341 112.908 38.5824C112.418 38.7306 112.074 38.8056 111.879 38.8056C111.29 38.8056 110.961 38.7247 110.892 38.5627C110.822 38.4007 110.926 38.1997 111.207 37.9568C111.486 37.7153 111.922 37.4518 112.509 37.1698C113.098 36.8866 113.755 36.6314 114.484 36.4021C115.212 36.174 115.981 35.9925 116.794 35.8576C117.607 35.7228 118.404 35.67 119.189 35.6958C118.376 36.1802 117.579 36.6179 116.794 37.0078ZM122.971 17.1205C121.933 17.7128 120.919 18.2783 119.925 18.8164C118.93 19.356 118.055 19.8526 117.298 20.3114C116.822 20.5797 116.543 20.6413 116.459 20.4929C116.374 20.3455 116.402 20.0685 116.543 19.6639C116.682 19.2617 116.906 18.7834 117.214 18.2317C117.523 17.6798 117.83 17.1355 118.139 16.5957C118.446 16.0843 118.902 15.4921 119.504 14.8191C120.106 14.1458 120.785 13.4665 121.542 12.7797C122.3 12.0929 123.089 11.4617 123.916 10.8815C124.742 10.3038 125.54 9.85256 126.311 9.52896C127.082 9.20646 127.781 9.06532 128.412 9.10603C129.041 9.14625 129.525 9.44804 129.86 10.0146C130.169 10.5259 130.177 11.0776 129.882 11.6699C129.587 12.2621 129.098 12.8607 128.412 13.4665C127.725 14.0721 126.905 14.6852 125.954 15.3032C125.001 15.9237 124.005 16.5282 122.971 17.1205ZM129.756 22.7735C129.154 22.2364 128.453 21.8516 127.655 21.6233C126.857 21.3952 126.024 21.2802 125.155 21.2802C126.248 20.553 127.333 19.7595 128.412 18.8975C129.489 18.0368 130.45 17.1414 131.289 16.2119C132.129 15.2838 132.809 14.3418 133.327 13.3866C133.846 12.4315 134.104 11.4946 134.104 10.5788C134.104 9.12541 133.768 8.08335 133.096 7.44938C132.424 6.81774 131.577 6.46705 130.554 6.3996C129.531 6.33326 128.417 6.48053 127.214 6.84485C126.01 7.20782 124.868 7.67844 123.79 8.25747C122.712 8.83626 121.773 9.44179 120.975 10.0748C120.4 10.5308 119.994 10.9403 119.745 11.3046C119.906 11.0115 120.066 10.7233 120.24 10.3973C120.492 9.92628 120.771 9.42228 121.08 8.88384C121.248 8.61407 121.206 8.32493 120.953 8.01591C120.702 7.70555 120.365 7.41626 119.946 7.14625C119.525 6.87892 119.091 6.66311 118.643 6.50002C118.194 6.33951 117.859 6.25845 117.635 6.25845C114.162 6.25845 111.171 6.46079 108.665 6.86435C106.157 7.2679 104.085 7.82682 102.447 8.53939C100.807 9.25441 99.5962 10.1091 98.8118 11.1047C98.0284 12.1005 97.6352 13.1905 97.6352 14.3752C97.6352 15.3168 97.9022 16.1984 98.4341 17.0201C98.9661 17.8418 99.5477 18.4939 100.178 18.9784C100.807 19.4626 101.389 19.7042 101.921 19.7042C102.453 19.7042 102.72 19.356 102.72 18.6548C102.72 18.0906 102.741 17.4983 102.782 16.8789C102.824 16.2598 102.951 15.6404 103.16 15.0213C103.37 14.4019 103.721 13.8038 104.211 13.2236C104.701 12.6459 105.388 12.1138 106.269 11.6295C107.152 11.145 108.28 10.7271 109.652 10.3775C111.023 10.0282 112.705 9.77163 114.694 9.61001C114.106 10.8752 113.524 12.3495 112.95 14.0317C112.376 15.7155 111.78 17.4174 111.165 19.1404C110.549 20.8631 109.904 22.5051 109.232 24.0662C108.559 25.6283 107.837 26.8998 107.068 27.8821C106.297 28.8643 105.477 29.4566 104.609 29.659C103.742 29.8613 102.804 29.4776 101.796 28.5074C101.543 28.2658 101.326 28.245 101.144 28.4473C100.96 28.6485 100.849 28.9794 100.807 29.4369C100.766 29.8943 100.829 30.4265 100.996 31.0323C101.164 31.6368 101.466 32.2097 101.901 32.7478C102.334 33.2862 102.922 33.7447 103.665 34.12C104.406 34.4975 105.338 34.6867 106.458 34.6867C107.523 34.6867 108.455 34.4107 109.252 33.8576C110.051 33.307 110.766 32.5454 111.396 31.5767C112.026 30.6079 112.599 29.464 113.118 28.1446C113.636 26.8265 114.176 25.3856 114.735 23.8231C115.044 24.2011 115.387 24.5518 115.764 24.874C116.143 25.1965 116.569 25.3585 117.047 25.3585C117.242 25.3585 117.593 25.2713 118.097 25.0961C118.601 24.9209 119.189 24.6585 119.861 24.3087C120.422 24.12 121.059 23.9445 121.773 23.7839C122.488 23.6223 123.159 23.5889 123.79 23.6821C124.42 23.778 124.946 24.0662 125.365 24.5518C125.787 25.0349 125.996 25.8024 125.996 26.8521C125.996 27.9301 125.745 28.9318 125.239 29.8613C124.735 30.7893 124.063 31.6712 123.223 32.5062C122.662 32.3713 122.047 32.2709 121.375 32.2034C120.702 32.136 119.96 32.1015 119.147 32.1015C117.214 32.1015 115.54 32.3518 114.126 32.8485C112.711 33.3474 111.535 33.9594 110.597 34.6867C109.659 35.4124 108.959 36.1935 108.497 37.0287C108.034 37.8626 107.803 38.6165 107.803 39.2899C107.803 39.8011 107.921 40.2857 108.16 40.7428C108.399 41.2002 108.728 41.5975 109.147 41.9337C109.569 42.2709 110.057 42.5405 110.619 42.7419C111.179 42.9441 111.78 43.0446 112.425 43.0446C113.433 43.0446 114.511 42.9035 115.66 42.6201C116.808 42.3383 117.972 41.9473 119.147 41.4492C120.325 40.9513 121.493 40.3531 122.655 39.6527C123.817 38.9526 124.904 38.1997 125.912 37.3916C126.442 37.7152 126.857 37.9975 127.15 38.2391C127.445 38.4816 127.704 38.6029 127.929 38.6029C128.04 38.6029 128.144 38.5146 128.244 38.3409C128.341 38.1654 128.405 37.9373 128.433 37.6541C128.46 37.3708 128.433 37.0482 128.349 36.6853C128.264 36.321 128.111 35.9519 127.887 35.5744C129.035 34.3898 129.959 33.1721 130.659 31.9201C131.36 30.668 131.711 29.4102 131.711 28.1446C131.711 26.8521 131.535 25.7695 131.185 24.8938C130.834 24.0196 130.358 23.3133 129.756 22.7735Z" fill="#5F4A96"/>
<path fill-rule="evenodd" clip-rule="evenodd" d="M176.202 45.5077C175.222 46.262 174.2 46.3294 173.135 45.71C172.883 45.4402 172.863 45.1447 173.072 44.8211C173.281 44.4986 173.66 44.1687 174.207 43.8315C174.754 43.4954 175.445 43.1655 176.286 42.8429C177.127 42.5193 178.051 42.2103 179.059 41.9149C178.135 43.5555 177.183 44.7538 176.202 45.5077ZM139.734 21.4012C140.126 20.7817 140.547 20.2302 140.994 19.7455C141.443 19.2613 141.898 18.8776 142.36 18.5953C142.823 18.3121 143.263 18.1699 143.683 18.1699C144.131 18.1699 144.328 18.3795 144.271 18.7967C144.215 19.2148 143.958 19.7052 143.494 20.2704C143.032 20.8357 142.387 21.4085 141.563 21.9872C140.736 22.5659 139.761 23.0172 138.641 23.3397C138.978 22.6665 139.341 22.0202 139.734 21.4012ZM196.264 39.6539C195.943 39.0334 195.501 38.4348 194.941 37.856C194.381 37.2772 193.701 36.7854 192.903 36.3822C192.106 35.9773 191.173 35.7763 190.109 35.7763C189.605 35.7763 189.079 35.7899 188.533 35.8167C187.987 35.8438 187.435 35.8841 186.875 35.937C186.93 35.8303 186.986 35.6954 187.042 35.5348C187.182 35.1841 187.427 34.5316 187.778 33.5754C188.127 32.6199 188.527 31.5103 188.975 30.2447C189.423 28.9791 189.906 27.66 190.424 26.2877C190.942 24.9143 191.426 23.6352 191.874 22.4509C192.322 21.2663 192.721 20.2645 193.072 19.4428C193.421 18.6224 193.666 18.1442 193.807 18.0093C194.03 17.7948 194.086 17.5519 193.974 17.2821C193.862 17.0135 193.618 16.7645 193.24 16.5355C192.861 16.3072 192.378 16.1184 191.789 15.9699C191.203 15.8229 190.557 15.7482 189.858 15.7482C189.605 15.7482 189.332 15.9296 189.039 16.2939C188.744 16.6569 188.443 17.1681 188.134 17.8278C187.825 18.4877 187.505 19.2673 187.168 20.17C186.831 21.0724 186.482 22.0619 186.118 23.1374L185.697 24.3894C185.473 24.8468 185.221 25.3324 184.941 25.8424C184.661 26.3551 184.354 26.8261 184.018 27.2564C183.681 27.6882 183.324 28.0438 182.946 28.3257C182.567 28.609 182.182 28.7501 181.79 28.7501C181.341 28.7501 181.04 28.555 180.887 28.1651C180.733 27.775 180.684 27.27 180.74 26.6505C180.795 26.0315 180.951 25.3384 181.202 24.5709C181.453 23.8034 181.756 23.0369 182.105 22.2691C182.455 21.5016 182.834 20.7758 183.24 20.089C183.645 19.4022 184.045 18.8443 184.438 18.4129C184.689 18.1171 184.703 17.8007 184.479 17.465C184.254 17.1275 183.94 16.8174 183.533 16.5355C183.128 16.2532 182.701 16.0165 182.252 15.8292C181.804 15.6416 181.496 15.5459 181.329 15.5459C181.02 15.5459 180.656 15.7617 180.235 16.1921C179.815 16.6238 179.381 17.2085 178.932 17.9481C178.486 18.6899 178.051 19.5297 177.631 20.4717C177.211 21.4147 176.832 22.3908 176.497 23.3999C176.161 24.409 175.888 25.4256 175.678 26.4497C175.551 27.0628 175.476 27.6378 175.425 28.1933C175.301 28.3833 175.196 28.5537 175.068 28.7501C174.592 29.4773 174.115 30.1637 173.64 30.8099C173.163 31.455 172.701 31.9886 172.253 32.4043C171.805 32.8221 171.398 33.0307 171.035 33.0307C170.782 33.0307 170.699 32.7818 170.782 32.2851C170.866 31.7887 171.041 31.1373 171.307 30.3306C171.573 29.5248 171.896 28.6187 172.273 27.6107C172.652 26.6041 173.016 25.6033 173.366 24.6088C173.716 23.6143 174.01 22.6741 174.249 21.7887C174.486 20.9007 174.606 20.1627 174.606 19.5714C174.606 19.0076 174.508 18.4974 174.311 18.04C174.115 17.5825 173.871 17.1876 173.577 16.8519C173.281 16.5157 172.96 16.2532 172.61 16.0656C172.259 15.8782 171.93 15.7837 171.623 15.7837C171.398 15.7837 170.971 15.9457 170.342 16.2668C169.71 16.5904 169.031 16.9377 168.303 17.3151C168.387 16.9926 168.471 16.6103 168.556 16.1664C168.64 15.7225 168.64 15.3005 168.556 14.897C168.471 14.4938 168.282 14.1517 167.989 13.8694C167.694 13.5876 167.211 13.4465 166.538 13.4465C165.474 13.4465 164.607 13.736 163.934 14.3148C163.262 14.8934 162.813 15.6134 162.589 16.4754C162.31 17.498 162.345 18.3528 162.694 19.0392C163.045 19.726 163.569 20.2165 164.27 20.5121C164.073 20.9166 163.814 21.4414 163.493 22.0877C163.171 22.7328 162.805 23.4207 162.401 24.1479C161.995 24.8737 161.554 25.6143 161.078 26.3686C160.6 27.1215 160.104 27.7948 159.586 28.3871C159.067 28.9791 158.556 29.4637 158.051 29.8412C157.548 30.2177 157.043 30.4053 156.539 30.4053C156.315 30.4053 156.238 30.2177 156.308 29.8412C156.378 29.4637 156.525 28.9718 156.75 28.3663C156.973 27.7615 157.246 27.0736 157.569 26.3072C157.89 25.5397 158.206 24.7523 158.514 23.9455C158.823 23.1374 159.081 22.3574 159.291 21.6021C159.502 20.8491 159.606 20.1762 159.606 19.5839C159.606 19.0184 159.508 18.507 159.313 18.0497C159.117 17.5923 158.871 17.195 158.578 16.8577C158.283 16.522 157.953 16.2596 157.59 16.0707C157.225 15.8831 156.889 15.7886 156.581 15.7886C156.358 15.7886 155.931 15.9491 155.3 16.2731C154.67 16.5967 153.991 16.946 153.263 17.3225C153.374 16.9989 153.472 16.6162 153.556 16.1713C153.64 15.7274 153.64 15.3043 153.556 14.8994C153.472 14.4961 153.277 14.1528 152.968 13.8694C152.66 13.5876 152.17 13.4465 151.497 13.4465C150.462 13.4465 149.607 13.736 148.935 14.3148C148.262 14.8934 147.813 15.6134 147.59 16.4754C147.281 17.498 147.309 18.3528 147.674 19.0392C148.038 19.726 148.571 20.2165 149.27 20.5121C148.877 21.428 148.437 22.3637 147.947 23.3188C147.868 23.4736 147.792 23.6132 147.715 23.7568C147.485 23.8684 147.2 24.1871 146.855 24.7329C146.421 25.4194 145.868 26.1723 145.196 26.994C144.524 27.8157 143.725 28.5686 142.802 29.255C141.877 29.942 140.812 30.284 139.608 30.284C138.711 30.284 138.11 29.9822 137.801 29.3754C137.493 28.7709 137.394 28.0229 137.507 27.1351C138.291 27.1351 139.174 26.9203 140.154 26.4889C141.134 26.0582 142.072 25.5139 142.969 24.8528C143.866 24.1945 144.643 23.46 145.301 22.6532C145.959 21.845 146.359 21.065 146.499 20.3111C146.777 18.9374 146.583 17.8352 145.91 16.9989C145.239 16.1649 144.159 15.7482 142.675 15.7482C141.667 15.7482 140.553 16.0707 139.335 16.717C138.117 17.3632 136.976 18.2509 135.91 19.3816C134.846 20.5121 133.949 21.8387 133.221 23.3595C132.495 24.8799 132.129 26.5171 132.129 28.2655C132.129 29.5311 132.311 30.6212 132.676 31.536C133.038 32.452 133.495 33.2062 134.041 33.7972C134.587 34.3908 135.182 34.8347 135.828 35.1302C136.471 35.4266 137.073 35.5886 137.633 35.6143C138.809 35.6425 139.957 35.3728 141.078 34.8062C142.198 34.2424 143.235 33.5153 144.187 32.6261C145.093 31.7825 145.882 30.8666 146.573 29.888C146.765 29.9357 147.004 29.7654 147.296 29.3556C147.604 28.9252 147.989 28.36 148.451 27.66C148.913 26.9595 149.397 26.213 149.9 25.4194C150.405 24.6248 150.881 23.8034 151.33 22.956C151.778 22.1076 152.155 21.2944 152.464 20.5121C152.94 20.3514 153.416 20.1356 153.893 19.8672C154.369 19.5972 154.817 19.2478 155.238 18.8175C155.377 18.6826 155.377 18.831 155.238 19.2613C155.096 19.6917 154.879 20.2778 154.586 21.0174C154.292 21.7578 153.956 22.6066 153.578 23.5619C153.2 24.517 152.828 25.4538 152.464 26.3686C152.099 27.2835 151.778 28.1247 151.497 28.8922C151.217 29.6597 151.049 30.2312 150.993 30.6076C150.881 31.227 150.852 31.8328 150.91 32.4248C150.965 33.0172 151.125 33.5494 151.392 34.0204C151.659 34.4912 152.022 34.875 152.484 35.1704C152.948 35.4673 153.514 35.6143 154.186 35.6143C155.027 35.6143 155.901 35.319 156.812 34.7267C157.722 34.1343 158.626 33.3741 159.522 32.4446C160.418 31.5162 161.288 30.4727 162.128 29.3153C162.967 28.1577 163.738 27.0211 164.438 25.9025C165.137 24.7868 165.755 23.7492 166.287 22.794C166.819 21.8387 167.211 21.0786 167.463 20.5121C167.939 20.3514 168.415 20.1356 168.892 19.8672C169.368 19.5972 169.816 19.2478 170.237 18.8175C170.376 18.6826 170.334 18.8776 170.111 19.4022C169.885 19.927 169.57 20.6468 169.165 21.5617C168.758 22.4776 168.303 23.5212 167.799 24.6922C167.295 25.8633 166.819 27.0211 166.371 28.1651C165.922 29.309 165.544 30.3858 165.236 31.3949C164.928 32.4043 164.775 33.2062 164.775 33.7972C164.775 34.3637 164.83 34.9143 164.942 35.4538C165.053 35.9922 165.257 36.4705 165.552 36.8862C165.845 37.3043 166.245 37.6338 166.749 37.8755C167.253 38.1184 167.884 38.2387 168.64 38.2387C169.256 38.2387 169.858 38.1111 170.446 37.8522C171.035 37.595 171.609 37.2492 172.169 36.8149C172.729 36.3809 173.267 35.8928 173.787 35.3495C174.305 34.8062 174.788 34.2508 175.236 33.6818C175.518 33.3226 175.796 32.9448 176.072 32.5549L176.139 32.7071C176.434 33.2466 176.826 33.6904 177.316 34.0401C177.806 34.3908 178.443 34.5514 179.227 34.5243C179.926 34.4715 180.606 34.2167 181.265 33.7568C181.923 33.3004 182.531 32.761 183.093 32.143C182.84 32.9497 182.567 33.7443 182.274 34.5243C181.979 35.3053 181.678 36.0854 181.369 36.8665C180.137 37.189 178.946 37.5999 177.798 38.0976C176.65 38.5967 175.621 39.2012 174.71 39.9148C173.801 40.6285 173.052 41.4551 172.464 42.398C171.874 43.3411 171.524 44.404 171.413 45.5886C171.357 45.8574 171.343 46.1 171.371 46.3158V46.3565C171.371 46.8136 171.469 47.3117 171.665 47.8498C171.861 48.3882 172.169 48.886 172.59 49.3434C173.008 49.8022 173.556 50.1919 174.227 50.5144C174.901 50.8384 175.74 51 176.748 51C177.673 51 178.499 50.7573 179.227 50.2729C179.956 49.7886 180.636 49.1018 181.265 48.213C181.896 47.3252 182.511 46.2411 183.115 44.9619C183.716 43.6831 184.338 42.251 184.984 40.6629C186.132 40.5009 187.259 40.3858 188.365 40.3184C189.471 40.251 190.501 40.251 191.454 40.3184C192.406 40.3858 193.26 40.5343 194.016 40.7633C194.774 40.9917 195.361 41.308 195.782 41.7126C196.201 42.1161 196.503 42.251 196.685 42.1161C196.866 41.981 196.922 41.6917 196.854 41.2478C196.782 40.8039 196.587 40.2719 196.264 39.6539Z" fill="#5F4A96"/>
<path fill-rule="evenodd" clip-rule="evenodd" d="M200.269 16.1997L200.207 16.0624L200.05 16.0082H199.861L199.724 16.0586L199.651 16.1789L199.368 17.6196H199.316L199.032 16.1789L198.959 16.0586L198.822 16.0082H198.635L198.476 16.0624L198.414 16.1997L198.183 19.2016L198.235 19.3681L198.402 19.4345H198.476L198.628 19.3744L198.697 19.2321L198.791 17.318H198.844L199.115 18.5578L199.2 18.6791L199.336 18.7292L199.483 18.6791L199.567 18.5578L199.839 17.318H199.891L199.987 19.2321L200.055 19.3744L200.207 19.4345H200.28L200.448 19.3681L200.5 19.2016L200.269 16.1997Z" fill="#5F4A96"/>
<path fill-rule="evenodd" clip-rule="evenodd" d="M197.943 16.0082H196.809L196.653 16.068L196.589 16.2189V16.2998L196.653 16.4521L196.809 16.5122H196.894L197.051 16.572L197.113 16.7229V19.2232L197.177 19.374L197.334 19.4341H197.418L197.575 19.374L197.637 19.2232V16.7229L197.701 16.572L197.858 16.5122H197.943L198.099 16.4521L198.162 16.2998V16.2189L198.099 16.068L197.943 16.0082Z" fill="#5F4A96"/>
</svg>
