<svg width="172" height="45" viewBox="0 0 172 45" fill="none" xmlns="http://www.w3.org/2000/svg">
<path fill-rule="evenodd" clip-rule="evenodd" d="M30.6936 9.14674C31.1876 7.835 31.6998 6.76628 32.2298 5.94215C32.7586 5.11802 33.3073 4.59444 33.8737 4.37344C34.4398 4.15328 35.0236 4.33419 35.6258 4.91384C35.8189 5.12341 35.9868 5.14024 36.1318 4.96695C36.2764 4.79239 36.361 4.52461 36.3853 4.16502C36.4083 3.80511 36.3546 3.38745 36.2217 2.91032C36.0889 2.43531 35.8541 1.98124 35.5184 1.55182C35.1804 1.12241 34.7163 0.756155 34.1259 0.454856C33.5369 0.153133 32.795 0.00195312 31.9039 0.00195312C31.1326 0.00195312 30.3876 0.367888 29.6644 1.09892C28.9413 1.83006 28.261 2.81192 27.6225 4.04325C26.9839 5.27459 26.3759 6.6901 25.7988 8.29298C25.2194 9.89585 24.6785 11.5566 24.1715 13.2747C23.6667 14.9939 23.1896 16.7183 22.7452 18.448C22.2985 20.179 21.8839 21.7869 21.4984 23.2732C21.1125 24.7597 20.7635 26.0726 20.4507 27.2098C20.1367 28.3481 19.8485 29.1735 19.5837 29.6833C19.5837 29.4284 19.5477 28.7545 19.4752 27.6626C19.4028 26.5708 19.3184 25.2537 19.2217 23.708C19.1252 22.1645 19.0164 20.492 18.897 18.6925C18.775 16.8928 18.6796 15.1676 18.6083 13.5191C18.5844 12.9385 18.4264 12.3861 18.1377 11.8646C17.8491 11.341 17.488 10.8711 17.0535 10.4521C16.6202 10.0353 16.1384 9.65771 15.6096 9.32034C15.0784 8.98476 14.5605 8.69934 14.0548 8.46659C13.0672 7.5154 12.0368 6.96411 10.9659 6.81304C9.89275 6.66154 8.83401 6.80668 7.78612 7.24784C6.73823 7.689 5.74508 8.39762 4.80483 9.37314C3.86557 10.3487 3.04031 11.4868 2.32928 12.7871C1.61957 14.0882 1.05219 15.5113 0.632047 17.0548C0.20927 18.5995 0 20.1724 0 21.7753C0 22.3106 0.143646 22.8257 0.432337 23.3251C0.721906 23.8244 1.09486 24.2901 1.55231 24.7184C2.00987 25.1489 2.51595 25.5257 3.07116 25.8516C3.62506 26.1772 4.1594 26.4322 4.67852 26.6176C5.19555 26.8038 5.65959 26.9084 6.06986 26.9316C6.47914 26.9549 6.76784 26.885 6.93671 26.7222C7.15287 26.5126 7.19455 26.3446 7.06299 26.2175C6.93011 26.0906 6.73822 25.8864 6.48475 25.6072C6.23216 25.3289 5.98429 24.9279 5.74508 24.4053C5.50379 23.8826 5.38189 23.123 5.38189 22.1235C5.38189 21.2411 5.49161 20.2602 5.70908 19.1801C5.92525 18.1001 6.20824 17.0146 6.55728 15.9227C6.90589 14.8311 7.30309 13.7857 7.74978 12.7871C8.19418 11.7893 8.63527 10.9292 9.0688 10.2089C9.50211 9.48951 9.91142 8.96171 10.2966 8.62402C10.6816 8.28759 10.9954 8.23596 11.2358 8.46659C11.3808 8.60603 11.4894 8.69934 11.5618 8.74673C12.0906 9.46613 12.5559 10.5052 12.953 11.8646C13.3502 13.2219 13.6762 14.7273 13.9285 16.3755C14.1811 18.0249 14.3861 19.7262 14.5431 21.479C14.6999 23.233 14.8196 24.8527 14.9039 26.3392C14.9872 27.8255 15.0423 29.0802 15.0663 30.1014C15.0905 31.1243 15.1027 31.739 15.1027 31.9483C15.1027 32.2033 15.2342 32.4933 15.5008 32.8192C15.7654 33.144 16.1011 33.4688 16.5126 33.7944C16.9206 34.1192 17.3729 34.4389 17.8665 34.7529C18.3605 35.0662 18.8367 35.3443 19.2941 35.5887C19.7517 35.8322 20.1545 36.0289 20.5044 36.18C20.8533 36.3315 21.0883 36.4077 21.2089 36.4077C21.6664 36.4077 22.1174 36.0586 22.5641 35.3613C23.0095 34.6653 23.4548 33.73 23.9006 32.5577C24.3469 31.3845 24.7862 30.0314 25.2194 28.4985C25.6539 26.9666 26.0863 25.3457 26.5208 23.6394C26.954 21.9318 27.3998 20.2075 27.8573 18.466C28.3149 16.7237 28.7789 15.0638 29.2485 13.4843C29.7183 11.9048 30.2001 10.4585 30.6936 9.14674Z" fill="white"/>
<path fill-rule="evenodd" clip-rule="evenodd" d="M52.3908 39.2635C51.5474 39.9142 50.6683 39.9724 49.7532 39.438C49.5358 39.2053 49.5184 38.9503 49.6983 38.6711C49.8792 38.3929 50.2052 38.1083 50.6736 37.8174C51.1446 37.5274 51.7402 37.2428 52.4634 36.9645C53.1865 36.6853 53.9809 36.4187 54.8477 36.1638C54.0533 37.5793 53.2337 38.6131 52.3908 39.2635ZM34.4693 18.4657C34.8061 17.9313 35.1681 17.4554 35.5535 17.0373C35.9386 16.6195 36.3302 16.2885 36.7273 16.045C37.1246 15.8006 37.5043 15.678 37.8654 15.678C38.2514 15.678 38.4206 15.8588 38.3721 16.2187C38.324 16.5794 38.1012 17.0025 37.7031 17.4901C37.3068 17.9778 36.7504 18.472 36.0406 18.9713C35.3305 19.4706 34.4935 19.8599 33.5299 20.1381C33.8186 19.5573 34.1324 18.9998 34.4693 18.4657ZM69.6444 34.2131C69.3669 33.6778 68.9871 33.1614 68.5053 32.6621C68.0238 32.1627 67.4401 31.7384 66.7542 31.3905C66.0674 31.0412 65.2653 30.8678 64.3512 30.8678C63.9179 30.8678 63.4657 30.8796 62.9959 30.9026C62.5253 30.926 62.0501 30.9608 61.5686 31.0064C61.6168 30.9144 61.665 30.798 61.7132 30.6594C61.8339 30.3568 62.0436 29.7939 62.3452 28.9689C62.646 28.1446 62.9894 27.1873 63.3745 26.0955C63.7608 25.0036 64.1757 23.8654 64.6211 22.6815C65.0678 21.4966 65.4823 20.3931 65.8687 19.3713C66.2537 18.3494 66.5962 17.485 66.8979 16.7761C67.1987 16.0684 67.4092 15.6558 67.5299 15.5394C67.723 15.3544 67.7714 15.1448 67.6749 14.912C67.5781 14.6802 67.3675 14.4655 67.0428 14.2679C66.718 14.0709 66.3023 13.9081 65.7962 13.7799C65.2904 13.6531 64.7362 13.5887 64.134 13.5887C63.9178 13.5887 63.6818 13.7451 63.4296 14.0594C63.1761 14.3726 62.9169 14.8136 62.6526 15.3828C62.3869 15.9521 62.1104 16.6247 61.822 17.4035C61.5321 18.182 61.2305 19.0358 60.9179 19.9637L60.5568 21.0438C60.3637 21.4384 60.1465 21.8574 59.9073 22.2974C59.6647 22.7397 59.4004 23.1461 59.1117 23.5173C58.8231 23.8898 58.5149 24.1966 58.1901 24.4398C57.8651 24.6842 57.533 24.806 57.1961 24.806C56.8107 24.806 56.5519 24.6376 56.4191 24.3012C56.2862 23.9647 56.2445 23.529 56.2928 22.9945C56.341 22.4605 56.4739 21.8626 56.69 21.2004C56.9074 20.5382 57.1662 19.8769 57.467 19.2146C57.7686 18.5524 58.0934 17.9262 58.4436 17.3337C58.7923 16.7411 59.1359 16.2597 59.4728 15.8876C59.689 15.6324 59.7008 15.3594 59.5089 15.0698C59.3158 14.7786 59.0449 14.5111 58.6958 14.2679C58.3469 14.0243 57.9792 13.8201 57.5933 13.6585C57.2078 13.4966 56.9435 13.4141 56.7985 13.4141C56.5332 13.4141 56.2203 13.6003 55.8595 13.9716C55.4975 14.344 55.1242 14.8485 54.7392 15.4866C54.3542 16.1266 53.9809 16.8511 53.6188 17.6638C53.2577 18.4774 52.933 19.3195 52.6434 20.1901C52.3547 21.0607 52.1199 21.9378 51.939 22.8213C51.9081 22.9682 51.896 23.1014 51.8708 23.2453L51.8127 23.3247C51.4518 23.825 51.0907 24.2895 50.7287 24.719C50.3676 25.1487 50.0121 25.5031 49.663 25.7812C49.3131 26.0607 48.9828 26.1992 48.669 26.1992C48.4759 26.1992 48.4102 26.0373 48.4705 25.7125C48.5309 25.3889 48.6568 24.9667 48.8501 24.4452C49.0432 23.9236 49.278 23.3268 49.5545 22.6552C49.831 21.9834 50.1019 21.305 50.3676 20.6216C50.6319 19.9382 50.8547 19.2664 51.0369 18.6064C51.217 17.9463 51.3078 17.3729 51.3078 16.8861C51.3078 16.4229 51.2222 15.9881 51.0547 15.5817C50.8855 15.1765 50.6749 14.8284 50.4227 14.5395C50.1691 14.2499 49.8914 14.0243 49.5906 13.8615C49.2889 13.6997 49.0071 13.6181 48.7414 13.6181C48.5483 13.6181 48.1819 13.7577 47.6398 14.0361C47.0976 14.3144 46.5129 14.6149 45.8874 14.9384C45.959 14.6613 46.0258 14.3311 46.0862 13.9482C46.1465 13.5665 46.1409 13.2015 46.0684 12.8543C45.996 12.5064 45.8327 12.2112 45.5801 11.9677C45.3278 11.7246 44.9111 11.6028 44.3338 11.6028C43.4417 11.6028 42.7077 11.8526 42.1294 12.3519C41.5509 12.8512 41.1659 13.4723 40.9727 14.216C40.7073 15.1214 40.7314 15.8642 41.0452 16.4451C41.3581 17.0257 41.8156 17.4437 42.4191 17.6986C42.0809 18.4658 41.7068 19.2262 41.2987 19.9817C40.8884 20.7359 40.503 21.392 40.1422 21.9495L40.0753 22.0998C39.8042 22.4785 39.509 22.8708 39.1668 23.2909C38.5883 23.9998 37.9015 24.6494 37.1071 25.2416C36.3128 25.8342 35.3965 26.1293 34.3616 26.1293C33.5894 26.1293 33.0715 25.869 32.8071 25.3454C32.5415 24.8239 32.4581 24.1786 32.5545 23.4126C33.2295 23.4126 33.9875 23.2273 34.8304 22.8551C35.6742 22.4836 36.4807 22.0139 37.252 21.4436C38.0222 20.8756 38.6907 20.2419 39.2576 19.5459C39.8219 18.8486 40.1662 18.1757 40.2869 17.5252C40.5273 16.3401 40.3594 15.3892 39.7811 14.6677C39.2029 13.9482 38.2757 13.5887 36.9986 13.5887C36.1317 13.5887 35.1737 13.8669 34.1258 14.4244C33.0779 14.982 32.097 15.7478 31.1807 16.7233C30.2657 17.6986 29.4955 18.8432 28.8687 20.1553C28.2423 21.467 27.9297 22.8795 27.9297 24.3879C27.9297 25.4798 28.0856 26.4202 28.3994 27.2095C28.712 27.9997 29.1035 28.6505 29.5733 29.1603C30.0429 29.6724 30.5555 30.0554 31.1086 30.3104C31.6625 30.5661 32.1816 30.7058 32.6631 30.728C33.6748 30.7524 34.6615 30.5196 35.6257 30.0309C36.588 29.5444 37.4801 28.9171 38.2999 28.15C39.1183 27.384 39.8349 26.5545 40.4496 25.6597C40.5812 25.4681 40.6788 25.2903 40.7973 25.1053C41.0287 24.7306 41.3229 24.2895 41.6959 23.7617C42.1052 23.1808 42.5266 22.5471 42.9599 21.8626C43.3944 21.1782 43.8093 20.4747 44.2075 19.7553C44.6047 19.0358 44.9228 18.3494 45.1654 17.6986C46.0324 17.3981 46.8255 16.9209 47.5486 16.2714C47.6693 16.1551 47.6693 16.2767 47.5486 16.6364C47.428 16.9971 47.2425 17.4965 46.9891 18.1346C46.7356 18.7734 46.4469 19.4991 46.1223 20.3118C45.7963 21.1254 45.4836 21.9273 45.1829 22.7163C44.8812 23.5056 44.6103 24.2313 44.3698 24.8937C44.1285 25.5547 43.9839 26.0489 43.9353 26.3737C43.8147 26.9546 43.7972 27.5066 43.8815 28.0282C43.9661 28.5521 44.1285 29.0101 44.3698 29.4047C44.6103 29.8003 44.9228 30.1136 45.3092 30.3451C45.6942 30.5778 46.1409 30.6932 46.6457 30.6932C47.6805 30.6699 48.6382 30.3665 49.5184 29.7801C50.3971 29.195 51.1498 28.5404 51.7766 27.8147C51.862 27.7206 51.9376 27.6072 52.0222 27.51C52.1078 27.7553 52.212 27.9923 52.3361 28.2198C52.5897 28.6853 52.9274 29.0682 53.3489 29.3699C53.7703 29.6725 54.3178 29.811 54.9927 29.7877C55.5939 29.7421 56.1787 29.5222 56.745 29.1255C57.3099 28.7317 57.8346 28.2663 58.3161 27.7331C58.0999 28.4292 57.8651 29.1147 57.612 29.7877C57.3584 30.4615 57.1005 31.1344 56.835 31.8083C55.7749 32.0866 54.7513 32.4411 53.7637 32.8705C52.7762 33.3011 51.8907 33.8226 51.1081 34.4382C50.3259 35.054 49.6808 35.7671 49.1747 36.5807C48.669 37.3943 48.3686 38.3113 48.2718 39.3333C48.2236 39.5652 48.2127 39.7745 48.2357 39.9607V39.9958C48.2357 40.3902 48.32 40.8199 48.488 41.2841C48.6568 41.7487 48.9225 42.1781 49.2836 42.5727C49.6444 42.9686 50.1153 43.3048 50.6923 43.583C51.2708 43.8625 51.9936 44.002 52.8606 44.002C53.6549 44.002 54.3659 43.7926 54.9927 43.3746C55.6182 42.9568 56.203 42.3643 56.745 41.5975C57.2868 40.8315 57.8169 39.8962 58.3347 38.7926C58.8526 37.6894 59.3882 36.4538 59.9425 35.0837C60.9301 34.9439 61.8998 34.8446 62.8513 34.7864C63.8025 34.7283 64.688 34.7283 65.5067 34.7864C66.3253 34.8446 67.0603 34.9727 67.711 35.1703C68.3617 35.3673 68.8674 35.6403 69.2285 35.9893C69.5896 36.3374 69.8483 36.4538 70.0055 36.3374C70.1623 36.2209 70.2095 35.9713 70.1501 35.5883C70.0898 35.2054 69.9209 34.7463 69.6444 34.2131Z" fill="white"/>
<path fill-rule="evenodd" clip-rule="evenodd" d="M83.2653 20.8171C82.9888 20.4806 82.585 20.2191 82.0562 20.0331C81.501 19.8247 80.8018 19.6565 79.9593 19.5285C79.1167 19.4004 78.219 19.3008 77.2675 19.2322C76.3164 19.1622 75.3528 19.1338 74.3775 19.1443C73.402 19.1572 72.5099 19.2025 71.7034 19.284C70.896 19.3656 70.2154 19.4999 69.6615 19.685C69.1085 19.8713 68.7703 20.0913 68.6497 20.3463C68.5785 20.5333 68.5355 20.8053 68.5237 21.1649C68.5116 21.5257 68.5411 21.8856 68.6136 22.2452C68.686 22.6059 68.7881 22.9021 68.9209 23.1337C69.0534 23.3667 69.2292 23.448 69.4453 23.3781C69.9016 23.2153 70.5162 23.0989 71.2875 23.029C72.0589 22.9592 72.8898 22.9307 73.7806 22.9424C74.6716 22.9541 75.5932 23.0005 76.5447 23.0809C77.4959 23.1625 78.3748 23.2671 79.1836 23.3951C79.9901 23.5233 80.6945 23.6735 81.2967 23.848C81.8992 24.0213 82.3085 24.2025 82.5247 24.3884C82.6927 24.5504 82.8802 24.5854 83.0855 24.4922C83.2896 24.4001 83.4584 24.2193 83.5912 23.9527C83.7228 23.6861 83.8196 23.3718 83.8799 23.011C83.9403 22.6524 83.9225 22.2802 83.8248 21.897C83.7283 21.5141 83.5418 21.1533 83.2653 20.8171Z" fill="white"/>
<path fill-rule="evenodd" clip-rule="evenodd" d="M100.013 31.9303C99.3382 32.2668 98.7182 32.546 98.1519 32.767C97.5867 32.9872 97.0918 33.1608 96.6707 33.2888C96.2492 33.4166 95.9541 33.4813 95.7861 33.4813C95.2791 33.4813 94.9961 33.4115 94.9371 33.2718C94.8767 33.132 94.9666 32.9586 95.208 32.749C95.4484 32.5406 95.8225 32.3133 96.3274 32.07C96.834 31.8257 97.3992 31.6055 98.0259 31.4076C98.6523 31.2109 99.3139 31.0543 100.013 30.9379C100.712 30.8217 101.398 30.7761 102.072 30.7983C101.374 31.2163 100.688 31.5939 100.013 31.9303ZM105.325 14.7726C104.433 15.2836 103.56 15.7715 102.705 16.2357C101.85 16.7012 101.097 17.1297 100.446 17.5255C100.037 17.757 99.7966 17.8101 99.7244 17.6821C99.652 17.555 99.6759 17.316 99.7966 16.9669C99.9163 16.6199 100.11 16.2073 100.374 15.7313C100.64 15.2551 100.904 14.7855 101.17 14.3198C101.434 13.8786 101.826 13.3676 102.343 12.7871C102.861 12.2061 103.445 11.6201 104.096 11.0276C104.748 10.4351 105.427 9.89044 106.138 9.38993C106.848 8.89154 107.535 8.5022 108.197 8.22301C108.86 7.94478 109.461 7.82301 110.004 7.85814C110.545 7.89284 110.961 8.1532 111.25 8.64197C111.516 9.08313 111.522 9.55909 111.269 10.0701C111.015 10.5811 110.594 11.0974 110.004 11.6202C109.413 12.1426 108.709 12.6715 107.89 13.2047C107.07 13.74 106.215 14.2616 105.325 14.7726ZM111.16 19.6497C110.642 19.1863 110.04 18.8543 109.353 18.6573C108.667 18.4605 107.95 18.3613 107.203 18.3613C108.144 17.734 109.076 17.0494 110.004 16.3057C110.931 15.5631 111.757 14.7906 112.479 13.9887C113.201 13.188 113.786 12.3753 114.231 11.5512C114.678 10.7271 114.9 9.91889 114.9 9.12872C114.9 7.87486 114.611 6.97582 114.033 6.42887C113.454 5.88393 112.726 5.58137 111.847 5.52318C110.967 5.46594 110.009 5.593 108.974 5.90731C107.938 6.22046 106.956 6.62649 106.029 7.12605C105.102 7.62539 104.295 8.14781 103.609 8.69392C103.114 9.08736 102.765 9.44061 102.551 9.75492C102.689 9.50207 102.826 9.25346 102.977 8.97215C103.193 8.5658 103.433 8.13098 103.699 7.66644C103.844 7.4337 103.807 7.18424 103.59 6.91764C103.374 6.64988 103.084 6.4003 102.723 6.16734C102.361 5.93671 101.988 5.75052 101.603 5.60982C101.216 5.47133 100.929 5.4014 100.736 5.4014C97.7494 5.4014 95.1771 5.57597 93.0223 5.92413C90.8648 6.2723 89.083 6.7545 87.674 7.36927C86.264 7.98615 85.2227 8.72353 84.5481 9.58246C83.8744 10.4416 83.5363 11.382 83.5363 12.4041C83.5363 13.2165 83.7658 13.977 84.2233 14.6859C84.6809 15.3949 85.181 15.9575 85.7231 16.3755C86.264 16.7932 86.7645 17.0017 87.222 17.0017C87.6796 17.0017 87.9088 16.7012 87.9088 16.0963C87.9088 15.6095 87.9275 15.0985 87.9626 14.5642C87.999 14.03 88.1075 13.4957 88.2874 12.9615C88.4686 12.4271 88.7704 11.9111 89.1915 11.4106C89.613 10.9122 90.2033 10.453 90.9616 10.0353C91.7208 9.61728 92.6907 9.25672 93.8705 8.95511C95.0499 8.6537 96.4963 8.43238 98.2069 8.29294C97.7008 9.38452 97.2007 10.6564 96.7068 12.1078C96.2131 13.5604 95.7006 15.0287 95.1719 16.5152C94.6419 18.0015 94.0875 19.4181 93.5094 20.765C92.9311 22.1127 92.3099 23.2096 91.6484 24.0571C90.9855 24.9045 90.2801 25.4155 89.534 25.5901C88.7878 25.7646 87.9812 25.4336 87.1144 24.5966C86.8974 24.3882 86.7107 24.3702 86.5539 24.5447C86.3959 24.7183 86.3004 25.0038 86.264 25.3985C86.2289 25.7931 86.2827 26.2522 86.4264 26.775C86.5714 27.2964 86.8305 27.7907 87.2046 28.2549C87.5776 28.7195 88.0833 29.115 88.7219 29.4388C89.3595 29.7645 90.1604 29.9277 91.124 29.9277C92.04 29.9277 92.8412 29.6896 93.527 29.2125C94.2138 28.7374 94.8284 28.0803 95.3702 27.2446C95.9124 26.4088 96.4051 25.4219 96.8518 24.2835C97.2972 23.1464 97.7612 21.9033 98.2418 20.5553C98.5074 20.8813 98.8026 21.1839 99.1273 21.4619C99.4533 21.7401 99.8196 21.8799 100.23 21.8799C100.398 21.8799 100.7 21.8047 101.133 21.6535C101.567 21.5023 102.072 21.2759 102.651 20.9742C103.132 20.8114 103.681 20.66 104.295 20.5214C104.91 20.382 105.487 20.3532 106.029 20.4336C106.571 20.5163 107.023 20.7649 107.384 21.1839C107.746 21.6007 107.926 22.2629 107.926 23.1685C107.926 24.0985 107.71 24.9627 107.276 25.7646C106.842 26.5653 106.264 27.3261 105.542 28.0465C105.059 27.9301 104.53 27.8435 103.952 27.7853C103.374 27.7271 102.735 27.6974 102.036 27.6974C100.374 27.6974 98.9345 27.9133 97.7186 28.3419C96.5015 28.7722 95.49 29.3002 94.6834 29.9277C93.8769 30.5538 93.2744 31.2277 92.8773 31.9483C92.4791 32.6678 92.2804 33.3182 92.2804 33.8991C92.2804 34.3401 92.3825 34.7582 92.5878 35.1526C92.7929 35.5473 93.076 35.89 93.4368 36.18C93.7992 36.4709 94.2194 36.7036 94.7021 36.8773C95.1839 37.0517 95.7006 37.1385 96.2558 37.1385C97.1226 37.1385 98.0499 37.0167 99.0374 36.7722C100.025 36.5291 101.026 36.1917 102.036 35.762C103.049 35.3325 104.054 34.8164 105.054 34.2121C106.052 33.6082 106.987 32.9586 107.854 32.2614C108.31 32.5406 108.667 32.7841 108.919 32.9925C109.173 33.2018 109.396 33.3064 109.589 33.3064C109.684 33.3064 109.774 33.2303 109.86 33.0804C109.943 32.929 109.998 32.7322 110.022 32.4878C110.045 32.2434 110.022 31.9651 109.95 31.652C109.877 31.3377 109.746 31.0193 109.553 30.6936C110.54 29.6716 111.334 28.621 111.937 27.5409C112.539 26.4606 112.841 25.3754 112.841 24.2835C112.841 23.1685 112.69 22.2344 112.389 21.479C112.087 20.7247 111.678 20.1154 111.16 19.6497Z" fill="white"/>
<path fill-rule="evenodd" clip-rule="evenodd" d="M151.104 39.2635C150.261 39.9142 149.382 39.9724 148.466 39.438C148.25 39.2053 148.232 38.9503 148.412 38.6711C148.592 38.3929 148.918 38.1083 149.388 37.8174C149.858 37.5274 150.453 37.2428 151.176 36.9645C151.899 36.6853 152.694 36.4187 153.56 36.1638C152.766 37.5793 151.947 38.6131 151.104 39.2635ZM119.742 18.4657C120.078 17.9313 120.44 17.4554 120.825 17.0373C121.211 16.6195 121.602 16.2885 122 16.045C122.398 15.8006 122.777 15.678 123.138 15.678C123.523 15.678 123.692 15.8588 123.643 16.2187C123.595 16.5794 123.373 17.0025 122.975 17.4901C122.578 17.9778 122.023 18.472 121.314 18.9713C120.603 19.4706 119.765 19.8599 118.801 20.1381C119.091 19.5573 119.404 18.9998 119.742 18.4657ZM168.357 34.2131C168.081 33.6778 167.701 33.1614 167.219 32.6621C166.738 32.1627 166.153 31.7384 165.467 31.3905C164.781 31.0412 163.979 30.8678 163.064 30.8678C162.63 30.8678 162.178 30.8796 161.709 30.9026C161.239 30.926 160.764 30.9608 160.282 31.0064C160.33 30.9144 160.378 30.798 160.426 30.6594C160.547 30.3568 160.757 29.7939 161.059 28.9689C161.359 28.1446 161.703 27.1873 162.088 26.0955C162.474 25.0036 162.889 23.8654 163.335 22.6815C163.78 21.4966 164.196 20.3931 164.581 19.3713C164.966 18.3494 165.31 17.485 165.612 16.7761C165.912 16.0684 166.123 15.6558 166.244 15.5394C166.436 15.3544 166.484 15.1448 166.387 14.912C166.291 14.6802 166.081 14.4655 165.757 14.2679C165.431 14.0709 165.015 13.9081 164.509 13.7799C164.004 13.6531 163.449 13.5887 162.848 13.5887C162.63 13.5887 162.395 13.7451 162.143 14.0594C161.89 14.3726 161.631 14.8136 161.365 15.3828C161.1 15.9521 160.824 16.6247 160.535 17.4035C160.245 18.182 159.944 19.0358 159.632 19.9637L159.27 21.0438C159.076 21.4384 158.86 21.8574 158.619 22.2974C158.378 22.7397 158.114 23.1461 157.825 23.5173C157.536 23.8898 157.229 24.1966 156.904 24.4398C156.578 24.6842 156.247 24.806 155.91 24.806C155.523 24.806 155.264 24.6376 155.133 24.3012C155 23.9647 154.958 23.529 155.006 22.9945C155.054 22.4605 155.188 21.8626 155.404 21.2004C155.62 20.5382 155.88 19.8769 156.181 19.2146C156.481 18.5524 156.807 17.9262 157.156 17.3337C157.505 16.7411 157.848 16.2597 158.187 15.8876C158.403 15.6324 158.415 15.3594 158.222 15.0698C158.029 14.7786 157.759 14.5111 157.409 14.2679C157.06 14.0243 156.693 13.8201 156.307 13.6585C155.922 13.4966 155.656 13.4141 155.513 13.4141C155.247 13.4141 154.934 13.6003 154.572 13.9716C154.211 14.344 153.838 14.8485 153.452 15.4866C153.068 16.1266 152.694 16.8511 152.333 17.6638C151.971 18.4774 151.646 19.3195 151.357 20.1901C151.069 21.0607 150.834 21.9378 150.653 22.8213C150.544 23.3502 150.479 23.8463 150.436 24.3256C150.329 24.4895 150.239 24.6365 150.128 24.806C149.719 25.4333 149.309 26.0255 148.9 26.5831C148.49 27.1396 148.093 27.5999 147.708 27.9586C147.322 28.319 146.972 28.499 146.66 28.499C146.442 28.499 146.371 28.2843 146.442 27.8558C146.515 27.4275 146.665 26.8655 146.894 26.1695C147.123 25.4743 147.4 24.6926 147.725 23.8229C148.051 22.9545 148.364 22.0911 148.665 21.2331C148.966 20.3751 149.218 19.5639 149.424 18.8001C149.628 18.0339 149.731 17.3972 149.731 16.8871C149.731 16.4007 149.646 15.9605 149.477 15.5658C149.309 15.1711 149.099 14.8305 148.846 14.5408C148.592 14.2508 148.315 14.0243 148.015 13.8625C147.713 13.7008 147.43 13.6192 147.166 13.6192C146.972 13.6192 146.605 13.759 146.064 14.0361C145.521 14.3153 144.937 14.6149 144.311 14.9405C144.383 14.6623 144.455 14.3324 144.528 13.9494C144.6 13.5665 144.6 13.2024 144.528 12.8543C144.455 12.5064 144.293 12.2112 144.041 11.9677C143.787 11.7246 143.371 11.6028 142.793 11.6028C141.878 11.6028 141.132 11.8526 140.553 12.3519C139.975 12.8512 139.589 13.4723 139.397 14.216C139.157 15.0982 139.186 15.8357 139.487 16.4279C139.789 17.0205 140.239 17.4437 140.842 17.6986C140.673 18.0477 140.45 18.5004 140.174 19.058C139.897 19.6145 139.582 20.2081 139.234 20.8354C138.885 21.4616 138.506 22.1006 138.097 22.7513C137.686 23.4009 137.259 23.9818 136.814 24.4928C136.367 25.0036 135.928 25.4216 135.494 25.7473C135.062 26.0721 134.627 26.234 134.193 26.234C134.001 26.234 133.935 26.0721 133.995 25.7473C134.055 25.4216 134.182 24.9972 134.375 24.4748C134.567 23.953 134.802 23.3595 135.079 22.6983C135.356 22.0362 135.627 21.3569 135.892 20.6608C136.158 19.9637 136.379 19.2907 136.56 18.639C136.741 17.9895 136.831 17.4089 136.831 16.8979C136.831 16.41 136.747 15.9688 136.579 15.5742C136.41 15.1796 136.199 14.8368 135.947 14.5459C135.694 14.2562 135.409 14.0298 135.098 13.8669C134.784 13.705 134.494 13.6235 134.23 13.6235C134.038 13.6235 133.67 13.762 133.128 14.0415C132.586 14.3206 132.002 14.6221 131.376 14.9468C131.471 14.6677 131.556 14.3375 131.628 13.9537C131.701 13.5707 131.701 13.2057 131.628 12.8564C131.556 12.5084 131.388 12.2122 131.122 11.9677C130.858 11.7246 130.436 11.6028 129.857 11.6028C128.967 11.6028 128.232 11.8526 127.654 12.3519C127.076 12.8512 126.689 13.4723 126.497 14.216C126.232 15.0982 126.256 15.8357 126.57 16.4279C126.883 17.0205 127.341 17.4437 127.943 17.6986C127.605 18.4888 127.226 19.2961 126.805 20.1202C126.737 20.2537 126.671 20.3741 126.605 20.498C126.407 20.5943 126.162 20.8693 125.865 21.3402C125.492 21.9324 125.016 22.582 124.439 23.2909C123.861 23.9998 123.174 24.6494 122.379 25.2416C121.584 25.8342 120.669 26.1293 119.633 26.1293C118.862 26.1293 118.345 25.869 118.079 25.3454C117.814 24.8239 117.729 24.1786 117.826 23.4126C118.501 23.4126 119.26 23.2273 120.103 22.8551C120.945 22.4836 121.752 22.0139 122.523 21.4436C123.294 20.8756 123.963 20.2419 124.529 19.5459C125.095 18.8486 125.438 18.1757 125.559 17.5252C125.798 16.3401 125.632 15.3892 125.052 14.6677C124.475 13.9482 123.547 13.5887 122.271 13.5887C121.404 13.5887 120.446 13.8669 119.398 14.4244C118.35 14.982 117.369 15.7478 116.453 16.7233C115.538 17.6986 114.767 18.8432 114.14 20.1553C113.516 21.467 113.201 22.8795 113.201 24.3879C113.201 25.4798 113.357 26.4202 113.671 27.2095C113.983 27.9997 114.376 28.6505 114.846 29.1603C115.315 29.6724 115.827 30.0554 116.382 30.3104C116.935 30.5661 117.453 30.7058 117.934 30.728C118.946 30.7524 119.933 30.5196 120.897 30.0309C121.86 29.5444 122.752 28.9171 123.571 28.15C124.35 27.4221 125.028 26.6319 125.623 25.7877C125.787 25.8289 125.994 25.6819 126.245 25.3283C126.509 24.957 126.841 24.4694 127.238 23.8655C127.635 23.2612 128.051 22.6171 128.484 21.9324C128.918 21.2468 129.327 20.5383 129.714 19.8071C130.099 19.0751 130.423 18.3736 130.689 17.6986C131.098 17.5601 131.507 17.3738 131.918 17.1423C132.327 16.9093 132.712 16.6079 133.074 16.2367C133.194 16.1203 133.194 16.2483 133.074 16.6195C132.953 16.9909 132.766 17.4965 132.514 18.1346C132.261 18.7734 131.972 19.5057 131.647 20.3298C131.322 21.1539 131.002 21.9621 130.689 22.7513C130.375 23.5407 130.099 24.2664 129.857 24.9286C129.617 25.5907 129.472 26.0837 129.424 26.4085C129.327 26.9429 129.303 27.4656 129.353 27.9762C129.4 28.4873 129.538 28.9465 129.767 29.3528C129.997 29.7591 130.309 30.0902 130.707 30.3451C131.105 30.6012 131.592 30.728 132.17 30.728C132.893 30.728 133.645 30.4732 134.428 29.9622C135.211 29.4511 135.989 28.7953 136.759 27.9934C137.529 27.1924 138.278 26.2921 139 25.2935C139.722 24.2949 140.384 23.3143 140.987 22.3492C141.588 21.3866 142.119 20.4915 142.577 19.6674C143.034 18.8432 143.371 18.1874 143.588 17.6986C143.998 17.5601 144.407 17.3738 144.817 17.1423C145.227 16.9093 145.612 16.6079 145.974 16.2367C146.093 16.1203 146.057 16.2885 145.865 16.7411C145.671 17.1939 145.4 17.8149 145.052 18.6042C144.702 19.3944 144.311 20.2947 143.877 21.305C143.444 22.3154 143.034 23.3143 142.649 24.3012C142.263 25.2882 141.938 26.2171 141.673 27.0877C141.408 27.9586 141.276 28.6505 141.276 29.1603C141.276 29.6491 141.324 30.1241 141.42 30.5896C141.516 31.054 141.691 31.4667 141.945 31.8253C142.197 32.1861 142.54 32.4704 142.974 32.6789C143.407 32.8885 143.95 32.9922 144.6 32.9922C145.13 32.9922 145.648 32.8821 146.154 32.6588C146.66 32.4368 147.153 32.1385 147.635 31.7639C148.117 31.3894 148.58 30.9683 149.026 30.4995C149.472 30.0309 149.888 29.5516 150.273 29.0608C150.516 28.7509 150.755 28.4249 150.992 28.0885L151.05 28.2198C151.303 28.6853 151.64 29.0682 152.062 29.3699C152.483 29.6725 153.031 29.811 153.705 29.7877C154.307 29.7421 154.891 29.5222 155.457 29.1255C156.024 28.7317 156.547 28.2663 157.03 27.7331C156.813 28.4292 156.578 29.1147 156.326 29.7877C156.072 30.4615 155.813 31.1344 155.548 31.8083C154.488 32.0866 153.464 32.4411 152.476 32.8705C151.489 33.3011 150.604 33.8226 149.821 34.4382C149.039 35.054 148.394 35.7671 147.889 36.5807C147.382 37.3943 147.081 38.3113 146.985 39.3333C146.937 39.5652 146.925 39.7745 146.949 39.9607V39.9958C146.949 40.3902 147.034 40.8199 147.202 41.2841C147.371 41.7487 147.635 42.1781 147.997 42.5727C148.357 42.9686 148.828 43.3048 149.405 43.583C149.984 43.8625 150.706 44.002 151.573 44.002C152.369 44.002 153.079 43.7926 153.705 43.3746C154.332 42.9568 154.917 42.3643 155.457 41.5975C156.001 40.8315 156.53 39.8962 157.049 38.7926C157.565 37.6894 158.101 36.4538 158.656 35.0837C159.644 34.9439 160.613 34.8446 161.564 34.7864C162.515 34.7283 163.401 34.7283 164.22 34.7864C165.039 34.8446 165.774 34.9727 166.424 35.1703C167.075 35.3673 167.58 35.6403 167.942 35.9893C168.303 36.3374 168.562 36.4538 168.719 36.3374C168.875 36.2209 168.923 35.9713 168.864 35.5883C168.803 35.2054 168.635 34.7463 168.357 34.2131Z" fill="white"/>
<path fill-rule="evenodd" clip-rule="evenodd" d="M171.801 13.9782L171.748 13.8597L171.613 13.813H171.45L171.333 13.8564L171.27 13.9602L171.027 15.2032H170.982L170.737 13.9602L170.674 13.8564L170.557 13.813H170.396L170.26 13.8597L170.206 13.9782L170.007 16.568L170.052 16.7117L170.196 16.7689H170.26L170.39 16.7171L170.449 16.5944L170.531 14.9429H170.576L170.809 16.0126L170.882 16.1172L170.999 16.1605L171.125 16.1172L171.198 16.0126L171.432 14.9429H171.476L171.559 16.5944L171.617 16.7171L171.748 16.7689H171.811L171.955 16.7117L172 16.568L171.801 13.9782Z" fill="white"/>
<path fill-rule="evenodd" clip-rule="evenodd" d="M169.801 13.813H168.826L168.691 13.8646L168.636 13.9947V14.0645L168.691 14.1959L168.826 14.2478H168.899L169.034 14.2994L169.087 14.4295V16.5866L169.142 16.7168L169.277 16.7686H169.35L169.485 16.7168L169.538 16.5866V14.4295L169.593 14.2994L169.728 14.2478H169.801L169.935 14.1959L169.989 14.0645V13.9947L169.935 13.8646L169.801 13.813Z" fill="white"/>
</svg>
