<svg width="201" height="51" fill="none" xmlns="http://www.w3.org/2000/svg"><path fill-rule="evenodd" clip-rule="evenodd" d="M36.19 10.6c.575-1.52 1.17-2.76 1.787-3.715.614-.955 1.253-1.562 1.911-1.818.658-.255 1.337-.046 2.037.626.225.243.42.263.589.062.168-.202.266-.513.294-.93.027-.417-.035-.9-.19-1.454a4.53 4.53 0 0 0-.818-1.575c-.393-.497-.932-.922-1.619-1.271C39.496.175 38.634 0 37.598 0c-.897 0-1.764.424-2.605 1.271-.84.848-1.631 1.986-2.374 3.413-.742 1.427-1.45 3.068-2.12 4.926a101.219 101.219 0 0 0-1.893 5.774 182.027 182.027 0 0 0-1.658 5.997c-.52 2.006-1.002 3.87-1.45 5.593a330.021 330.021 0 0 1-1.218 4.562c-.365 1.32-.7 2.276-1.008 2.867 0-.295-.042-1.076-.126-2.342-.085-1.265-.183-2.792-.295-4.584-.112-1.789-.239-3.727-.378-5.813a244.189 244.189 0 0 1-.335-5.996 4.269 4.269 0 0 0-.548-1.918 6.869 6.869 0 0 0-1.26-1.637 10.764 10.764 0 0 0-1.68-1.312c-.617-.39-1.22-.72-1.807-.99-1.149-1.102-2.347-1.741-3.592-1.916-1.248-.176-2.479-.008-3.697.504-1.219.511-2.374 1.332-3.467 2.463-1.092 1.13-2.052 2.45-2.879 3.957a22.753 22.753 0 0 0-1.973 4.947A20.566 20.566 0 0 0 .5 25.237c0 .62.167 1.218.503 1.797.336.578.77 1.118 1.302 1.615.532.499 1.12.935 1.766 1.313.644.378 1.266.673 1.87.888.6.216 1.14.337 1.617.364.476.027.812-.054 1.008-.243.251-.243.3-.437.147-.585a15.421 15.421 0 0 1-.673-.707c-.293-.323-.582-.787-.86-1.393-.28-.606-.422-1.487-.422-2.645 0-1.023.128-2.16.38-3.412.252-1.252.58-2.51.987-3.775a34.809 34.809 0 0 1 1.386-3.635 27.647 27.647 0 0 1 1.534-2.988c.504-.834.98-1.446 1.428-1.837.447-.39.812-.45 1.092-.183.168.162.295.27.379.325.615.834 1.156 2.038 1.618 3.614.461 1.573.84 3.318 1.134 5.228.294 1.912.532 3.884.715 5.916.182 2.033.321 3.91.42 5.633a137.715 137.715 0 0 1 .23 6.502c0 .295.153.631.463 1.01.308.376.698.752 1.177 1.13.474.376 1 .747 1.574 1.11.574.364 1.128.686 1.66.97.532.282 1 .51 1.407.685.406.175.68.264.82.264.532 0 1.056-.405 1.575-1.213.518-.807 1.036-1.891 1.554-3.25.52-1.36 1.03-2.928 1.534-4.705a215.943 215.943 0 0 0 1.513-5.632c.504-1.98 1.022-3.978 1.554-5.997.532-2.019 1.072-3.943 1.618-5.774a75.074 75.074 0 0 1 1.68-5.027Z" fill="#5F4A96"/><path fill-rule="evenodd" clip-rule="evenodd" d="M61.42 45.508c-.981.754-2.003.821-3.067.202-.253-.27-.273-.565-.064-.889.21-.322.59-.652 1.134-.99.547-.336 1.24-.666 2.08-.988.842-.324 1.766-.633 2.773-.928-.923 1.64-1.876 2.839-2.856 3.593ZM40.58 21.4c.392-.62.813-1.17 1.261-1.655a6.516 6.516 0 0 1 1.365-1.15c.462-.284.904-.426 1.324-.426.448 0 .645.21.589.627-.056.418-.315.908-.778 1.473-.461.566-1.108 1.139-1.933 1.717-.826.579-1.8 1.03-2.92 1.353.336-.674.7-1.32 1.093-1.939Zm40.902 18.253a7.725 7.725 0 0 0-1.325-1.798 7.525 7.525 0 0 0-2.036-1.474c-.798-.405-1.731-.606-2.794-.606-.504 0-1.03.014-1.576.04-.547.028-1.1.068-1.66.121.056-.107.113-.242.169-.402.14-.35.384-1.003.734-1.96.35-.955.75-2.065 1.197-3.33.45-1.266.932-2.585 1.45-3.957.52-1.374 1.001-2.653 1.45-3.837a78.439 78.439 0 0 1 1.197-3.008c.35-.82.595-1.299.735-1.434.225-.214.28-.457.169-.727-.113-.268-.358-.517-.735-.747-.378-.228-.861-.417-1.45-.565a7.963 7.963 0 0 0-1.933-.222c-.25 0-.525.182-.819.546-.294.363-.596.874-.903 1.534-.31.66-.63 1.44-.966 2.342-.337.902-.688 1.892-1.051 2.967l-.42 1.252a38.47 38.47 0 0 1-.755 1.453c-.282.513-.59.984-.925 1.414a5.638 5.638 0 0 1-1.072 1.07c-.378.283-.764.424-1.156.424-.448 0-.749-.195-.903-.585-.155-.39-.203-.895-.147-1.514.056-.62.21-1.313.462-2.08a23.06 23.06 0 0 1 2.04-4.482c.404-.687.804-1.245 1.195-1.676.252-.296.266-.612.042-.948a3.537 3.537 0 0 0-.945-.93 6.892 6.892 0 0 0-1.282-.706c-.448-.187-.756-.283-.924-.283-.309 0-.673.216-1.092.646-.421.432-.855 1.017-1.303 1.756a23.26 23.26 0 0 0-1.303 2.524c-.42.943-.797 1.919-1.134 2.928a26.616 26.616 0 0 0-.819 3.05c-.036.17-.05.324-.08.491l-.067.092c-.42.58-.84 1.118-1.26 1.616-.42.498-.833.91-1.24 1.231-.406.324-.79.485-1.155.485-.225 0-.301-.188-.23-.564.07-.375.216-.865.44-1.469a62.94 62.94 0 0 1 .82-2.075c.321-.779.636-1.565.945-2.357.307-.792.566-1.57.778-2.336.21-.765.315-1.43.315-1.994 0-.537-.1-1.04-.294-1.512a4.39 4.39 0 0 0-.735-1.208 3.507 3.507 0 0 0-.968-.786c-.35-.187-.678-.282-.987-.282-.224 0-.65.162-1.28.485-.631.322-1.311.67-2.038 1.046a12.3 12.3 0 0 0 .23-1.148c.07-.442.064-.866-.02-1.268a1.945 1.945 0 0 0-.568-1.028c-.293-.281-.778-.422-1.45-.422-1.036 0-1.89.289-2.562.868a4.173 4.173 0 0 0-1.345 2.16c-.309 1.05-.28 1.91.084 2.584a3.164 3.164 0 0 0 1.598 1.453c-.394.89-.829 1.77-1.303 2.646a35.138 35.138 0 0 1-1.345 2.281l-.078.174c-.315.44-.658.894-1.056 1.381a13.404 13.404 0 0 1-2.395 2.261c-.924.687-1.99 1.029-3.193 1.029-.898 0-1.5-.302-1.807-.909-.309-.604-.406-1.352-.294-2.24.785 0 1.666-.215 2.647-.646.98-.43 1.918-.975 2.815-1.636a12.724 12.724 0 0 0 2.332-2.2c.656-.808 1.057-1.588 1.197-2.342.28-1.374.084-2.476-.588-3.312-.672-.834-1.75-1.25-3.235-1.25-1.008 0-2.122.322-3.34.968-1.22.646-2.36 1.534-3.425 2.665-1.064 1.13-1.96 2.457-2.689 3.977-.728 1.52-1.092 3.158-1.092 4.906 0 1.266.182 2.356.547 3.271.363.916.818 1.67 1.364 2.261.547.594 1.143 1.038 1.786 1.333.644.297 1.247.459 1.807.484 1.177.029 2.324-.241 3.445-.808a13.363 13.363 0 0 0 3.11-2.18 17.606 17.606 0 0 0 2.5-2.886c.152-.222.266-.428.404-.643.269-.434.61-.946 1.045-1.557.475-.674.965-1.408 1.47-2.202.505-.793.987-1.608 1.45-2.442.462-.834.832-1.63 1.114-2.384a8.095 8.095 0 0 0 2.771-1.654c.14-.135.14.006 0 .423-.14.418-.356.997-.65 1.736-.295.74-.63 1.582-1.009 2.524a177.915 177.915 0 0 0-2.037 5.31c-.28.767-.449 1.34-.505 1.716a5.242 5.242 0 0 0-.063 1.918c.098.607.287 1.138.568 1.595.28.459.643.822 1.092 1.09.448.27.967.404 1.554.404a6.178 6.178 0 0 0 3.34-1.058 12.837 12.837 0 0 0 2.626-2.279c.1-.109.188-.24.286-.353.1.285.22.56.365.823.295.54.688.983 1.178 1.333s1.126.511 1.911.484c.7-.053 1.38-.307 2.038-.767a10.724 10.724 0 0 0 1.826-1.614 42.925 42.925 0 0 1-.818 2.381 162.44 162.44 0 0 1-.904 2.343 24.666 24.666 0 0 0-3.571 1.23 14.049 14.049 0 0 0-3.088 1.818 9.619 9.619 0 0 0-2.248 2.483c-.588.943-.938 2.006-1.05 3.19a2.229 2.229 0 0 0-.042.728v.04c0 .458.098.956.293 1.494.197.538.506 1.036.925 1.493.42.46.968.849 1.639 1.171.672.324 1.513.486 2.52.486.924 0 1.751-.243 2.48-.727.727-.484 1.407-1.171 2.038-2.06.63-.888 1.246-1.972 1.848-3.251a86.45 86.45 0 0 0 1.87-4.3 42.884 42.884 0 0 1 3.382-.344 23.568 23.568 0 0 1 3.088 0c.951.068 1.806.216 2.563.445.756.229 1.344.545 1.764.95.42.403.721.538.904.403.182-.135.237-.424.168-.868-.07-.444-.267-.976-.588-1.594ZM97.32 24.127c-.321-.39-.79-.694-1.406-.909-.645-.242-1.458-.437-2.438-.585a40.144 40.144 0 0 0-3.13-.343 40.054 40.054 0 0 0-3.36-.102 35.92 35.92 0 0 0-3.11.162c-.939.094-1.73.25-2.374.464-.643.216-1.036.471-1.177.767-.083.217-.133.532-.146.949-.014.418.02.835.104 1.252.085.418.203.761.358 1.03.154.27.358.364.61.283.53-.189 1.245-.323 2.141-.405a28.27 28.27 0 0 1 2.9-.1c1.035.014 2.107.067 3.213.16a43.64 43.64 0 0 1 3.069.365c.938.148 1.757.323 2.457.525.7.2 1.177.41 1.428.626.195.188.413.229.652.12.237-.106.434-.316.588-.625.153-.309.266-.673.336-1.091a3.183 3.183 0 0 0-.715-2.543ZM116.794 37.008c-.784.39-1.505.713-2.164.97-.657.255-1.233.456-1.722.604-.49.149-.834.224-1.029.224-.589 0-.918-.081-.987-.243-.07-.162.034-.363.315-.606.279-.242.715-.505 1.302-.787a14.82 14.82 0 0 1 1.975-.768 17.05 17.05 0 0 1 2.31-.544c.813-.135 1.61-.188 2.395-.162-.813.484-1.61.922-2.395 1.312Zm6.177-19.888a156.09 156.09 0 0 1-3.046 1.696c-.995.54-1.87 1.037-2.627 1.495-.476.269-.755.33-.839.182-.085-.147-.057-.424.084-.83.139-.401.363-.88.671-1.431.309-.552.616-1.096.925-1.636.307-.512.763-1.104 1.365-1.777a27.674 27.674 0 0 1 2.038-2.04 24.398 24.398 0 0 1 2.374-1.897c.826-.578 1.624-1.03 2.395-1.353.771-.323 1.47-.464 2.101-.423.629.04 1.113.342 1.448.909.309.51.317 1.063.022 1.655-.295.592-.784 1.19-1.47 1.796a21.16 21.16 0 0 1-2.458 1.837 61.415 61.415 0 0 1-2.983 1.817Zm6.785 5.653a5.308 5.308 0 0 0-2.101-1.15 9.05 9.05 0 0 0-2.5-.343 46.387 46.387 0 0 0 3.257-2.383 24.3 24.3 0 0 0 2.877-2.685c.84-.928 1.52-1.87 2.038-2.825.519-.956.777-1.892.777-2.808 0-1.454-.336-2.496-1.008-3.13-.672-.631-1.519-.982-2.542-1.05-1.023-.066-2.137.082-3.34.446a18.502 18.502 0 0 0-3.424 1.412c-1.078.58-2.017 1.185-2.815 1.818-.575.456-.981.865-1.23 1.23.161-.293.321-.582.495-.908.252-.47.531-.975.84-1.513.168-.27.126-.56-.127-.868-.251-.31-.588-.6-1.007-.87a6.71 6.71 0 0 0-1.303-.646c-.449-.16-.784-.242-1.008-.242-3.473 0-6.464.203-8.97.606-2.508.404-4.58.963-6.218 1.675-1.64.715-2.85 1.57-3.635 2.566-.784.995-1.177 2.085-1.177 3.27 0 .942.267 1.823.8 2.645.531.822 1.113 1.474 1.743 1.958.629.485 1.211.726 1.743.726s.799-.348.799-1.05c0-.563.021-1.156.062-1.775a7.35 7.35 0 0 1 .378-1.858c.21-.62.561-1.217 1.051-1.797.49-.578 1.177-1.11 2.058-1.595.883-.484 2.011-.902 3.383-1.252 1.371-.349 3.053-.605 5.042-.767-.588 1.265-1.17 2.74-1.744 4.422a378.709 378.709 0 0 1-1.785 5.108 83.953 83.953 0 0 1-1.933 4.926c-.673 1.562-1.395 2.834-2.164 3.816-.771.982-1.591 1.575-2.459 1.777-.867.202-1.805-.181-2.813-1.152-.253-.241-.47-.262-.652-.06-.184.201-.295.532-.337.99-.041.457.022.99.189 1.595.168.605.47 1.178.905 1.716.433.538 1.021.997 1.764 1.372.741.378 1.673.567 2.793.567 1.065 0 1.997-.276 2.794-.83.799-.55 1.514-1.312 2.144-2.28.63-.97 1.203-2.113 1.722-3.432a149.97 149.97 0 0 0 1.617-4.322c.309.378.652.729 1.029 1.051.379.323.805.485 1.283.485.195 0 .546-.088 1.05-.263a13.589 13.589 0 0 0 1.764-.787 19.344 19.344 0 0 1 1.912-.525c.715-.162 1.386-.195 2.017-.102.63.096 1.156.384 1.575.87.422.483.631 1.25.631 2.3a6.19 6.19 0 0 1-.757 3.01c-.504.927-1.176 1.81-2.016 2.644a13.834 13.834 0 0 0-1.848-.303 22.457 22.457 0 0 0-2.228-.102c-1.933 0-3.607.25-5.021.748-1.415.498-2.591 1.11-3.529 1.838-.938.725-1.638 1.507-2.1 2.342-.463.834-.694 1.587-.694 2.26 0 .512.118.997.357 1.454.239.457.568.854.987 1.19.422.338.91.608 1.472.809.56.202 1.161.303 1.806.303 1.008 0 2.086-.142 3.235-.425a22.986 22.986 0 0 0 3.487-1.17 27.64 27.64 0 0 0 3.508-1.797 29.712 29.712 0 0 0 3.257-2.261c.53.323.945.605 1.238.847.295.243.554.364.779.364.111 0 .215-.088.315-.262.097-.176.161-.404.189-.687.027-.283 0-.606-.084-.969a3.93 3.93 0 0 0-.462-1.11c1.148-1.185 2.072-2.403 2.772-3.655.701-1.252 1.052-2.51 1.052-3.775 0-1.293-.176-2.375-.526-3.251-.351-.874-.827-1.58-1.429-2.12ZM176.202 45.508c-.98.754-2.002.821-3.067.202-.252-.27-.272-.565-.063-.889.209-.322.588-.652 1.135-.99.547-.336 1.238-.666 2.079-.988a35.706 35.706 0 0 1 2.773-.928c-.924 1.64-1.876 2.839-2.857 3.593ZM139.734 21.4c.392-.62.813-1.17 1.26-1.655a6.543 6.543 0 0 1 1.366-1.15c.463-.284.903-.426 1.323-.426.448 0 .645.21.588.627-.056.418-.313.908-.777 1.473-.462.566-1.107 1.139-1.931 1.717-.827.579-1.802 1.03-2.922 1.353.337-.674.7-1.32 1.093-1.939Zm56.53 18.253a7.677 7.677 0 0 0-1.323-1.798 7.53 7.53 0 0 0-2.038-1.474c-.797-.405-1.73-.606-2.794-.606-.504 0-1.03.014-1.576.04-.546.028-1.098.068-1.658.121.055-.107.111-.242.167-.402.14-.35.385-1.003.736-1.96.349-.955.749-2.065 1.197-3.33a203.72 203.72 0 0 1 1.449-3.957c.518-1.374 1.002-2.653 1.45-3.837a78.562 78.562 0 0 1 1.198-3.008c.349-.82.594-1.299.735-1.434.223-.214.279-.457.167-.727-.112-.268-.356-.517-.734-.747-.379-.228-.862-.417-1.451-.565a7.943 7.943 0 0 0-1.931-.222c-.253 0-.526.182-.819.546-.295.363-.596.874-.905 1.534-.309.66-.629 1.44-.966 2.342-.337.902-.686 1.892-1.05 2.967l-.421 1.252c-.224.458-.476.943-.756 1.453-.28.513-.587.984-.923 1.414a5.674 5.674 0 0 1-1.072 1.07c-.379.283-.764.424-1.156.424-.449 0-.75-.195-.903-.585-.154-.39-.203-.895-.147-1.514.055-.62.211-1.313.462-2.08a23.174 23.174 0 0 1 2.038-4.482c.405-.687.805-1.245 1.198-1.676.251-.296.265-.612.041-.948a3.528 3.528 0 0 0-.946-.93 6.85 6.85 0 0 0-1.281-.706c-.448-.187-.756-.283-.923-.283-.309 0-.673.216-1.094.646-.42.432-.854 1.017-1.303 1.756a23.374 23.374 0 0 0-1.301 2.524c-.42.943-.799 1.919-1.134 2.928a26.493 26.493 0 0 0-.819 3.05 15.457 15.457 0 0 0-.253 1.743c-.124.19-.229.36-.357.557a46.187 46.187 0 0 1-1.428 2.06c-.477.645-.939 1.179-1.387 1.594-.448.418-.855.627-1.218.627-.253 0-.336-.25-.253-.746.084-.496.259-1.148.525-1.954s.589-1.712.966-2.72a147.21 147.21 0 0 0 1.093-3.002c.35-.995.644-1.935.883-2.82.237-.888.357-1.626.357-2.218 0-.563-.098-1.074-.295-1.531a4.435 4.435 0 0 0-.734-1.188 3.491 3.491 0 0 0-.967-.786c-.351-.188-.68-.282-.987-.282-.225 0-.652.162-1.281.483-.632.323-1.311.67-2.039 1.048.084-.322.168-.705.253-1.149a3.227 3.227 0 0 0 0-1.269 1.954 1.954 0 0 0-.567-1.028c-.295-.281-.778-.422-1.451-.422-1.064 0-1.931.289-2.604.868a4.172 4.172 0 0 0-1.345 2.16c-.279 1.023-.244 1.878.105 2.564a3.054 3.054 0 0 0 1.576 1.473c-.197.405-.456.93-.777 1.576a48.891 48.891 0 0 1-2.415 4.28 16.463 16.463 0 0 1-1.492 2.02 10.196 10.196 0 0 1-1.535 1.453c-.503.377-1.008.564-1.512.564-.224 0-.301-.187-.231-.564.07-.377.217-.87.442-1.475a49.12 49.12 0 0 1 .819-2.059c.321-.767.637-1.555.945-2.361.309-.809.567-1.589.777-2.344.211-.753.315-1.426.315-2.018 0-.566-.098-1.077-.293-1.534a4.514 4.514 0 0 0-.735-1.192 3.411 3.411 0 0 0-.988-.787c-.365-.188-.701-.282-1.009-.282-.223 0-.65.16-1.281.484-.63.324-1.309.673-2.037 1.05.111-.324.209-.707.293-1.152a3.24 3.24 0 0 0 0-1.272 1.888 1.888 0 0 0-.588-1.03c-.308-.281-.798-.422-1.471-.422-1.035 0-1.89.289-2.562.868a4.16 4.16 0 0 0-1.345 2.16c-.309 1.023-.281 1.878.084 2.564a3.151 3.151 0 0 0 1.596 1.473 45.182 45.182 0 0 1-1.323 2.807c-.079.155-.155.294-.232.438-.23.111-.515.43-.86.976-.434.686-.987 1.44-1.659 2.261a13.397 13.397 0 0 1-2.394 2.261c-.925.687-1.99 1.029-3.194 1.029-.897 0-1.498-.302-1.807-.909-.308-.604-.407-1.352-.294-2.24.784 0 1.667-.215 2.647-.646.98-.43 1.918-.975 2.815-1.636a12.64 12.64 0 0 0 2.332-2.2c.658-.808 1.058-1.588 1.198-2.342.278-1.374.084-2.476-.589-3.312-.671-.834-1.751-1.25-3.235-1.25-1.008 0-2.122.322-3.34.968-1.218.646-2.359 1.534-3.425 2.665-1.064 1.13-1.961 2.457-2.689 3.977a11.247 11.247 0 0 0-1.092 4.906c0 1.266.182 2.356.547 3.271.362.916.819 1.67 1.365 2.261.546.594 1.141 1.038 1.787 1.333.643.297 1.245.459 1.805.484 1.176.029 2.324-.241 3.445-.808a13.312 13.312 0 0 0 3.109-2.18 17.578 17.578 0 0 0 2.386-2.738c.192.048.431-.123.723-.532.308-.43.693-.996 1.155-1.696.462-.7.946-1.447 1.449-2.24.505-.795.981-1.617 1.43-2.464.448-.848.825-1.662 1.134-2.444.476-.16.952-.376 1.429-.645.476-.27.924-.62 1.345-1.05.139-.134.139.014 0 .444-.142.43-.359 1.017-.652 1.756l-1.008 2.545-1.114 2.807a94.54 94.54 0 0 0-.967 2.523c-.28.768-.448 1.34-.504 1.716a6.574 6.574 0 0 0-.083 1.817c.055.592.215 1.124.482 1.595.267.471.63.855 1.092 1.15.464.297 1.03.444 1.702.444.841 0 1.715-.295 2.626-.887.91-.593 1.814-1.353 2.71-2.282a29.175 29.175 0 0 0 2.606-3.13 60.702 60.702 0 0 0 2.31-3.413 70.788 70.788 0 0 0 1.849-3.108c.532-.955.924-1.715 1.176-2.282.476-.16.952-.376 1.429-.645.476-.27.924-.62 1.345-1.05.139-.134.097.06-.126.585-.226.525-.541 1.245-.946 2.16-.407.916-.862 1.96-1.366 3.13a113.29 113.29 0 0 0-1.428 3.473 44.178 44.178 0 0 0-1.135 3.23c-.308 1.01-.461 1.811-.461 2.402 0 .567.055 1.117.167 1.657.111.538.315 1.017.61 1.432.293.418.693.748 1.197.99.504.242 1.135.363 1.891.363.616 0 1.218-.128 1.806-.387a8.115 8.115 0 0 0 1.723-1.037c.56-.434 1.098-.922 1.618-1.465a23.354 23.354 0 0 0 2.285-2.795l.067.152c.295.54.687.983 1.177 1.333s1.127.511 1.911.484c.699-.053 1.379-.307 2.038-.767a10.765 10.765 0 0 0 1.828-1.614 45.457 45.457 0 0 1-.819 2.381c-.295.781-.596 1.561-.905 2.343a24.676 24.676 0 0 0-3.571 1.23 14.08 14.08 0 0 0-3.088 1.818 9.61 9.61 0 0 0-2.246 2.483c-.59.943-.94 2.006-1.051 3.19-.056.27-.07.512-.042.728v.04c0 .458.098.956.294 1.494a4.44 4.44 0 0 0 .925 1.493c.418.46.966.849 1.637 1.171.674.324 1.513.486 2.521.486.925 0 1.751-.243 2.479-.727.729-.484 1.409-1.171 2.038-2.06.631-.888 1.246-1.972 1.85-3.251a89.08 89.08 0 0 0 1.869-4.3 42.857 42.857 0 0 1 3.381-.344 23.588 23.588 0 0 1 3.089 0c.952.068 1.806.216 2.562.445.758.229 1.345.545 1.766.95.419.403.721.538.903.403.181-.135.237-.424.169-.868-.072-.444-.267-.976-.59-1.594ZM200.269 16.2l-.062-.138-.157-.054h-.189l-.137.05-.073.12-.283 1.442h-.052l-.284-1.441-.073-.12-.137-.05h-.187l-.159.053-.062.138-.231 3.002.052.166.167.067h.074l.152-.06.069-.143.094-1.914h.053l.271 1.24.085.121.136.05.147-.05.084-.121.272-1.24h.052l.096 1.914.068.142.152.06h.073l.168-.066.052-.166-.231-3.002ZM197.943 16.008h-1.134l-.156.06-.064.15v.082l.064.152.156.06h.085l.157.06.062.15v2.501l.064.151.157.06h.084l.157-.06.062-.15v-2.501l.064-.151.157-.06h.085l.156-.06.063-.152v-.081l-.063-.151-.156-.06Z" fill="#5F4A96"/></svg>