<svg width="172" height="45" fill="none" xmlns="http://www.w3.org/2000/svg"><path fill-rule="evenodd" clip-rule="evenodd" d="M30.694 9.147c.494-1.312 1.006-2.38 1.536-3.205.529-.824 1.077-1.348 1.644-1.569.566-.22 1.15-.039 1.752.54.193.21.36.227.506.054.144-.175.229-.442.253-.802.023-.36-.03-.778-.163-1.255a3.913 3.913 0 0 0-.704-1.358c-.338-.43-.802-.796-1.392-1.097-.59-.302-1.331-.453-2.222-.453-.771 0-1.516.366-2.24 1.097-.723.731-1.403 1.713-2.042 2.944-.638 1.232-1.246 2.647-1.823 4.25a87.531 87.531 0 0 0-1.627 4.982c-.505 1.719-.982 3.443-1.427 5.173-.447 1.731-.861 3.339-1.247 4.825-.386 1.487-.735 2.8-1.047 3.937-.314 1.138-.602 1.963-.867 2.473 0-.255-.036-.928-.109-2.02-.072-1.092-.157-2.41-.253-3.955-.097-1.543-.206-3.216-.325-5.015-.122-1.8-.217-3.525-.289-5.174a3.692 3.692 0 0 0-.47-1.654 5.924 5.924 0 0 0-1.085-1.413A9.261 9.261 0 0 0 15.61 9.32a13.472 13.472 0 0 0-1.555-.853c-.988-.952-2.018-1.503-3.09-1.654-1.072-.151-2.131-.006-3.179.435s-2.04 1.15-2.981 2.125c-.94.976-1.765 2.114-2.476 3.414a19.665 19.665 0 0 0-1.697 4.268A17.797 17.797 0 0 0 0 21.775c0 .536.144 1.05.432 1.55.29.5.663.965 1.12 1.393.458.43.964.808 1.52 1.134.553.325 1.087.58 1.607.766.517.186.98.29 1.39.314.41.023.699-.047.868-.21.216-.21.258-.377.126-.505a13.285 13.285 0 0 1-.578-.61c-.253-.278-.5-.68-.74-1.202-.241-.522-.363-1.282-.363-2.282 0-.882.11-1.863.327-2.943.216-1.08.5-2.165.848-3.257a30.094 30.094 0 0 1 1.193-3.136c.444-.998.885-1.858 1.319-2.578.433-.72.842-1.247 1.228-1.585.385-.336.698-.388.939-.157.145.139.253.232.326.28.529.72.994 1.758 1.391 3.118.397 1.357.723 2.862.976 4.51.252 1.65.457 3.351.614 5.104.157 1.754.277 3.374.36 4.86a119.586 119.586 0 0 1 .2 5.61c0 .254.131.544.398.87.264.325.6.65 1.012.975.408.325.86.645 1.353.959.494.313.97.591 1.428.836.458.243.86.44 1.21.591.35.151.584.228.705.228.457 0 .908-.35 1.355-1.047.445-.696.89-1.631 1.337-2.803a48.976 48.976 0 0 0 1.318-4.06c.435-1.531.867-3.152 1.302-4.859.433-1.707.879-3.431 1.336-5.173.458-1.742.922-3.402 1.392-4.982.47-1.58.951-3.025 1.445-4.337Z" fill="#fff"/><path fill-rule="evenodd" clip-rule="evenodd" d="M52.39 39.264c-.843.65-1.722.708-2.637.174-.217-.233-.235-.488-.055-.767.181-.278.507-.563.976-.854.47-.29 1.066-.574 1.79-.852.723-.28 1.517-.546 2.384-.801-.795 1.415-1.614 2.45-2.457 3.1ZM34.47 18.466a9.846 9.846 0 0 1 1.084-1.429 5.603 5.603 0 0 1 1.173-.992c.398-.244.777-.367 1.138-.367.386 0 .556.18.507.54-.048.361-.27.785-.669 1.272-.396.488-.953.982-1.662 1.481-.71.5-1.547.889-2.511 1.167.289-.58.602-1.138.94-1.672Zm35.174 15.747a6.664 6.664 0 0 0-1.139-1.55 6.474 6.474 0 0 0-1.75-1.272c-.688-.35-1.49-.523-2.404-.523-.433 0-.885.012-1.355.035-.47.023-.946.058-1.427.103.048-.092.096-.208.144-.347.12-.302.33-.865.632-1.69.301-.824.644-1.782 1.03-2.873.386-1.092.8-2.23 1.246-3.415.447-1.184.861-2.288 1.248-3.31a67.951 67.951 0 0 1 1.029-2.595c.3-.708.511-1.12.632-1.237.193-.185.241-.394.145-.627-.097-.232-.307-.447-.632-.644s-.74-.36-1.247-.488a6.829 6.829 0 0 0-1.662-.191c-.216 0-.452.156-.704.47-.254.314-.513.755-.777 1.324-.266.57-.543 1.242-.831 2.02-.29.779-.592 1.633-.904 2.56l-.361 1.08c-.193.395-.41.814-.65 1.254a9.14 9.14 0 0 1-.795 1.22 4.86 4.86 0 0 1-.922.923c-.325.244-.657.366-.994.366-.385 0-.644-.168-.777-.505-.133-.336-.174-.772-.126-1.306.048-.535.18-1.132.397-1.795a19.906 19.906 0 0 1 1.754-3.867c.348-.592.692-1.073 1.029-1.445.216-.256.228-.529.036-.818a3.044 3.044 0 0 0-.813-.802 5.916 5.916 0 0 0-1.103-.61c-.385-.161-.65-.244-.795-.244-.265 0-.578.186-.939.558-.361.372-.735.877-1.12 1.515-.385.64-.758 1.364-1.12 2.177a28.038 28.038 0 0 0-.976 2.526c-.288.87-.523 1.748-.704 2.631-.03.147-.043.28-.068.424l-.058.08c-.361.5-.722.965-1.084 1.394-.361.43-.717.784-1.066 1.062-.35.28-.68.418-.994.418-.193 0-.259-.162-.198-.487.06-.323.186-.745.38-1.267a54.15 54.15 0 0 1 .703-1.79c.277-.672.548-1.35.814-2.033.264-.684.487-1.356.669-2.016.18-.66.27-1.233.27-1.72a3.39 3.39 0 0 0-.252-1.304 3.792 3.792 0 0 0-.632-1.043 3.019 3.019 0 0 0-.832-.678c-.302-.161-.584-.243-.85-.243-.193 0-.56.14-1.101.418l-1.753.902c.072-.277.139-.607.2-.99.06-.382.054-.747-.019-1.094a1.68 1.68 0 0 0-.488-.886c-.252-.243-.669-.365-1.246-.365-.892 0-1.626.25-2.205.749-.578.5-.963 1.12-1.156 1.864-.266.905-.242 1.648.072 2.23.313.58.77.998 1.374 1.253a31.76 31.76 0 0 1-1.12 2.283c-.41.754-.796 1.41-1.157 1.968l-.067.15c-.27.378-.566.77-.908 1.19a11.543 11.543 0 0 1-2.06 1.952c-.794.592-1.71.887-2.745.887-.773 0-1.29-.26-1.555-.784-.266-.521-.349-1.166-.253-1.932.675 0 1.433-.186 2.276-.558.844-.371 1.65-.841 2.422-1.411a10.961 10.961 0 0 0 2.006-1.898c.564-.697.908-1.37 1.029-2.02.24-1.186.072-2.137-.506-2.858-.578-.72-1.505-1.08-2.782-1.08-.867 0-1.825.279-2.873.836-1.048.558-2.029 1.324-2.945 2.3-.915.975-1.686 2.12-2.312 3.431a9.7 9.7 0 0 0-.94 4.233c0 1.092.157 2.032.47 2.821.313.79.704 1.442 1.174 1.951.47.512.982.895 1.536 1.15.553.256 1.073.396 1.554.418 1.012.024 1.998-.208 2.963-.697A11.496 11.496 0 0 0 38.3 28.15a15.179 15.179 0 0 0 2.15-2.49c.131-.192.229-.37.347-.555.232-.374.526-.816.899-1.343.41-.581.83-1.215 1.264-1.9a40.75 40.75 0 0 0 1.248-2.107c.397-.72.715-1.406.957-2.056.867-.3 1.66-.778 2.384-1.428.12-.116.12.006 0 .365-.121.361-.306.86-.56 1.499-.253.638-.542 1.364-.867 2.177-.326.813-.638 1.615-.94 2.404-.3.79-.572 1.515-.812 2.178-.241.66-.386 1.155-.435 1.48a4.537 4.537 0 0 0-.053 1.654c.084.524.247.982.488 1.377.24.395.553.709.94.94.384.233.83.348 1.336.348a5.3 5.3 0 0 0 2.872-.913 11.05 11.05 0 0 0 2.259-1.965c.085-.094.16-.208.245-.305.086.245.19.482.314.71.254.465.591.848 1.013 1.15.421.302.969.441 1.644.418.6-.046 1.186-.266 1.752-.663a9.231 9.231 0 0 0 1.571-1.392 37.096 37.096 0 0 1-.704 2.055c-.254.674-.512 1.346-.777 2.02-1.06.279-2.084.633-3.071 1.063-.988.43-1.873.952-2.656 1.567a8.288 8.288 0 0 0-1.933 2.143c-.506.813-.806 1.73-.903 2.752a1.93 1.93 0 0 0-.036.628v.035c0 .394.084.824.252 1.288.169.465.434.894.796 1.289.36.396.831.732 1.408 1.01.579.28 1.302.419 2.169.419.794 0 1.505-.21 2.132-.627.625-.418 1.21-1.01 1.752-1.778.542-.766 1.072-1.7 1.59-2.804a74.704 74.704 0 0 0 1.608-3.71c.987-.14 1.957-.238 2.908-.297a20.22 20.22 0 0 1 2.656 0c.818.059 1.553.187 2.204.384.65.197 1.156.47 1.517.82.362.347.62.464.778.347.156-.116.204-.366.144-.749s-.23-.842-.506-1.375ZM83.265 20.817c-.276-.336-.68-.598-1.209-.784-.555-.208-1.254-.377-2.097-.505a34.388 34.388 0 0 0-2.692-.296 34.333 34.333 0 0 0-2.89-.088c-.975.013-1.867.059-2.674.14-.807.082-1.488.216-2.041.401-.553.186-.892.406-1.012.661-.072.187-.115.46-.126.819-.012.36.017.72.09 1.08.072.36.174.657.307.889.132.233.308.314.524.244.457-.163 1.071-.28 1.843-.349a24.22 24.22 0 0 1 2.493-.087c.89.012 1.812.058 2.764.139.95.082 1.83.186 2.639.314.806.128 1.51.279 2.113.453.602.173 1.011.355 1.228.54.168.162.355.197.56.104.205-.092.373-.273.506-.54.132-.266.229-.58.289-.941a2.752 2.752 0 0 0-.615-2.194ZM100.013 31.93c-.675.337-1.295.616-1.861.837-.565.22-1.06.394-1.481.522-.422.128-.717.192-.885.192-.507 0-.79-.07-.849-.21-.06-.139.03-.312.271-.522.24-.208.615-.436 1.12-.679a12.75 12.75 0 0 1 1.698-.662 14.661 14.661 0 0 1 1.987-.47 10.433 10.433 0 0 1 2.059-.14c-.698.418-1.384.796-2.059 1.132Zm5.312-17.157c-.892.51-1.765.998-2.62 1.463-.855.465-1.608.894-2.259 1.29-.409.231-.65.284-.722.156-.072-.127-.048-.366.073-.715.12-.347.313-.76.577-1.236.266-.476.53-.945.796-1.411.264-.441.656-.952 1.173-1.533a23.875 23.875 0 0 1 1.753-1.76 21.036 21.036 0 0 1 2.042-1.637c.71-.498 1.397-.888 2.059-1.167.663-.278 1.264-.4 1.807-.365.541.035.957.295 1.246.784.266.441.272.917.019 1.428-.254.511-.675 1.027-1.265 1.55a18.133 18.133 0 0 1-2.114 1.585 52.632 52.632 0 0 1-2.565 1.568Zm5.835 4.877a4.558 4.558 0 0 0-1.807-.993 7.76 7.76 0 0 0-2.15-.296 39.642 39.642 0 0 0 2.801-2.055 20.914 20.914 0 0 0 2.475-2.317c.722-.801 1.307-1.614 1.752-2.438.447-.824.669-1.632.669-2.422 0-1.254-.289-2.153-.867-2.7-.579-.545-1.307-.848-2.186-.906-.88-.057-1.838.07-2.873.384-1.036.313-2.018.72-2.945 1.22-.927.498-1.734 1.02-2.42 1.567-.495.393-.844.747-1.058 1.06.138-.252.275-.5.426-.782.216-.406.456-.841.722-1.306.145-.232.108-.482-.109-.748a3.627 3.627 0 0 0-.867-.75 5.765 5.765 0 0 0-1.12-.558c-.387-.139-.674-.209-.867-.209-2.987 0-5.559.175-7.714.523-2.157.348-3.939.83-5.348 1.445-1.41.617-2.451 1.355-3.126 2.213-.674.86-1.012 1.8-1.012 2.822 0 .813.23 1.573.687 2.282.458.709.958 1.271 1.5 1.69.541.417 1.041.626 1.499.626.458 0 .687-.3.687-.906 0-.486.018-.998.054-1.532a6.363 6.363 0 0 1 .324-1.603c.182-.534.483-1.05.904-1.55.422-.499 1.012-.958 1.77-1.376.76-.418 1.73-.778 2.91-1.08 1.179-.301 2.625-.523 4.336-.662a39.045 39.045 0 0 0-1.5 3.815 331.453 331.453 0 0 1-1.535 4.407 72.62 72.62 0 0 1-1.663 4.25c-.578 1.348-1.2 2.445-1.86 3.292-.663.848-1.369 1.359-2.115 1.533-.746.175-1.553-.156-2.42-.993-.217-.209-.403-.227-.56-.052-.158.173-.254.459-.29.853-.035.395.019.854.162 1.377.145.521.404 1.016.779 1.48.373.465.878.86 1.517 1.184.638.326 1.438.489 2.402.489.916 0 1.717-.238 2.403-.716.687-.475 1.301-1.132 1.843-1.967.542-.836 1.035-1.823 1.482-2.962.445-1.137.91-2.38 1.39-3.728.265.326.56.629.885.907.326.278.693.418 1.103.418.168 0 .47-.075.903-.226.434-.152.939-.378 1.518-.68a16.49 16.49 0 0 1 1.644-.453 4.69 4.69 0 0 1 1.734-.087c.542.082.994.33 1.355.75.362.417.542 1.079.542 1.985 0 .93-.216 1.794-.65 2.596a9.897 9.897 0 0 1-1.734 2.282 11.878 11.878 0 0 0-1.59-.262 19.226 19.226 0 0 0-1.916-.088c-1.662 0-3.102.216-4.317.645-1.218.43-2.229.958-3.036 1.586-.806.626-1.409 1.3-1.806 2.02-.398.72-.597 1.37-.597 1.951 0 .441.102.86.308 1.254.205.394.488.737.849 1.027.362.29.782.524 1.265.697.482.175.999.261 1.554.261.867 0 1.794-.121 2.781-.366.988-.243 1.989-.58 2.999-1.01a23.792 23.792 0 0 0 3.018-1.55 25.657 25.657 0 0 0 2.8-1.95c.456.279.813.522 1.065.73.254.21.477.314.67.314.095 0 .185-.076.271-.226.083-.151.138-.348.162-.592.023-.245 0-.523-.072-.836a3.383 3.383 0 0 0-.397-.958c.987-1.022 1.781-2.073 2.384-3.153.602-1.08.904-2.166.904-3.258 0-1.114-.151-2.049-.452-2.804-.302-.754-.711-1.364-1.229-1.83ZM151.104 39.264c-.843.65-1.722.708-2.638.174-.216-.233-.234-.488-.054-.767.18-.278.506-.563.976-.854.47-.29 1.065-.574 1.788-.852.723-.28 1.518-.546 2.384-.801-.794 1.415-1.613 2.45-2.456 3.1Zm-31.362-20.798a9.812 9.812 0 0 1 1.083-1.429 5.608 5.608 0 0 1 1.175-.992c.398-.244.777-.367 1.138-.367.385 0 .554.18.505.54-.048.361-.27.785-.668 1.272-.397.488-.952.982-1.661 1.481-.711.5-1.549.889-2.513 1.167.29-.58.603-1.138.941-1.672Zm48.615 15.747a6.61 6.61 0 0 0-1.138-1.55 6.469 6.469 0 0 0-1.752-1.272c-.686-.35-1.488-.523-2.403-.523-.434 0-.886.012-1.355.035-.47.023-.945.058-1.427.103.048-.092.096-.208.144-.347a75.2 75.2 0 0 0 .633-1.69c.3-.824.644-1.782 1.029-2.873.386-1.092.801-2.23 1.247-3.415l1.246-3.31a67.15 67.15 0 0 1 1.031-2.595c.3-.708.511-1.12.632-1.237.192-.185.24-.394.143-.627-.096-.232-.306-.447-.63-.644-.326-.197-.742-.36-1.248-.488a6.821 6.821 0 0 0-1.661-.191c-.218 0-.453.156-.705.47-.253.314-.512.755-.778 1.324a27.59 27.59 0 0 0-.83 2.02c-.29.779-.591 1.633-.903 2.56l-.362 1.08c-.194.395-.41.814-.651 1.254a8.95 8.95 0 0 1-.794 1.22c-.289.373-.596.68-.921.923-.326.244-.657.366-.994.366-.387 0-.646-.168-.777-.505-.133-.336-.175-.772-.127-1.306.048-.535.182-1.132.398-1.795a19.17 19.17 0 0 1 .777-1.985c.3-.663.626-1.289.975-1.881.349-.593.692-1.074 1.031-1.446.216-.256.228-.529.035-.818a3.029 3.029 0 0 0-.813-.802 5.912 5.912 0 0 0-1.102-.61c-.385-.161-.651-.244-.794-.244-.266 0-.579.186-.941.558-.361.372-.734.877-1.12 1.515-.384.64-.758 1.364-1.119 2.177a27.599 27.599 0 0 0-.976 2.526c-.288.87-.523 1.748-.704 2.631a13.22 13.22 0 0 0-.217 1.505c-.107.163-.197.31-.308.48-.409.627-.819 1.22-1.228 1.777a9.955 9.955 0 0 1-1.192 1.376c-.386.36-.736.54-1.048.54-.218 0-.289-.215-.218-.643.073-.429.223-.99.452-1.687a63.85 63.85 0 0 1 .831-2.346c.326-.869.639-1.732.94-2.59.301-.858.553-1.67.759-2.433.204-.766.307-1.403.307-1.913 0-.486-.085-.927-.254-1.321a3.81 3.81 0 0 0-.631-1.025 3.008 3.008 0 0 0-.831-.678c-.302-.162-.585-.244-.849-.244-.194 0-.561.14-1.102.417-.543.28-1.127.579-1.753.905.072-.279.144-.609.217-.992a2.801 2.801 0 0 0 0-1.095 1.685 1.685 0 0 0-.487-.886c-.254-.243-.67-.365-1.248-.365-.915 0-1.661.25-2.24.749-.578.5-.964 1.12-1.156 1.864-.24.882-.211 1.62.09 2.212a2.628 2.628 0 0 0 1.355 1.27c-.169.35-.392.802-.668 1.36a42.315 42.315 0 0 1-2.077 3.693c-.411.65-.838 1.23-1.283 1.742-.447.51-.886.929-1.32 1.254-.432.325-.867.487-1.301.487-.192 0-.258-.162-.198-.487.06-.325.187-.75.38-1.272.192-.522.427-1.116.704-1.777.277-.662.548-1.341.813-2.037.266-.697.487-1.37.668-2.022.181-.65.271-1.23.271-1.741 0-.488-.084-.93-.252-1.324a3.905 3.905 0 0 0-.632-1.028 2.936 2.936 0 0 0-.849-.68c-.314-.161-.604-.242-.868-.242-.192 0-.56.138-1.102.417-.542.28-1.126.581-1.752.906.095-.28.18-.61.252-.993a2.775 2.775 0 0 0 0-1.098 1.627 1.627 0 0 0-.506-.888c-.264-.243-.686-.365-1.265-.365-.89 0-1.625.25-2.203.749-.578.5-.965 1.12-1.157 1.864-.265.882-.241 1.62.073 2.212a2.71 2.71 0 0 0 1.373 1.27c-.338.79-.717 1.598-1.138 2.422-.068.134-.134.254-.2.378-.198.096-.443.371-.74.842a20.24 20.24 0 0 1-1.426 1.95 11.508 11.508 0 0 1-2.06 1.952c-.795.592-1.71.887-2.746.887-.771 0-1.288-.26-1.554-.784-.265-.521-.35-1.166-.253-1.932.675 0 1.434-.186 2.277-.558a12.646 12.646 0 0 0 2.42-1.411 10.91 10.91 0 0 0 2.006-1.898c.566-.697.909-1.37 1.03-2.02.239-1.186.073-2.137-.507-2.858-.577-.72-1.505-1.08-2.781-1.08-.867 0-1.825.279-2.873.836-1.048.558-2.029 1.324-2.945 2.3-.915.975-1.686 2.12-2.313 3.431a9.734 9.734 0 0 0-.939 4.233c0 1.092.156 2.032.47 2.821.312.79.705 1.442 1.175 1.951.469.512.981.895 1.536 1.15.553.256 1.071.396 1.552.418 1.012.024 1.999-.208 2.963-.697a11.463 11.463 0 0 0 2.674-1.881 15.207 15.207 0 0 0 2.052-2.362c.164.04.371-.106.622-.46.264-.371.596-.859.993-1.462.397-.605.813-1.249 1.246-1.934.434-.685.843-1.394 1.23-2.125.385-.732.709-1.433.975-2.108a7.243 7.243 0 0 0 1.229-.557 5.24 5.24 0 0 0 1.156-.905c.12-.117.12.011 0 .383-.121.37-.308.877-.56 1.515l-.867 2.195-.958 2.421c-.314.79-.59 1.515-.832 2.178-.24.662-.385 1.155-.433 1.48a5.658 5.658 0 0 0-.071 1.567c.047.511.185.97.414 1.377.23.406.542.737.94.992.398.256.885.383 1.463.383.723 0 1.475-.255 2.258-.766.783-.51 1.561-1.167 2.331-1.969a25.17 25.17 0 0 0 2.241-2.7 52.631 52.631 0 0 0 1.987-2.944 61.743 61.743 0 0 0 1.59-2.682c.457-.824.794-1.48 1.011-1.968.41-.139.819-.325 1.229-.557.41-.233.795-.534 1.157-.905.119-.117.083.052-.109.504a205.93 205.93 0 0 1-.813 1.863c-.35.79-.741 1.69-1.175 2.701a98.444 98.444 0 0 0-1.228 2.996 38.333 38.333 0 0 0-.976 2.787c-.265.87-.397 1.563-.397 2.072 0 .49.048.964.144 1.43.096.464.271.877.525 1.235.252.361.595.645 1.029.854.433.21.976.313 1.626.313.53 0 1.048-.11 1.554-.333a7 7 0 0 0 1.481-.895c.482-.375.945-.796 1.391-1.264a19.937 19.937 0 0 0 1.966-2.412l.058.132c.253.465.59.848 1.012 1.15.421.302.969.441 1.643.418.602-.046 1.186-.266 1.752-.663a9.22 9.22 0 0 0 1.573-1.392 38.736 38.736 0 0 1-.704 2.055c-.254.674-.513 1.346-.778 2.02-1.06.279-2.084.633-3.072 1.063-.987.43-1.872.952-2.655 1.567a8.266 8.266 0 0 0-1.932 2.143c-.507.813-.808 1.73-.904 2.752-.048.232-.06.442-.036.628v.035c0 .394.085.824.253 1.288.169.465.433.894.795 1.289.36.396.831.732 1.408 1.01.579.28 1.301.419 2.168.419.796 0 1.506-.21 2.132-.627.627-.418 1.212-1.01 1.752-1.778.544-.766 1.073-1.7 1.592-2.804a77.274 77.274 0 0 0 1.607-3.71c.988-.14 1.957-.238 2.908-.297a20.23 20.23 0 0 1 2.656 0c.819.059 1.554.187 2.204.384.651.197 1.156.47 1.518.82.361.347.62.464.777.347.156-.116.204-.366.145-.749-.061-.383-.229-.842-.507-1.375ZM171.801 13.978l-.053-.118-.135-.047h-.163l-.117.043-.063.104-.243 1.243h-.045l-.245-1.243-.063-.104-.117-.043h-.161l-.136.047-.054.118-.199 2.59.045.144.144.057h.064l.13-.052.059-.123.082-1.651h.045l.233 1.07.073.104.117.043.126-.043.073-.104.234-1.07h.044l.083 1.651.058.123.131.052h.063l.144-.057.045-.144-.199-2.59ZM169.801 13.813h-.975l-.135.052-.055.13v.07l.055.13.135.053h.073l.135.051.053.13v2.158l.055.13.135.052h.073l.135-.052.053-.13V14.43l.055-.13.135-.052h.073l.134-.052.054-.131v-.07l-.054-.13-.134-.052Z" fill="#fff"/></svg>